<?xml version="1.0" encoding="utf-8"?>
<!-- Generator: Adobe Illustrator 24.0.0, SVG Export Plug-In . SVG Version: 6.00 Build 0)  -->
<svg version="1.1" id="Layer_1" xmlns="http://www.w3.org/2000/svg" xmlns:xlink="http://www.w3.org/1999/xlink" x="0px" y="0px"
	 viewBox="0 0 1000 569" style="enable-background:new 0 0 1000 569;" xml:space="preserve">
<style type="text/css">
	.st0{fill:#231F20;}
	.st1{fill:#00ADEE;}
</style>
<g>
	<g>
		<path class="st0" d="M500,130v12c-29.2,0-52.9,23.7-52.9,52.9c0,29.2,23.7,52.9,52.9,52.9v43.4l63.4-80l25.9-74.7L500,130z
			 M488.6,195.6c-2.5-0.1-5-0.2-7.5-0.2c0.2-5.4,2.3-9.9,5.5-13.2l4.8,5.9C489.7,190.1,488.6,192.6,488.6,195.6z M509.6,186.9
			c-3.2-3-7.1-3.9-10.8-3.2l-5.1-6.3c6.7-2.7,14.9-1.8,21.1,4.1C513.1,183.2,511.4,185.1,509.6,186.9z"/>
		<path class="st1" d="M500,150.7c-24.4,0-44.2,19.8-44.2,44.2c0,24.4,19.8,44.2,44.2,44.2c24.4,0,44.2-19.8,44.2-44.2
			C544.2,170.5,524.4,150.7,500,150.7z M500,228.8c-18.7,0-33.8-15.1-33.8-33.8c0-18.7,15.1-33.8,33.8-33.8
			c18.7,0,33.8,15.1,33.8,33.8C533.8,213.6,518.7,228.8,500,228.8z"/>
		<path class="st1" d="M500,171.6c-12.9,0-23.3,10.4-23.3,23.3c0,12.9,10.4,23.3,23.3,23.3c12.9,0,23.3-10.4,23.3-23.3
			C523.3,182.1,512.9,171.6,500,171.6z M488.6,195.6c-2.5-0.1-5-0.2-7.5-0.2c0.2-5.4,2.3-9.9,5.5-13.2l4.8,5.9
			C489.7,190.1,488.6,192.6,488.6,195.6z M509.6,186.9c-3.2-3-7.1-3.9-10.8-3.2l-5.1-6.3c6.7-2.7,14.9-1.8,21.1,4.1
			C513.1,183.2,511.4,185.1,509.6,186.9z"/>
		<path class="st1" d="M447.1,194.9c0-29.2,23.7-52.9,52.9-52.9v-12l-89.3,6.6l25.9,74.7l63.4,80v-43.4
			C470.8,247.9,447.1,224.2,447.1,194.9z"/>
		<path class="st1" d="M500,57.4c-6.5,0-12.9,0.4-14.6,1.1c-3.8,1.7-16.1,10.4-20.7,16.1c0,0,9.3-2.2,17.8,4.4
			c4.2,3.3,17.4,9,17.4,9l-22.5,0.9l-13.7-10.6c-0.5,0.8-1.8,6.8-1.8,6.8s3.7,14.9,5.4,19.8c1.7,4.9,8.5,18.8,8.5,18.8l24.2-1V57.4z
			"/>
		<path class="st0" d="M500,57.4c6.5,0,12.9,0.4,14.6,1.1c3.8,1.7,16.1,10.4,20.7,16.1c0,0-9.3-2.2-17.8,4.4c-4.1,3.3-17.4,9-17.4,9
			l22.5,0.9l13.7-10.6c0.5,0.8,1.8,6.8,1.8,6.8s-3.7,14.9-5.4,19.8c-1.7,4.9-8.5,18.8-8.5,18.8l-24.2-1V57.4z"/>
	</g>
	<g>
		<g>
			<path class="st0" d="M287,490.3c0,1.7-0.3,3.3-0.8,4.8c-0.5,1.5-1.3,2.7-2.3,3.8c-1,1.1-2.1,1.9-3.5,2.5
				c-1.3,0.6-2.8,0.9-4.5,0.9c-1.7,0-3.2-0.2-4.6-0.7c-1.4-0.5-2.4-1-3.2-1.6l1.6-4.7c0.5,0.4,1.2,0.8,2.2,1.1c1,0.3,2,0.5,3,0.5
				c0.9,0,1.7-0.2,2.5-0.5c0.7-0.4,1.3-0.9,1.9-1.5c0.5-0.6,0.9-1.3,1.1-2.1c0.3-0.8,0.4-1.6,0.4-2.4c0-1.7-0.3-3.1-0.9-4.4
				c-0.6-1.2-1.4-2.4-2.3-3.4c-0.9-1.1-1.9-2.1-3-3.1c-1.1-1-2-2.1-3-3.4c-0.9-1.2-1.7-2.6-2.3-4.2c-0.6-1.6-0.9-3.4-0.9-5.6
				c0-1.7,0.3-3.3,0.8-4.7c0.5-1.4,1.3-2.6,2.3-3.5c1-1,2.1-1.7,3.4-2.2c1.3-0.5,2.8-0.7,4.3-0.7c1.6,0,3.1,0.2,4.3,0.7
				c1.3,0.5,2.2,1,2.8,1.5l-1.4,4.3c-0.5-0.4-1.2-0.7-2.1-1c-0.9-0.3-1.9-0.5-2.9-0.5c-1.8,0-3.1,0.6-4.2,1.8
				c-1,1.2-1.6,2.6-1.6,4.4c0,1.7,0.3,3.1,0.9,4.4c0.6,1.2,1.4,2.4,2.3,3.4c0.9,1.1,1.9,2.1,3,3.1c1.1,1,2.1,2.2,3,3.4
				c0.9,1.2,1.7,2.6,2.3,4.2C286.7,486.3,287,488.1,287,490.3z"/>
			<path class="st0" d="M298.8,458.4c0,0.9-0.3,1.7-0.9,2.3c-0.6,0.6-1.4,1-2.3,1c-0.9,0-1.7-0.3-2.3-1c-0.6-0.6-1-1.4-1-2.3
				s0.3-1.7,0.9-2.3c0.6-0.6,1.4-0.9,2.3-0.9c0.9,0,1.7,0.3,2.3,0.9C298.5,456.7,298.8,457.4,298.8,458.4z M292.7,501.6v-33.4h5.7
				v33.4H292.7z"/>
			<path class="st0" d="M319.5,493c0,1.4-0.2,2.6-0.7,3.7c-0.5,1.1-1.1,2.1-1.9,2.9c-0.8,0.8-1.8,1.4-2.9,1.9
				c-1.1,0.4-2.3,0.7-3.6,0.7c-1.5,0-2.9-0.2-4-0.6c-1.1-0.4-2.1-0.9-2.9-1.6l1.4-4.4c0.5,0.4,1.2,0.8,2,1.1
				c0.8,0.3,1.7,0.5,2.7,0.5c1.1,0,2.1-0.4,2.8-1.1c0.8-0.7,1.1-1.8,1.1-3c0-1.2-0.2-2.2-0.7-3c-0.5-0.8-1.1-1.6-1.8-2.2
				c-0.7-0.7-1.5-1.3-2.3-1.9c-0.8-0.6-1.6-1.3-2.3-2.2c-0.7-0.8-1.3-1.8-1.8-2.9c-0.5-1.1-0.7-2.5-0.7-4.2c0-2.7,0.8-4.9,2.3-6.5
				c1.5-1.6,3.6-2.4,6.1-2.4c1.5,0,2.8,0.2,3.9,0.7c1.1,0.5,2,1,2.6,1.5l-1.4,4.1c-0.4-0.4-1-0.7-1.7-1c-0.7-0.3-1.5-0.5-2.5-0.5
				c-1.2,0-2.1,0.4-2.7,1.1c-0.7,0.7-1,1.8-1,3c0,1.1,0.2,2.1,0.7,2.8c0.5,0.8,1.1,1.5,1.8,2.1c0.7,0.6,1.5,1.3,2.4,1.9
				c0.9,0.6,1.6,1.4,2.4,2.2c0.7,0.8,1.3,1.8,1.8,3C319.2,489.9,319.5,491.3,319.5,493z"/>
			<path class="st0" d="M336.1,501.4c-0.3,0.1-0.6,0.3-1.1,0.4c-0.5,0.1-1.1,0.2-1.8,0.2c-2.2,0-3.9-0.7-5.1-2.1
				c-1.2-1.4-1.8-3.4-1.8-5.9v-21.5h-2.9v-4.2h2.9V461l5.7-2v9.2h4v4.2h-4v20.8c0,1.5,0.2,2.5,0.7,3.1c0.5,0.6,1.1,0.9,1.9,0.9
				c0.3,0,0.5,0,0.8-0.1c0.2-0.1,0.4-0.1,0.6-0.2V501.4z"/>
			<path class="st0" d="M361.4,483.7c0,0.4,0,0.8,0,1.3c0,0.5,0,0.9-0.1,1.3l-14.7,1.8c0,1.3,0.2,2.5,0.5,3.6c0.3,1.1,0.7,2,1.2,2.8
				c0.5,0.8,1.2,1.4,1.9,1.9c0.7,0.5,1.6,0.7,2.6,0.7c1.5,0,2.8-0.2,3.9-0.5c1.1-0.3,1.9-0.7,2.5-1.1l1.5,4.4
				c-0.8,0.6-1.9,1.1-3.3,1.5c-1.4,0.4-3.1,0.7-5,0.7c-3.8,0-6.7-1.5-8.7-4.4c-2-2.9-3-7.1-3-12.4c0-5.9,0.9-10.4,2.8-13.3
				c1.8-2.9,4.5-4.4,7.9-4.4c1.7,0,3.2,0.4,4.5,1.2c1.2,0.8,2.3,1.9,3.1,3.3c0.8,1.4,1.4,3.1,1.8,5.1
				C361.2,479.2,361.4,481.4,361.4,483.7z M355.7,483c0-1.6-0.1-3.1-0.3-4.5c-0.1-1.3-0.4-2.5-0.7-3.5c-0.3-1-0.8-1.7-1.4-2.3
				c-0.6-0.5-1.2-0.8-2-0.8c-1.6,0-2.8,1.1-3.6,3.2c-0.8,2.2-1.2,5.2-1.1,9L355.7,483z"/>
			<path class="st0" d="M394,501.6v-24.6c0-3.3-1.3-5-3.9-5c-1.5,0-2.8,0.6-3.8,1.8v27.7h-5.7v-24.7c0-1.4-0.3-2.6-1-3.5
				c-0.7-0.9-1.8-1.3-3.3-1.3c-0.8,0-1.5,0.1-2,0.2c-0.5,0.1-1,0.3-1.4,0.5v28.9h-5.7v-31.7c0.9-0.6,2.2-1.1,3.7-1.5
				c1.5-0.4,3.4-0.7,5.6-0.7c2,0,3.6,0.3,4.7,0.9c1.1,0.6,2,1.3,2.6,2.1c0.8-0.8,1.8-1.5,3.1-2.1c1.3-0.6,2.8-0.9,4.5-0.9
				c2.6,0,4.7,0.8,6.2,2.4c1.5,1.6,2.2,3.8,2.2,6.8v24.8H394z"/>
			<path class="st0" d="M424.1,499.9c-0.9,0.7-2.2,1.2-3.7,1.6c-1.5,0.4-3.2,0.7-5.2,0.7c-1.7,0-3.2-0.3-4.5-0.8
				c-1.3-0.6-2.3-1.3-3.1-2.3c-0.8-0.9-1.4-2.1-1.8-3.3c-0.4-1.3-0.6-2.6-0.6-4c0-2,0.4-3.8,1.1-5.3c0.7-1.5,1.7-2.7,2.9-3.7
				c1.2-1,2.6-1.8,4.2-2.3c1.6-0.6,3.3-1,5.2-1.2v-1.7c0-3.4-1.5-5.1-4.6-5.1c-1.3,0-2.5,0.2-3.6,0.5c-1.1,0.4-2,0.7-2.7,1.1
				l-1.3-4.1c0.8-0.5,1.9-1,3.4-1.5c1.5-0.5,3.1-0.7,5-0.7c3,0,5.2,0.8,6.8,2.5c1.6,1.7,2.4,4.2,2.4,7.6V499.9z M418.5,483
				c-2.4,0.4-4.3,1.2-5.7,2.4c-1.4,1.2-2.1,3.2-2.1,5.9c0,1.8,0.4,3.3,1.2,4.6c0.8,1.3,2,1.9,3.6,1.9c0.6,0,1.2-0.1,1.7-0.2
				c0.5-0.1,1-0.3,1.3-0.5V483z"/>
			<path class="st0" d="M445,493c0,1.4-0.2,2.6-0.7,3.7c-0.5,1.1-1.1,2.1-1.9,2.9c-0.8,0.8-1.8,1.4-2.9,1.9
				c-1.1,0.4-2.3,0.7-3.6,0.7c-1.5,0-2.9-0.2-4-0.6c-1.1-0.4-2.1-0.9-2.9-1.6l1.4-4.4c0.5,0.4,1.2,0.8,2,1.1
				c0.8,0.3,1.7,0.5,2.7,0.5c1.1,0,2.1-0.4,2.8-1.1c0.8-0.7,1.1-1.8,1.1-3c0-1.2-0.2-2.2-0.7-3c-0.5-0.8-1.1-1.6-1.8-2.2
				c-0.7-0.7-1.5-1.3-2.3-1.9c-0.8-0.6-1.6-1.3-2.3-2.2c-0.7-0.8-1.3-1.8-1.8-2.9c-0.5-1.1-0.7-2.5-0.7-4.2c0-2.7,0.8-4.9,2.3-6.5
				c1.5-1.6,3.6-2.4,6.1-2.4c1.5,0,2.8,0.2,3.9,0.7c1.1,0.5,2,1,2.6,1.5L443,474c-0.4-0.4-1-0.7-1.7-1c-0.7-0.3-1.5-0.5-2.5-0.5
				c-1.2,0-2.1,0.4-2.7,1.1c-0.7,0.7-1,1.8-1,3c0,1.1,0.2,2.1,0.7,2.8c0.5,0.8,1.1,1.5,1.8,2.1c0.7,0.6,1.5,1.3,2.4,1.9
				c0.9,0.6,1.7,1.4,2.4,2.2c0.7,0.8,1.3,1.8,1.8,3C444.7,489.9,445,491.3,445,493z"/>
			<path class="st0" d="M482.2,500c-0.8,0.5-1.9,1-3.3,1.5c-1.4,0.5-3.1,0.7-5.2,0.7c-3.6,0-6.5-1.4-8.5-4.3c-2-2.9-3-7.1-3-12.7
				c0-5.7,0.9-9.9,2.8-12.9c1.9-2.9,4.5-4.4,7.9-4.4c0.9,0,1.6,0.1,2.2,0.2c0.6,0.1,1,0.3,1.3,0.4v-12.9h5.7V500z M476.5,472.6
				c-0.2-0.1-0.5-0.1-0.9-0.2c-0.4-0.1-0.8-0.1-1.3-0.1c-2.3,0-3.9,1.1-4.8,3.3c-0.9,2.2-1.3,5.3-1.3,9.3c0,4.1,0.5,7.2,1.4,9.4
				c0.9,2.2,2.4,3.2,4.3,3.2c1.2,0,2.1-0.1,2.6-0.4V472.6z"/>
			<path class="st0" d="M508.6,483.7c0,0.4,0,0.8,0,1.3c0,0.5,0,0.9-0.1,1.3l-14.7,1.8c0,1.3,0.2,2.5,0.5,3.6c0.3,1.1,0.7,2,1.2,2.8
				c0.5,0.8,1.2,1.4,1.9,1.9c0.7,0.5,1.6,0.7,2.6,0.7c1.5,0,2.8-0.2,3.9-0.5c1.1-0.3,1.9-0.7,2.5-1.1l1.5,4.4
				c-0.8,0.6-1.9,1.1-3.3,1.5c-1.4,0.4-3.1,0.7-5,0.7c-3.8,0-6.7-1.5-8.7-4.4c-2-2.9-3-7.1-3-12.4c0-5.9,0.9-10.4,2.8-13.3
				c1.8-2.9,4.5-4.4,7.9-4.4c1.8,0,3.2,0.4,4.5,1.2c1.2,0.8,2.3,1.9,3.1,3.3c0.8,1.4,1.4,3.1,1.8,5.1
				C508.4,479.2,508.6,481.4,508.6,483.7z M502.8,483c0-1.6-0.1-3.1-0.3-4.5c-0.1-1.3-0.4-2.5-0.7-3.5c-0.3-1-0.8-1.7-1.4-2.3
				c-0.6-0.5-1.2-0.8-2-0.8c-1.6,0-2.8,1.1-3.6,3.2c-0.8,2.2-1.2,5.2-1.1,9L502.8,483z"/>
			<path class="st0" d="M544.6,490.3c0,1.7-0.3,3.3-0.8,4.8c-0.5,1.5-1.3,2.7-2.3,3.8c-1,1.1-2.1,1.9-3.5,2.5
				c-1.3,0.6-2.8,0.9-4.5,0.9c-1.7,0-3.2-0.2-4.6-0.7c-1.4-0.5-2.4-1-3.2-1.6l1.6-4.7c0.5,0.4,1.2,0.8,2.2,1.1c1,0.3,2,0.5,3,0.5
				c0.9,0,1.7-0.2,2.5-0.5c0.7-0.4,1.3-0.9,1.9-1.5c0.5-0.6,0.9-1.3,1.2-2.1c0.3-0.8,0.4-1.6,0.4-2.4c0-1.7-0.3-3.1-0.9-4.4
				c-0.6-1.2-1.4-2.4-2.3-3.4c-0.9-1.1-1.9-2.1-3-3.1c-1.1-1-2-2.1-3-3.4c-0.9-1.2-1.7-2.6-2.3-4.2c-0.6-1.6-0.9-3.4-0.9-5.6
				c0-1.7,0.3-3.3,0.8-4.7c0.5-1.4,1.3-2.6,2.3-3.5c1-1,2.1-1.7,3.4-2.2c1.3-0.5,2.8-0.7,4.3-0.7c1.6,0,3.1,0.2,4.4,0.7
				c1.3,0.5,2.2,1,2.8,1.5l-1.4,4.3c-0.5-0.4-1.2-0.7-2.1-1c-0.9-0.3-1.9-0.5-2.9-0.5c-1.8,0-3.1,0.6-4.2,1.8
				c-1,1.2-1.6,2.6-1.6,4.4c0,1.7,0.3,3.1,0.9,4.4c0.6,1.2,1.4,2.4,2.3,3.4c0.9,1.1,1.9,2.1,3,3.1c1.1,1,2.1,2.2,3,3.4
				c0.9,1.2,1.7,2.6,2.3,4.2C544.3,486.3,544.6,488.1,544.6,490.3z"/>
			<path class="st0" d="M569.8,483.7c0,0.4,0,0.8,0,1.3c0,0.5,0,0.9-0.1,1.3l-14.7,1.8c0,1.3,0.2,2.5,0.5,3.6c0.3,1.1,0.7,2,1.2,2.8
				c0.5,0.8,1.2,1.4,1.9,1.9c0.7,0.5,1.6,0.7,2.6,0.7c1.5,0,2.8-0.2,3.9-0.5c1.1-0.3,1.9-0.7,2.5-1.1l1.5,4.4
				c-0.8,0.6-1.9,1.1-3.3,1.5c-1.4,0.4-3.1,0.7-5,0.7c-3.8,0-6.7-1.5-8.7-4.4c-2-2.9-3-7.1-3-12.4c0-5.9,0.9-10.4,2.8-13.3
				c1.8-2.9,4.5-4.4,7.9-4.4c1.7,0,3.2,0.4,4.5,1.2c1.2,0.8,2.3,1.9,3.1,3.3c0.8,1.4,1.4,3.1,1.8,5.1
				C569.6,479.2,569.8,481.4,569.8,483.7z M564,483c0-1.6-0.1-3.1-0.3-4.5c-0.1-1.3-0.4-2.5-0.7-3.5c-0.3-1-0.8-1.7-1.4-2.3
				c-0.6-0.5-1.2-0.8-2-0.8c-1.6,0-2.8,1.1-3.6,3.2c-0.8,2.2-1.2,5.2-1.1,9L564,483z"/>
			<path class="st0" d="M594.5,498.7c0,4-0.9,7-2.8,9.1c-1.9,2.1-4.4,3.1-7.6,3.1c-1.8,0-3.4-0.2-4.9-0.6c-1.5-0.4-2.7-0.9-3.6-1.6
				l1.6-4.4c0.5,0.4,1.4,0.8,2.5,1.1c1.1,0.3,2.3,0.5,3.5,0.5c2,0,3.4-0.6,4.3-1.9c0.9-1.3,1.3-2.9,1.3-4.8v-1.2
				c-0.4,0.3-1,0.5-1.8,0.7c-0.8,0.2-1.8,0.4-2.8,0.4c-1.5,0-2.8-0.4-4-1.1c-1.2-0.7-2.2-1.7-3-3c-0.8-1.3-1.4-2.8-1.9-4.7
				s-0.7-3.9-0.7-6.1c0-2.4,0.2-4.7,0.7-6.7c0.5-2,1.2-3.8,2.2-5.3c1-1.5,2.2-2.6,3.7-3.4c1.5-0.8,3.2-1.2,5.2-1.2
				c1.8,0,3.4,0.2,4.8,0.7c1.4,0.4,2.5,0.9,3.3,1.5V498.7z M588.8,472.6c-0.7-0.4-1.5-0.5-2.6-0.5c-1,0-1.9,0.3-2.6,0.8
				c-0.7,0.6-1.3,1.4-1.7,2.4c-0.5,1-0.8,2.3-1,3.7c-0.2,1.5-0.3,3.1-0.3,4.8c0,3.3,0.4,6,1.1,7.9c0.8,2,2.1,2.9,3.9,2.9
				c0.7,0,1.3-0.1,1.9-0.2c0.6-0.2,1-0.3,1.3-0.5V472.6z"/>
			<path class="st0" d="M620.3,500c-0.9,0.6-2.1,1.1-3.8,1.5c-1.6,0.4-3.5,0.7-5.6,0.7c-3.1,0-5.6-0.8-7.2-2.4
				c-1.7-1.6-2.5-4-2.5-7.4v-24.2h5.7V493c0,1.6,0.4,2.7,1.1,3.4c0.7,0.7,1.7,1.1,3.1,1.1c0.7,0,1.4-0.1,2.1-0.2
				c0.7-0.1,1.2-0.3,1.5-0.6v-28.5h5.7V500z"/>
			<path class="st0" d="M637.9,473c-0.8-0.4-1.7-0.6-2.7-0.7c-1,0-1.9,0.1-2.6,0.5v28.8h-5.7v-31.7c1-0.6,2.3-1.1,3.9-1.6
				c1.6-0.4,3.3-0.6,5.2-0.6c0.5,0,1.1,0,1.7,0.1c0.6,0,1.1,0.1,1.6,0.2L637.9,473z"/>
			<path class="st0" d="M661.2,499.9c-1,0.7-2.2,1.2-3.7,1.6c-1.5,0.4-3.2,0.7-5.2,0.7c-1.7,0-3.2-0.3-4.5-0.8
				c-1.3-0.6-2.3-1.3-3.1-2.3c-0.8-0.9-1.4-2.1-1.8-3.3c-0.4-1.3-0.6-2.6-0.6-4c0-2,0.4-3.8,1.1-5.3c0.7-1.5,1.7-2.7,2.9-3.7
				c1.2-1,2.6-1.8,4.2-2.3c1.6-0.6,3.3-1,5.2-1.2v-1.7c0-3.4-1.5-5.1-4.6-5.1c-1.3,0-2.5,0.2-3.6,0.5c-1.1,0.4-2,0.7-2.7,1.1
				l-1.3-4.1c0.8-0.5,1.9-1,3.4-1.5c1.5-0.5,3.1-0.7,5-0.7c3,0,5.2,0.8,6.8,2.5c1.6,1.7,2.4,4.2,2.4,7.6V499.9z M655.6,483
				c-2.4,0.4-4.3,1.2-5.7,2.4c-1.4,1.2-2.1,3.2-2.1,5.9c0,1.8,0.4,3.3,1.2,4.6c0.8,1.3,2,1.9,3.6,1.9c0.6,0,1.2-0.1,1.7-0.2
				c0.5-0.1,1-0.3,1.3-0.5V483z"/>
			<path class="st0" d="M681.3,501.6v-24.6c0-1.6-0.3-2.8-1-3.7c-0.7-0.9-1.8-1.3-3.4-1.3c-0.8,0-1.4,0.1-2,0.2
				c-0.5,0.1-1,0.3-1.5,0.5v28.9h-5.7v-31.7c1.1-0.6,2.4-1.1,3.9-1.6c1.6-0.4,3.4-0.6,5.4-0.6c3.5,0,6.1,0.8,7.6,2.4
				c1.5,1.6,2.3,3.9,2.3,6.7v24.8H681.3z"/>
			<path class="st0" d="M709.1,500c-0.5,0.5-1.2,1-2.2,1.5c-0.9,0.5-2.2,0.7-3.9,0.7c-3.3,0-5.8-1.4-7.6-4.3
				c-1.8-2.9-2.7-7.2-2.7-12.9c0-5.7,0.9-10,2.7-12.9c1.8-2.9,4.3-4.3,7.6-4.3c1.6,0,2.8,0.2,3.8,0.7c1,0.5,1.7,1,2.3,1.5l-1.4,3.9
				c-0.3-0.3-0.8-0.6-1.5-0.9c-0.6-0.3-1.4-0.5-2.2-0.5c-1.7,0-3.1,1-4,3.1c-0.9,2.1-1.4,5.2-1.4,9.4c0,4.2,0.5,7.3,1.4,9.3
				c1,2,2.3,3,3.9,3c0.8,0,1.6-0.1,2.2-0.4c0.6-0.3,1.1-0.6,1.5-1L709.1,500z M706.6,507.4c0,1.4-0.8,2.4-2.4,3.1
				c-1.6,0.7-3.7,1.1-6.2,1.1c-0.5,0-1,0-1.5-0.1c-0.5,0-1.1-0.1-1.6-0.2l1.1-2.2c2,0.2,3.6,0.1,4.8-0.2c1.1-0.4,1.7-0.8,1.7-1.4
				c0-0.5-0.4-0.9-1.1-1.1c-0.8-0.2-2.1-0.3-3.9-0.2l1.1-2.2c0.3,0,0.6-0.1,1-0.1c0.3,0,0.6,0,0.9,0c2.2,0,3.7,0.3,4.7,0.8
				C706.1,505.4,706.6,506.2,706.6,507.4z"/>
			<path class="st0" d="M731.8,499.9c-1,0.7-2.2,1.2-3.7,1.6c-1.5,0.4-3.2,0.7-5.2,0.7c-1.7,0-3.2-0.3-4.5-0.8
				c-1.3-0.6-2.3-1.3-3.1-2.3c-0.8-0.9-1.4-2.1-1.8-3.3c-0.4-1.3-0.6-2.6-0.6-4c0-2,0.4-3.8,1.1-5.3c0.7-1.5,1.7-2.7,2.9-3.7
				c1.2-1,2.6-1.8,4.2-2.3c1.6-0.6,3.3-1,5.2-1.2v-1.7c0-3.4-1.5-5.1-4.6-5.1c-1.3,0-2.5,0.2-3.6,0.5c-1.1,0.4-2,0.7-2.7,1.1
				l-1.3-4.1c0.8-0.5,1.9-1,3.4-1.5c1.5-0.5,3.1-0.7,5-0.7c3,0,5.2,0.8,6.8,2.5c1.6,1.7,2.4,4.2,2.4,7.6V499.9z M726.2,483
				c-2.4,0.4-4.3,1.2-5.7,2.4c-1.4,1.2-2.1,3.2-2.1,5.9c0,1.8,0.4,3.3,1.2,4.6c0.8,1.3,2,1.9,3.6,1.9c0.6,0,1.2-0.1,1.7-0.2
				c0.5-0.1,1-0.3,1.3-0.5V483z"/>
		</g>
	</g>
	<g>
		<path class="st0" d="M363.3,326.3v80.5c0,10,0.9,15.5,2.8,16.5c1.4,0.8,2.7,0.8,3.9,0c1.5-1,2.2-6.3,2.2-15.9v-81.1h25.7v80.6
			c0,7-0.5,12.4-1.5,16.4c-2,7.2-5.7,12.4-11.1,15.4c-4.3,2.3-10,3.5-17.2,3.5c-7.5,0-13.5-1.3-18-3.9c-5.8-3.4-9.4-8.3-11-14.6
			c-0.3-1.4-0.6-3.5-0.7-6.3c-0.1-2.8-0.2-6.5-0.2-10.9v-80.2H363.3z"/>
		<path class="st0" d="M461.1,326.3v19.1h-15.4v96.5h-24.9v-96.6h-15.5v-19H461.1z"/>
		<path class="st0" d="M498.8,325.6c11.8,0,20.2,2.2,25.3,6.6c4.2,3.7,6.9,8.4,8,14c0.7,3.2,1,8.1,1,14.6v46.4
			c0,7.2-0.5,12.5-1.4,16.1c-1.8,7-5.6,12.1-11.5,15.4c-4.3,2.3-10.2,3.5-17.7,3.5c-8.8,0-15.8-1.5-21.2-4.5
			c-5.6-3.2-9.2-7.8-10.9-14c-0.9-3.4-1.4-8.6-1.4-15.8v-46.1c0-7,0.5-12.5,1.5-16.5c1.6-6.9,5.2-12.1,10.6-15.5
			c2.8-1.8,6.5-3.1,11-3.7C494.1,325.8,496.3,325.6,498.8,325.6z M494.8,407.2c0,9.6,1.2,15,3.5,16.4c1.7,1.1,3.4,1.2,5.2,0.3
			c2.6-1.5,3.9-7.1,3.9-16.7v-45.3c0-9.7-1.1-15.3-3.4-16.8c-1.6-1.1-3.3-1.2-5-0.3c-2.8,1.6-4.1,7-4.1,16.4V407.2z"/>
		<path class="st0" d="M706.3,364.1c0-12.1-1-18.6-3-19.5c-1.6-1.1-3.4-1-5.3,0.3c-1.9,1.1-4.6,5.9-4.6,14.5v49.9
			c0,9,2.9,14.2,5.2,15.5c1.3,0.8,2.8,0.6,4.4-0.4c2.2-1.3,3.2-6.9,3.2-16.9v-10.3H701v-18.5h30.7v25.2c0,8.2-0.3,13.9-1,17.1
			c-1.7,7.9-5.7,13.7-11.9,17.2c-5,2.8-11.1,4.1-18.3,4.1c-7.2,0-13.4-1.4-18.3-4.1c-5.9-3.4-9.6-8.2-11.2-14.5
			c-0.8-3.1-1.2-8.5-1.2-16.1v-46.6c0-15.6,4.5-25.9,13.6-31c5-2.8,11.2-4.1,18.7-4.1c7.1,0,12.9,1.4,17.2,4.1
			c6,4,9.9,9.5,11.5,16.5c0.7,3.2,1,9.1,1,17.8H706.3z"/>
		<path class="st0" d="M292.9,432.9h13.2v9h24.7l-21.8-115.6h-22.6l-18.1,115.6h24.7V432.9z M299,349.7l6.8,64.4h-13L299,349.7z"/>
		<polygon class="st0" points="659.7,424.2 632.4,424.2 632.4,393 659.7,393 659.7,374.2 633,374.2 633,345.3 659.7,345.3 
			659.7,326.3 609,326.3 609,441.9 659.7,441.9 		"/>
		<path class="st0" d="M596.4,395.2c-2.9-4.9-8-10.9-15.2-18.1l-4.5-4.4c-8-7.8-11.6-15.3-10.9-22.5c0.4-3.1,1.4-5.1,3-5.9
			c1.4-0.8,2.7-0.8,3.9,0c1.4,0.9,2.2,3.4,2.5,7.5v7.2h25.2c0-12.7-3-21.6-8.9-26.7c-5.1-4.5-12.7-6.7-22.7-6.7
			c-3.6,0-6.6,0.4-9,1.2c-9.3,2.8-15.2,8.8-17.6,18c-1.3,4.9-1.9,9.2-1.9,12.8c0,5.2,1.3,10.2,4,15c2.7,4.7,7.4,10.6,14.1,17.6
			l6.6,6.8c7,7.4,10.5,13.5,10.5,18.2c0,4-0.9,6.4-2.8,7.2c-1.5,0.7-2.7,0.4-3.7-0.8c-1.4-1.1-2.2-3-2.5-5.9h0v-0.1
			c0-0.4-0.1-0.8-0.1-1.3h0V414c0-0.1,0-0.2,0-0.4c0-0.1,0-0.3,0-0.4v-6h-25.2c0,13.5,3.5,23.1,10.6,28.8c5.3,4.1,11.5,6.2,18.7,6.2
			c4.4,0,8.5-0.7,12.4-2.1c9.4-3.4,15.1-9.8,17.1-19.4c0.8-3.7,1.2-7.1,1.2-10.1C600.8,405.1,599.3,400,596.4,395.2z"/>
	</g>
</g>
</svg>
