<?xml version="1.0" encoding="utf-8"?>
<!-- Generator: Adobe Illustrator 24.0.0, SVG Export Plug-In . SVG Version: 6.00 Build 0)  -->
<svg version="1.1" id="Layer_1" xmlns="http://www.w3.org/2000/svg" xmlns:xlink="http://www.w3.org/1999/xlink" x="0px" y="0px"
	 viewBox="0 0 247 40" style="enable-background:new 0 0 247 40;" xml:space="preserve">
<style type="text/css">
	.st0{fill:#1D052D;}
	.st1{fill:#F29100;}
	.st2{fill:#F9F9F9;}
</style>
<g>
	<path class="st0" d="M32.1-0.1H9.5c-4.8,0-8.7,3.9-8.7,8.7v22.6c0,4.8,3.9,8.7,8.7,8.7h22.6c4.8,0,8.7-3.9,8.7-8.7V8.7
		C40.8,3.8,36.9-0.1,32.1-0.1z"/>
	<path class="st1" d="M34.2,10.1c0,0.2-0.1,0.4-0.2,0.5l-2.1,2.2c-0.1,0.1-0.2,0.3-0.2,0.5v14.9c0,0.4,0.3,0.8,0.8,0.8h1.1
		c0.4,0,0.8,0.3,0.8,0.8v2.8c0,0.4-0.3,0.8-0.8,0.8h-1.8H29h-2c-0.4,0-0.8-0.3-0.8-0.8V20.4c0-0.7-0.8-1-1.3-0.5l-4.1,4.2l-4.1-4.2
		c-0.5-0.5-1.3-0.1-1.3,0.5v12.2c0,0.4-0.3,0.8-0.8,0.8h-2H10H8.2c-0.4,0-0.8-0.3-0.8-0.8v-2.8c0-0.4,0.3-0.8,0.8-0.8h1.1
		c0.4,0,0.8-0.3,0.8-0.8V13.4c0-0.2-0.1-0.4-0.2-0.5l-2.1-2.1c-0.1-0.1-0.2-0.3-0.2-0.5v-3c0-0.4,0.3-0.8,0.8-0.8H11
		c0.2,0,0.4,0.1,0.5,0.2l8.8,9c0.1,0.1,0.3,0.2,0.5,0.2s0.4-0.1,0.5-0.2l8.8-9c0.1-0.1,0.3-0.2,0.5-0.2h2.8c0.4,0,0.8,0.3,0.8,0.8
		L34.2,10.1L34.2,10.1z"/>
	<g>
		<path class="st2" d="M55.6,32.1h-3.1V7.2h3.9l4.2,15.4l4.2-15.4h3.9v24.9h-3.1V13.9l-3.4,12.8H59l-3.4-12.8V32.1L55.6,32.1z"/>
		<path class="st2" d="M80.7,12.7h3.6v19.4h-3.6v-1.5c-0.3,1-1.2,1.5-2.5,1.5h-1.4c-2.4,0-3.6-1.2-3.6-3.5V16.2
			c0-2.4,1.2-3.5,3.6-3.5h1.4c1.3,0,2.1,0.5,2.5,1.6V12.7z M78,29.2h1.4c0.5,0,0.8-0.1,1-0.3c0.2-0.2,0.3-0.6,0.3-1.1V17
			c0-0.5-0.1-0.9-0.3-1.1c-0.2-0.2-0.5-0.3-1-0.3H78c-0.5,0-0.8,0.1-0.9,0.2c-0.2,0.1-0.2,0.5-0.2,0.9V28c0,0.5,0.1,0.8,0.2,0.9
			C77.2,29.1,77.5,29.2,78,29.2z"/>
		<path class="st2" d="M95.2,12.7H96v3.1h-1.4c-1.7,0-2.5,1-2.5,2.9v13.4h-3.6V12.7h3.6v2.4c0.2-0.7,0.6-1.3,1.1-1.7
			C93.8,12.9,94.4,12.7,95.2,12.7z"/>
		<path class="st2" d="M109.8,18.8h-3.5v-2.1c0-0.5-0.1-0.8-0.2-0.9c-0.2-0.1-0.5-0.2-0.9-0.2h-1.7c-0.5,0-0.8,0.1-0.9,0.2
			c-0.2,0.1-0.2,0.5-0.2,0.9V28c0,0.5,0.1,0.8,0.2,0.9c0.2,0.1,0.5,0.2,0.9,0.2h1.7c0.5,0,0.8-0.1,0.9-0.2c0.2-0.1,0.2-0.5,0.2-0.9
			v-2h3.5v2.6c0,2.3-1.2,3.5-3.7,3.5h-3.8c-2.5,0-3.7-1.2-3.7-3.5V16.2c0-2.4,1.2-3.5,3.7-3.5h3.8c2.5,0,3.7,1.2,3.7,3.5V18.8z"/>
		<path class="st2" d="M117.1,12.7h3.9c2.5,0,3.7,1.2,3.7,3.5v7.3h-7.8v4.6c0,0.5,0.1,0.8,0.2,0.9c0.2,0.2,0.5,0.2,0.9,0.2h1.8
			c0.5,0,0.8-0.1,0.9-0.2c0.2-0.2,0.2-0.5,0.2-1v-1.6h3.5v2.1c0,2.3-1.2,3.5-3.7,3.5h-3.8c-2.5,0-3.7-1.2-3.7-3.5V16.2
			C113.4,13.9,114.7,12.7,117.1,12.7z M116.9,20.9h4.3v-4.2c0-0.5-0.1-0.8-0.2-0.9c-0.2-0.2-0.5-0.2-0.9-0.2h-1.9
			c-0.5,0-0.8,0.1-0.9,0.2c-0.2,0.2-0.2,0.5-0.2,0.9C116.9,16.7,116.9,20.9,116.9,20.9z"/>
		<path class="st2" d="M132.2,32.1h-3.6V5.5h3.6V32.1z"/>
		<path class="st2" d="M140,12.7h4.2c2.5,0,3.7,1.2,3.7,3.5v12.4c0,2.3-1.2,3.5-3.7,3.5H140c-2.4,0-3.7-1.2-3.7-3.5V16.2
			C136.3,13.9,137.5,12.7,140,12.7z M144.4,28.1V16.7c0-0.5-0.1-0.8-0.2-1s-0.5-0.2-1-0.2H141c-0.5,0-0.8,0.1-0.9,0.2
			c-0.1,0.2-0.2,0.5-0.2,1v11.4c0,0.5,0.1,0.8,0.2,1s0.5,0.2,0.9,0.2h2.2c0.5,0,0.8-0.1,1-0.2S144.4,28.6,144.4,28.1z"/>
		<path class="st2" d="M162,32.1h-3.1V7.2h3.9l4.2,15.4l4.2-15.4h3.9v24.9H172V13.9l-3.4,12.8h-3.3L162,13.9V32.1L162,32.1z"/>
		<path class="st2" d="M183.3,12.7h4.2c2.5,0,3.7,1.2,3.7,3.5v12.4c0,2.3-1.2,3.5-3.7,3.5h-4.2c-2.4,0-3.7-1.2-3.7-3.5V16.2
			C179.6,13.9,180.9,12.7,183.3,12.7z M187.7,28.1V16.7c0-0.5-0.1-0.8-0.2-1s-0.5-0.2-0.9-0.2h-2.2c-0.5,0-0.8,0.1-0.9,0.2
			c-0.1,0.2-0.2,0.5-0.2,1v11.4c0,0.5,0.1,0.8,0.2,1s0.5,0.2,0.9,0.2h2.2c0.5,0,0.8-0.1,0.9-0.2S187.7,28.6,187.7,28.1z"/>
		<path class="st2" d="M202.1,12.7h0.8v3.1h-1.4c-1.7,0-2.5,1-2.5,2.9v13.4h-3.6V12.7h3.6v2.4c0.2-0.7,0.6-1.3,1.1-1.7
			C200.6,12.9,201.3,12.7,202.1,12.7z"/>
		<path class="st2" d="M212.8,12.7h3.6v19.4h-3.6v-1.5c-0.3,1-1.2,1.5-2.5,1.5h-1.4c-2.4,0-3.6-1.2-3.6-3.5V16.2
			c0-2.4,1.2-3.5,3.6-3.5h1.4c1.3,0,2.1,0.5,2.5,1.6V12.7z M210.1,29.2h1.4c0.5,0,0.8-0.1,1-0.3c0.2-0.2,0.3-0.6,0.3-1.1V17
			c0-0.5-0.1-0.9-0.3-1.1c-0.2-0.2-0.5-0.3-1-0.3h-1.4c-0.5,0-0.8,0.1-1,0.2s-0.2,0.5-0.2,0.9V28c0,0.5,0.1,0.8,0.2,0.9
			C209.3,29.1,209.6,29.2,210.1,29.2z"/>
		<path class="st2" d="M224.3,12.7h3.9c2.5,0,3.7,1.2,3.7,3.5v7.3h-7.8v4.6c0,0.5,0.1,0.8,0.2,0.9c0.2,0.2,0.5,0.2,0.9,0.2h1.8
			c0.5,0,0.8-0.1,0.9-0.2s0.2-0.5,0.2-1v-1.6h3.5v2.1c0,2.3-1.2,3.5-3.7,3.5h-3.8c-2.5,0-3.7-1.2-3.7-3.5V16.2
			C220.6,13.9,221.9,12.7,224.3,12.7z M224.1,20.9h4.3v-4.2c0-0.5-0.1-0.8-0.2-0.9c-0.1-0.2-0.5-0.2-0.9-0.2h-2
			c-0.5,0-0.8,0.1-0.9,0.2s-0.2,0.5-0.2,0.9v4.2H224.1z"/>
		<path class="st2" d="M242.3,28.2V25c0-0.5-0.1-0.8-0.2-0.9c-0.2-0.1-0.5-0.2-0.9-0.2h-2c-2.5,0-3.7-1.2-3.7-3.5v-4.1
			c0-2.4,1.2-3.5,3.7-3.5h2.9c2.5,0,3.7,1.2,3.7,3.5v1.9h-3.5v-1.5c0-0.5-0.1-0.8-0.2-0.9c-0.2-0.1-0.5-0.2-1-0.2h-0.9
			c-0.5,0-0.8,0.1-1,0.2s-0.2,0.5-0.2,0.9V20c0,0.5,0.1,0.8,0.2,0.9c0.2,0.1,0.5,0.2,1,0.2h2.1c2.4,0,3.7,1.2,3.7,3.5v4
			c0,2.3-1.2,3.5-3.7,3.5h-2.9c-2.5,0-3.7-1.2-3.7-3.5v-1.9h3.5v1.5c0,0.5,0.1,0.8,0.2,0.9c0.2,0.1,0.5,0.2,1,0.2h0.9
			c0.5,0,0.8-0.1,1-0.2C242.2,29,242.3,28.7,242.3,28.2z"/>
	</g>
</g>
</svg>
