<?xml version="1.0" encoding="utf-8"?>
<!-- Generator: Adobe Illustrator 24.0.0, SVG Export Plug-In . SVG Version: 6.00 Build 0)  -->
<svg version="1.1" id="Layer_1" xmlns="http://www.w3.org/2000/svg" xmlns:xlink="http://www.w3.org/1999/xlink" x="0px" y="0px"
	 viewBox="0 0 1000 569" style="enable-background:new 0 0 1000 569;" xml:space="preserve">
<style type="text/css">
	.st0{fill:none;}
	.st1{fill:#7E1210;}
	.st2{fill:#1D1D1B;}
	.st3{font-family:'AGaramondPro-Regular';}
	.st4{font-size:52.4468px;}
</style>
<g>
	<path class="st0" d="M515.7,108.7c-9.7-4.4-18.4-7-26.5-7.8c-1.7-0.2-3.5-0.3-5.4-0.3c-7.8,0-15.1,1.7-21.1,4.9l-0.8,0.3l-0.2,0.2
		c-0.2,1.1-0.3,2.2-0.5,2.9c0.2,1.3,0.6,3.2,1.3,4.9c0.5,0.6,1,1.1,1.7,2.4c0.2,0.2,0.2,0.5,0.3,1c0.5,0.5,1.1,0.6,1.6,0.5
		c6.5-2.1,14-3.3,21.7-3.3c9.2,0,18.4,1.6,26.7,4.6c0.2,0,0.2,0,0.3,0c0.6,0,1.3-0.3,1.7-0.8c0.5-1.3,1-2.5,1.6-3.8
		c0.3-1,0.8-2.5,0.8-3.5l-1.4-1C517.3,109.5,516.5,109.2,515.7,108.7z"/>
	<path class="st0" d="M520,90.1c-5.6-2.7-19-9.7-29.2-11.6c-9.5-1.7-23.2-1.1-30.5,5.2c-0.6,0.5-1.3,1.1-1.6,1.9
		c-0.5,1.1,1.7,7.9,1.9,9c0.5,2.2,1,4.4,1.4,6.8c8.3-4.4,18.1-5.9,27.5-4.9c9.4,1,18.4,4,27,7.9c1,0.5,2.1,1,2.7,1.9
		c0.2-0.2,0.2-0.3,0.3-0.5c1.1-3,2.4-6.2,2.2-9.4c0-1.9-0.2-4-0.8-5.7C520.8,90.6,520.5,90.3,520,90.1z"/>
	<g>
		<path class="st1" d="M523.3,260.8h16.3c-3-7.8-7.1-13.5-11.7-23.3C525.6,245.1,523,253.2,523.3,260.8z"/>
		<path class="st1" d="M579.8,63.6H414.9c-8.9,0-16.2,7.3-16.2,16.2v164.9c0,8.9,7.3,16.2,16.2,16.2h29c0-2.2-0.3-4.4-0.5-6.7
			c-0.6-6.3-1.3-12.9-1.9-19.2c0-0.5,0-1.1,0-1.6l0.6,0.8c8.4,9,13.7,17.8,15.7,26.7l0,0h4.4c0-0.2,0-0.3-0.2-0.5
			c-2.5-10.5-8.9-19.7-16.2-27.5c-5.1-5.6-11.1-11.4-11-19c0.2-7.1,6.2-12.9,12.4-16.7c1.3-0.8,19-13.7,24.1-17.3
			c1.9-1.3,3.7-2.7,5.1-4.4c3.3-4.1,3.8-9.7,3.3-14.9c-0.5-5.2-1.7-10.3-1.7-15.6c0-0.6,0-1.4-0.5-1.9c-0.3-0.3-0.8-0.3-1.1-0.5
			c-1.6-0.5-2.5-1.9-3.3-3.3c-3.2-5.2-5.7-11-7.6-16.8c15.1-5.4,33.7-4.6,48.7,0.8c1,6.2-4.8,10.8-6.2,16.8
			c-1.1,4.8-0.8,9.8-0.3,14.8c0.5,4.6,1.1,9.4,3.2,13.5c3.2,6.2,9.2,10.2,14.6,14.4c7.5,5.7,14.1,12.4,20.2,19.7
			c0.8,1,3.7,6.8,6,10.6c8.9,14.8,11.3,30.6,12.7,47.6H580c8.9,0,16.2-7.3,16.2-16.2V79.8C596,70.8,588.7,63.6,579.8,63.6z
			 M518.4,114.4c-0.5,1.3-1.1,2.5-1.6,3.8c-0.5,0.5-1,1-1.7,0.8c-0.2,0-0.2,0-0.3,0c-8.3-3-17.5-4.6-26.7-4.6
			c-7.6,0-15.1,1.1-21.7,3.3c-0.6,0.2-1.1-0.2-1.6-0.5c0-0.3-0.2-0.6-0.3-1c-0.8-1.3-1.3-1.7-1.7-2.4c-0.6-1.7-1.1-3.7-1.3-4.9
			c0.2-0.6,0.3-1.7,0.5-2.9l0.2-0.2l0.8-0.3c6-3.3,13.3-4.9,21.1-4.9c1.7,0,3.5,0.2,5.4,0.3c8.1,0.8,16.7,3.3,26.5,7.8
			c1,0.5,1.6,0.8,2.1,1.3l1.4,1C519.2,112,518.7,113.5,518.4,114.4z M519.5,106c-0.2,0.2-0.2,0.3-0.3,0.5c-0.6-1-1.7-1.4-2.7-1.9
			c-8.6-4-17.6-7-27-7.9s-19.2,0.5-27.5,4.9c-0.5-2.2-1-4.4-1.4-6.8c-0.3-1.1-2.4-7.9-1.9-9c0.3-0.8,1-1.4,1.6-1.9
			c7.3-6.5,21-7.1,30.5-5.2c10.2,1.9,23.7,8.7,29.2,11.6c0.5,0.2,0.8,0.5,1.1,1c0.6,1.7,0.8,3.8,0.8,5.7
			C521.9,99.8,520.6,103,519.5,106z"/>
	</g>
	<g>
		<g>
			<path class="st2" d="M267,358.1c0,12.4,0,22.1,0.6,27.5c0.3,3.8,1.1,6.5,5.1,7.1c1.7,0.3,4.6,0.5,6.5,0.5c1.7,0,2.2,0.3,2.2,1
				c0,1-1,1.3-2.9,1.3c-8.1,0-16.2-0.3-19.5-0.3c-3.3,0-11.4,0.3-16.3,0.3c-1.7,0-2.7-0.3-2.7-1.3c0-0.6,0.5-1,1.9-1
				c1.9,0,3.5-0.3,4.6-0.5c2.5-0.5,3.2-3.3,3.8-7.1c0.6-5.4,0.6-15.1,0.6-27.5v-22.5c0-19.5,0-23.2-0.3-27.3
				c-0.3-4.4-1.3-6.5-5.6-7.3c-1-0.3-3.2-0.3-5.1-0.3c-1.3,0-2.2-0.3-2.2-1c0-1,1-1.3,3-1.3c3.3,0,7.1,0.2,10.5,0.2
				c3.3,0.2,6.3,0.3,8.1,0.3c4.9,0,31,0,34-0.2c2.4-0.2,4-0.2,5.2-0.5c0.8-0.3,1.4-0.8,2.1-0.8c0.5,0,1,0.5,1,1.1c0,1-0.6,2.4-1,5.7
				c-0.2,1.3-0.3,8.9-0.6,10.5c-0.2,1-0.3,1.7-1.3,1.7c-1,0-1.1-0.6-1.3-2.1c0-1,0-3-0.8-4.9c-1-1.7-3.7-3.8-8.6-3.8l-19.8-0.3
				c-0.8,0-1.1,0.3-1.1,1.7v32.2c0,0.8,0.2,1.1,1,1.1l16.5-0.2c2.2,0,4,0,5.7-0.2c2.4-0.2,4.3-0.6,5.6-2.4c0.6-0.8,1-1.3,1.7-1.3
				c0.5,0,0.8,0.3,0.8,1.1c0,0.8-0.6,4-1,7.9c-0.3,2.5-0.5,8.6-0.5,9.4c0,1.1,0,2.4-1.3,2.4c-0.8,0-1-1-1-1.7c0-0.8-0.3-2.4-0.8-4
				c-0.6-1.7-2.5-4.1-6.5-4.6c-3.2-0.3-16.8-0.3-19-0.3c-0.6,0-1,0.3-1,1.1v10.3H267z"/>
			<path class="st2" d="M325.7,344.4c0-16.7,0-19.7-0.2-23.2c-0.3-3.8-1.3-4.9-4.9-5.9c-1-0.3-2.9-0.3-4.4-0.3
				c-1.1,0-1.9-0.3-1.9-1.1c0-0.8,1-1,2.5-1c5.9,0,13.2,0.3,15.4,0.3c3.8,0,14.1-0.3,17.6-0.3c7.1,0,15.4,0.6,21.4,4.6
				c3.2,2.2,7.9,7.8,7.9,15.1c0,8.1-4.6,15.4-15.7,24.1c10,12.4,18.1,22.2,24.9,29c6.3,6.3,10.3,6.8,12.1,7.1
				c1.1,0.3,1.7,0.3,2.7,0.3s1.4,0.6,1.4,1.1c0,1-0.8,1.1-2.2,1.1h-10.8c-6.3,0-9.4-0.6-12.4-2.2c-4.9-2.4-9.2-7.6-15.4-16
				c-4.4-5.9-9.2-13.3-10.6-14.9c-0.6-0.6-1.3-0.8-2.1-0.8l-10.2-0.3c-0.5,0-1,0.3-1,1v1.6c0,10.2,0.2,18.7,0.6,23.3
				c0.3,3.2,1,5.2,4.4,5.7c1.7,0.3,4.1,0.3,5.6,0.3c1,0,1.4,0.6,1.4,1.1c0,0.8-1,1.1-2.4,1.1c-6.5,0-16-0.3-17.6-0.3
				c-2.2,0-9.4,0.3-14,0.3c-1.4,0-2.2-0.3-2.2-1.1c0-0.5,0.3-1.1,1.7-1.1c1.7,0,3-0.2,4-0.3c2.4-0.5,3-2.5,3.3-5.7
				c0.5-4.6,0.5-13.3,0.5-23.3v-19.4H325.7z M340.2,352.8c0,1.1,0.3,1.6,1,1.9c2.4,0.8,5.7,1,8.6,1c4.4,0,6-0.3,7.9-1.7
				c3.5-2.4,7.3-7.1,7.3-16.2c0-15.4-10.5-19.4-17.3-19.4c-2.9,0-5.6,0.2-6.7,0.3c-0.8,0.3-1,0.6-1,1.6v32.5H340.2z"/>
			<path class="st2" d="M418.9,367.8c-0.6,0-0.8,0.2-1,0.8l-6,14.8c-1.1,2.7-1.7,5.4-1.7,6.7c0,1.9,1,3,4.4,3h1.7
				c1.4,0,1.7,0.5,1.7,1.1c0,1-0.6,1.1-1.7,1.1c-3.8,0-9-0.3-12.5-0.3c-1.1,0-7.1,0.3-13.2,0.3c-1.4,0-2.1-0.3-2.1-1.1
				c0-0.6,0.3-1.1,1.3-1.1c1,0,2.4-0.2,3.3-0.2c5.1-0.8,7.1-4.1,9.4-9.7l29.7-68.4c1.3-3,2.2-4.4,3.3-4.4c1.7,0,2.2,1,3.3,3.5
				c2.7,6,21.6,50.3,28.9,67c4.4,9.8,7.6,11.3,9.7,11.7c1.7,0.3,3,0.3,4.3,0.3c1,0,1.6,0.3,1.6,1.1c0,1-0.6,1.1-4.9,1.1
				c-4,0-12.2,0-21.7-0.3c-2.1-0.2-3.3-0.2-3.3-1c0-0.6,0.3-1,1.4-1.1c0.8-0.2,1.6-1.1,1-2.4l-8.7-22.1c-0.3-0.6-0.6-0.8-1.1-0.8
				h-27V367.8z M443.2,361.7c0.5,0,0.6-0.3,0.5-0.6L433,333.6c-0.2-0.3-0.3-1-0.5-1c-0.3,0-0.5,0.6-0.6,1l-11,27.3
				c-0.3,0.5,0,0.8,0.3,0.8H443.2z"/>
			<path class="st2" d="M502.5,380.6c0.3,8.6,1.7,11.1,3.8,11.9c1.9,0.6,4.1,0.8,5.9,0.8c1.3,0,1.9,0.5,1.9,1.1c0,1-1,1.1-2.5,1.1
				c-7.3,0-12.5-0.3-14.6-0.3c-1,0-6.5,0.3-12.2,0.3c-1.6,0-2.5-0.2-2.5-1.1c0-0.6,0.8-1.1,1.7-1.1c1.6,0,3.7-0.2,5.1-0.5
				c3-0.8,3.3-3.8,3.5-13.3l1-64.9c0-2.2,0.8-3.8,1.9-3.8c1.4,0,3,1.7,4.9,3.7c1.4,1.4,18.4,18.7,34.9,34.9
				c7.8,7.6,22.9,23,24.4,24.6h0.5l-1.1-48.7c-0.2-6.7-1.1-8.6-3.8-9.7c-1.7-0.6-4.4-0.6-5.9-0.6c-1.4,0-1.7-0.5-1.7-1.1
				c0-1,1.1-1,2.9-1c5.9,0,11.9,0.3,14.4,0.3c1.3,0,5.6-0.3,11.1-0.3c1.6,0,2.5,0.2,2.5,1c0,0.6-0.6,1.1-1.9,1.1
				c-1.1,0-2.1,0-3.5,0.3c-3,1-4,2.9-4.1,9l-1.3,69.1c0,2.4-1,3.5-1.7,3.5c-1.9,0-3.5-1.1-4.6-2.4c-7.1-6.5-21.3-20.2-33-31.6
				c-12.4-11.9-24.3-25.1-26.5-27h-0.3L502.5,380.6z"/>
			<path class="st2" d="M666.5,391.3c-0.5,1.9-1,2.4-3,3.2c-4.4,1.7-13.2,2.4-20.5,2.4h-2.7l-9.7,7.1c9.4,1,15.2,4.4,15.2,10.3
				c0,5.1-5.2,13.8-23.7,13.8c-1.1,0-2.2-0.3-2.2-1.3c0-1.1,1.6-1.7,3.3-1.7c4.3,0,10.8-3.2,10.8-8.6c0-3.5-1.6-8.1-10.2-9.4
				c-1.7-0.3-2.9-0.6-2.9-1c0-0.3,0.3-0.6,2.1-1.9l10.3-7.8c-11.3-1.1-21.3-4.4-29.4-11.3c-11.3-9.4-14.1-21.7-14.1-32.4
				c0-7.5,2.4-20.3,13.3-30c8.3-7.1,19-11.6,35.9-11.6c7.1,0,11.3,0.5,16.5,1.1c4.3,0.6,7.9,1.4,11.3,1.7c1.3,0.2,1.7,0.6,1.7,1.3
				c0,1-0.3,2.2-0.5,6c-0.3,3.7-0.3,9.7-0.3,11.9c-0.2,1.6-0.5,2.7-1.6,2.7c-1,0-1.1-1-1.1-2.4c-0.2-3.5-1.6-7.3-4.4-10.2
				c-3.8-3.8-11.4-6.5-21.9-6.5c-9.8,0-16.2,1.7-21.4,6.2c-8.4,7.1-10.5,17.8-10.5,28.4c0,26,20.2,38.4,35.2,38.4
				c10,0,15.6-0.8,20.2-5.7c1.9-2.2,3.5-5.2,3.8-7.3c0.3-1.7,0.5-2.2,1.4-2.2c0.8,0,1.3,1,1.3,1.9
				C668.9,377.9,667.6,387.4,666.5,391.3z"/>
			<path class="st2" d="M697.9,367.8c-0.6,0-0.8,0.2-1,0.8l-6,14.8c-1.1,2.7-1.7,5.4-1.7,6.7c0,1.9,1,3,4.4,3h1.7
				c1.4,0,1.7,0.5,1.7,1.1c0,1-0.6,1.1-1.7,1.1c-3.8,0-9-0.3-12.5-0.3c-1.1,0-7.1,0.3-13.2,0.3c-1.4,0-2.1-0.3-2.1-1.1
				c0-0.6,0.3-1.1,1.3-1.1s2.4-0.2,3.3-0.2c5.1-0.8,7.1-4.1,9.4-9.7l29.7-68.4c1.3-3,2.2-4.4,3.3-4.4c1.7,0,2.2,1,3.3,3.5
				c2.7,6,21.6,50.3,28.9,67c4.4,9.8,7.6,11.3,9.7,11.7c1.7,0.3,3,0.3,4.3,0.3c1,0,1.6,0.3,1.6,1.1c0,1-0.6,1.1-4.9,1.1
				c-4,0-12.2,0-21.7-0.3c-2.1-0.2-3.3-0.2-3.3-1c0-0.6,0.3-1,1.4-1.1c0.8-0.2,1.6-1.1,1-2.4l-8.7-22.1c-0.3-0.6-0.6-0.8-1.1-0.8
				h-27V367.8z M722.2,361.7c0.5,0,0.6-0.3,0.5-0.6l-10.6-27.5c-0.2-0.3-0.3-1-0.5-1c-0.3,0-0.5,0.6-0.6,1l-11,27.3
				c-0.3,0.5,0,0.8,0.3,0.8H722.2z"/>
		</g>
		<text transform="matrix(1 0 0 1 275.5479 491.9355)" class="st2 st3 st4">Advogados Associados</text>
		<g>
			<path class="st1" d="M225.4,444.4c73,0,145.9,0,218.9,0c100.8,0,201.8,0,302.6,0c9.2,0,18.4,0,27.8,0c4.3,0,4.3-6.7,0-6.7
				c-73,0-145.9,0-218.9,0c-100.8,0-201.8,0-302.6,0c-9.2,0-18.4,0-27.8,0C221.1,437.8,221.1,444.4,225.4,444.4L225.4,444.4z"/>
		</g>
	</g>
</g>
</svg>
