<?xml version="1.0" encoding="utf-8"?>
<!-- Generator: Adobe Illustrator 24.0.0, SVG Export Plug-In . SVG Version: 6.00 Build 0)  -->
<svg version="1.1" id="Layer_1" xmlns="http://www.w3.org/2000/svg" xmlns:xlink="http://www.w3.org/1999/xlink" x="0px" y="0px"
	 viewBox="0 0 1000 569" style="enable-background:new 0 0 1000 569;" xml:space="preserve">
<style type="text/css">
	.st0{fill:#E84E24;}
	.st1{fill:#FFFFFF;}
	.st2{fill:#020202;}
	.st3{fill:#868686;}
	.st4{fill:none;}
	.st5{fill:#0F0F0F;}
	.st6{enable-background:new    ;}
</style>
<g>
	<g>
		<path class="st0" d="M412.1,385.1c-0.9-3.3-2.4-6.2-4.4-8.6c-2-2.3-4.4-4.4-7.2-5.9c-2.6-1.5-5.5-2.7-8.5-3.4
			c-2.8-0.8-5.9-1.3-9-1.5c-2.8-0.2-5.7-0.3-8.4-0.3h-0.2c-4.7,0.2-9.8,0.7-15.1,1.5c-5.4,0.8-10.3,1.9-14.7,3.2l-2.6,0.8l-0.8,2.5
			c-2.8,8-5.4,15.9-7.7,23.5c-2.4,7.6-4.7,15.2-6.9,22.6c-2.2,7.5-4.4,15.1-6.4,22.4c-2.1,7.5-4.2,15-6.3,22.7l-1.4,5.1l5.1,1.3
			c3.5,0.9,7.8,1.8,12.8,2.8c4.4,0.8,9.5,1.2,15.5,1.2c1.2,0,2.3,0,3.5-0.1c2.1,0,4.4-0.1,7-0.3c2.6-0.2,5.3-0.4,8-0.8
			c2.8-0.3,5.7-0.9,8.6-1.5c3-0.7,5.9-1.6,8.5-2.6c6.5-2.6,12-6.3,16.2-11c4.3-4.9,7-10.6,8.2-17.1c0.7-3.9,0.4-7.6-0.7-10.9
			c-1.1-3.2-2.8-5.9-5.2-8.2c-1.2-1.2-2.5-2.2-3.9-3.1c2.5-1.7,4.9-3.5,6.9-5.5c2.6-2.5,4.8-5.4,6.4-8.3c1.8-3.1,2.9-6.4,3.4-9.7
			C413.2,392,413,388.4,412.1,385.1z"/>
		<g>
			<path class="st1" d="M369.6,380.7c-6.1,0-11.1,1.4-11.1,3.3v11.8l0,0c0.3,2.1,5.1,3.8,11.1,3.8s10.8-1.7,11.1-3.8l0,0V384
				C380.7,382.1,375.7,380.7,369.6,380.7z"/>
			<path class="st1" d="M391.3,395.7c-0.7-3.5-2.8-6.8-7.3-9c0,0,0.9,6.3,0.8,8.5c-0.2,5.6-8.3,8.2-15.2,8.2l0,0l0,0
				c-7,0-15-2.6-15.2-8.2c-0.1-2.1,0.8-8.5,0.8-8.5c-4.4,2.2-6.6,5.4-7.3,9c-2.3,11.8,9.7,16.8,21.7,16.8
				C381.6,412.6,393.7,407.6,391.3,395.7z"/>
		</g>
		<g>
			<path class="st1" d="M358.6,425.7c-6.1,0-11.1,1.4-11.1,3.3v11.8l0,0c0.3,2.1,5.1,3.8,11.1,3.8s10.8-1.7,11.1-3.8l0,0V429
				C369.6,427.2,364.7,425.7,358.6,425.7z"/>
			<path class="st1" d="M380.3,440.8c-0.7-3.5-2.8-6.8-7.3-9c0,0,0.9,6.3,0.8,8.5c-0.2,5.6-8.3,8.2-15.2,8.2l0,0l0,0
				c-7,0-15-2.6-15.2-8.2c-0.1-2.1,0.8-8.5,0.8-8.5c-4.4,2.2-6.6,5.4-7.3,9c-2.3,11.8,9.7,16.8,21.7,16.8
				C370.5,457.6,382.6,452.6,380.3,440.8z"/>
		</g>
		<path class="st0" d="M592.6,385.1c-0.9-3.3-2.4-6.2-4.4-8.6c-2-2.3-4.4-4.4-7.2-5.9c-2.6-1.5-5.5-2.7-8.5-3.4
			c-2.8-0.8-5.9-1.3-9-1.5c-2.8-0.2-5.7-0.3-8.4-0.3h-0.2c-4.7,0.2-9.8,0.7-15.1,1.5c-5.4,0.8-10.3,1.9-14.7,3.2l-2.6,0.8l-0.8,2.5
			c-2.8,8-5.4,15.9-7.7,23.5c-2.4,7.6-4.7,15.2-6.9,22.6c-2.2,7.5-4.4,15.1-6.4,22.4c-2.1,7.5-4.2,15-6.3,22.7l-1.4,5.1l5.1,1.3
			c3.5,0.9,7.8,1.8,12.8,2.8c4.4,0.8,9.5,1.2,15.5,1.2c1.2,0,2.3,0,3.5-0.1c2.1,0,4.4-0.1,7-0.3c2.6-0.2,5.3-0.4,8-0.8
			c2.8-0.3,5.7-0.9,8.6-1.5c3-0.7,5.9-1.6,8.5-2.6c6.5-2.6,12-6.3,16.2-11c4.3-4.9,7-10.6,8.2-17.1c0.7-3.9,0.4-7.6-0.7-10.9
			c-1.1-3.2-2.8-5.9-5.2-8.2c-1.2-1.2-2.5-2.2-3.9-3.1c2.5-1.7,4.9-3.5,6.9-5.5c2.6-2.5,4.8-5.4,6.4-8.3c1.8-3.1,2.9-6.4,3.4-9.7
			C593.6,392,593.4,388.4,592.6,385.1z"/>
		<g>
			<path class="st1" d="M550,380.7c-6.1,0-11.1,1.4-11.1,3.3v11.8l0,0c0.3,2.1,5.1,3.8,11.1,3.8c5.9,0,10.8-1.7,11.1-3.8l0,0V384
				C561.1,382.1,556.2,380.7,550,380.7z"/>
			<path class="st1" d="M571.7,395.7c-0.7-3.5-2.8-6.8-7.3-9c0,0,0.9,6.3,0.8,8.5c-0.2,5.6-8.3,8.2-15.2,8.2l0,0l0,0
				c-7,0-15-2.6-15.2-8.2c-0.1-2.1,0.8-8.5,0.8-8.5c-4.4,2.2-6.6,5.4-7.3,9c-2.3,11.8,9.7,16.8,21.7,16.8S574.1,407.6,571.7,395.7z"
				/>
		</g>
		<g>
			<path class="st1" d="M539,425.7c-6.1,0-11.1,1.4-11.1,3.3v11.8l0,0c0.3,2.1,5.1,3.8,11.1,3.8s10.8-1.7,11.1-3.8l0,0V429
				C550,427.2,545.1,425.7,539,425.7z"/>
			<path class="st1" d="M560.7,440.8c-0.7-3.5-2.8-6.8-7.3-9c0,0,0.9,6.3,0.8,8.5c-0.2,5.6-8.3,8.2-15.2,8.2l0,0l0,0
				c-7,0-15-2.6-15.2-8.2c-0.1-2.1,0.8-8.5,0.8-8.5c-4.4,2.2-6.6,5.4-7.3,9c-2.3,11.8,9.7,16.8,21.7,16.8S563,452.6,560.7,440.8z"/>
		</g>
		<path class="st0" d="M485.7,357.6c-3.3,2.4-6.6,4.6-9.9,6.5c-7.6,4.4-17.3,9-26.6,9.4c-7.5,14.7-14.8,29.7-21.9,45
			c-6.4,13.7-19,39.9-26.8,56.7c2.4-1.8,5-3.2,7.7-4.4c5.4-2.4,11.5-4.1,17.5-4.6c1.4-0.5,2.8-0.8,3.9-0.7c1.5-2.4,2.8-4.9,4.1-7.5
			c1.3-2.4,2.4-4.9,3.7-7.3c4.5-0.3,8.6-0.6,12.4-0.6c3.8-0.1,7.5-0.2,11.3-0.3c-0.1,2.8-0.2,5.6-0.3,8.5c-0.1,2.8-0.3,5.6-0.4,8.4
			c3.9-0.4,8.1-0.7,12.4-0.7c4.3,0,8.4,0.1,12.4,0.3c0.7-15.6,1-31.6,0.8-47.8C486,404.4,485.9,375.6,485.7,357.6z M465.9,432
			c-4.1-0.4-18.8-0.6-22.5-0.3c3.4-7.1,17.4-36.8,21.2-43.9C464.9,394.9,465.9,424.8,465.9,432z"/>
		<path class="st0" d="M682,369c-5.9,2.2-11.9,4.1-18.1,4.9c-2.5,0.3-5.4,0.7-8.1,0.4c-0.9,4.2-1.9,8.7-3.1,13.7
			c-1.3,5.6-2.8,11.4-4.3,17.3s-3.1,11.6-4.7,17.2c-1.7,5.6-3.2,10.6-4.7,14.9c-0.6,1.8-1.3,3.4-2,4.6c-0.8,1.2-1.7,2.2-2.7,2.8
			c-1.1,0.7-2.3,1.2-3.6,1.4c-1.3,0.3-3,0.4-4.9,0.5c-1,0-2-0.1-3-0.2c-1.1-0.1-2-0.3-2.8-0.8c-0.8-0.5-1.4-1.3-1.8-2.3
			c-0.4-1-0.3-2.4,0.1-4.3c1.1-4.6,2.3-9.7,3.9-15.3c1.5-5.6,3.2-11.4,4.9-17.2c1.8-5.9,3.5-11.6,5.3-17.2c1.3-4,4.5-15.2,6.8-22.9
			c-2.3,1.1-4.5,2.1-6.9,2.9c-6.6,2.4-14.3,4.7-21.7,4.9c-1.1,3.6-2.3,7.7-3.8,12.3s-2.9,9.5-4.4,14.7c-1.5,5.2-3,10.5-4.4,15.8
			c-1.4,5.4-2.8,10.6-3.9,15.6c-0.6,2.9-1.2,5.9-1.8,9c-0.5,3-0.7,6-0.5,8.9s0.8,5.5,2,8s3.1,4.7,5.9,6.4c2.3,1.5,5.3,2.7,8.7,3.4
			c3.4,0.8,7.3,1.2,11.6,1.2c6.3,0,11.8-0.3,16.7-1c4.9-0.7,9.1-2.1,12.9-4.3s7-5.3,9.8-9.4c2.8-4.1,5.3-9.6,7.5-16.5
			c1.7-5,3.4-10.4,4.9-16.1c1.6-5.7,3.2-11.4,4.8-17.2c1.5-5.8,3-11.5,4.4-17c1.2-4.5,4.6-15.2,6.6-21.7
			C685.7,367.6,683.8,368.3,682,369z"/>
		<g>
			<path class="st2" d="M487.8,57.3c0,0,0-0.2-0.1-0.4c-0.1-0.3-0.2-0.7-0.3-1.2c-0.3-1-1-2.3-2.3-3.8c-2.3-2.8-6.6-5.5-11.9-6.7
				c-5.3-1.3-10.6-1.2-14.3-1c-1,0-1.8,0.2-2.6,0.2c-0.8,0.1-1.4,0.1-2,0.2c-1.1,0.1-1.7,0.2-1.7,0.2s0.5-0.3,1.5-0.8
				c0.5-0.3,1.1-0.6,1.8-0.8c0.8-0.3,1.6-0.7,2.5-1s2-0.7,3.2-0.9c0.6-0.2,1.2-0.3,1.8-0.4c0.7-0.1,1.3-0.2,1.9-0.3
				c2.7-0.3,5.8-0.3,8.9,0.5c1.6,0.3,3.1,0.9,4.4,1.6c1.3,0.7,2.6,1.5,3.7,2.4c2.2,1.8,3.7,3.9,4.5,5.8c0.9,1.9,1.1,3.7,1.1,4.8
				c0,0.6-0.1,1-0.1,1.3C487.9,57.1,487.8,57.3,487.8,57.3z"/>
		</g>
		<g>
			<g>
				<g>
					<path class="st2" d="M486.9,29.4c0,0,0,0.3-0.2,0.9c-0.1,0.6-0.3,1.4-0.7,2.3c-0.6,1.9-1.8,4.4-2.3,6.6c-0.3,1-0.3,2.3-0.3,3.4
						c0,1.2,0,2.3,0.1,3.2s0.3,1.7,0.3,2.3c0.1,0.3,0.2,0.5,0.2,0.7c0.1,0.2,0.1,0.3,0.1,0.3s-0.1,0-0.2-0.1
						c-0.2-0.1-0.3-0.2-0.6-0.3c-0.5-0.3-1.2-0.9-1.8-1.8c-0.7-0.8-1.3-2-1.7-3.4c-0.4-1.4-0.7-3-0.3-4.9c0.4-1.8,1.3-3.2,2.1-4.3
						c0.8-1.1,1.8-1.9,2.5-2.6s1.4-1.2,1.8-1.5C486.6,29.6,486.9,29.4,486.9,29.4z"/>
				</g>
			</g>
		</g>
		<g>
			<path class="st2" d="M506.8,57.3c0,0,0-0.2-0.1-0.4c0-0.3-0.2-0.8-0.1-1.3c0-1.1,0.2-2.8,1.1-4.8c0.8-1.9,2.3-4,4.5-5.8
				c1.1-0.9,2.3-1.7,3.7-2.4c1.3-0.7,2.8-1.3,4.4-1.6c3.1-0.8,6.2-0.8,8.9-0.5c0.7,0.1,1.3,0.2,1.9,0.3s1.3,0.3,1.8,0.4
				c1.2,0.3,2.2,0.6,3.2,0.9c0.9,0.3,1.8,0.7,2.5,1c0.8,0.3,1.3,0.6,1.8,0.8c1,0.5,1.5,0.8,1.5,0.8s-0.6-0.1-1.7-0.2
				c-0.6-0.1-1.2-0.2-2-0.2c-0.8,0-1.7-0.2-2.6-0.2c-3.9-0.2-9-0.3-14.3,1c-5.3,1.2-9.5,3.9-11.9,6.7c-1.2,1.3-1.8,2.8-2.3,3.8
				c-0.3,0.5-0.3,0.9-0.3,1.2C506.9,57.1,506.8,57.3,506.8,57.3z"/>
		</g>
		<g>
			<g>
				<g>
					<path class="st2" d="M507.7,29.4c0,0,1,0.8,2.5,2c0.8,0.7,1.6,1.4,2.4,2.5c0.8,1.1,1.7,2.3,2.1,4.1c0.8,3.4-0.3,6.4-1.4,8.2
						c-0.6,0.9-1.3,1.5-1.8,1.8c-0.3,0.2-0.4,0.3-0.6,0.3c-0.2,0.1-0.2,0.1-0.2,0.1s0-0.1,0.1-0.3c0-0.2,0.1-0.3,0.2-0.6
						c0.2-0.5,0.3-1.3,0.3-2.2c0.1-1.8-0.1-4.2-0.7-6.4c-0.6-2.2-1.7-4.6-2.3-6.5c-0.3-0.9-0.5-1.8-0.6-2.3
						C507.7,29.7,507.7,29.4,507.7,29.4z"/>
				</g>
			</g>
		</g>
		<g>
			<path class="st3" d="M416,191.1c-0.3,0.8-0.6,1.4-0.8,2.1c0.1-0.1,0.1-0.2,0.2-0.3c0-0.1,0.1-0.1,0.1-0.2
				C415.6,192.2,415.9,191.6,416,191.1c0.3-0.4,0.4-0.9,0.7-1.4c0,0,0,0-0.1-0.1C416.4,190.1,416.2,190.6,416,191.1z"/>
			<path class="st3" d="M429.1,190.5c-0.2,0.4-0.3,0.8-0.5,1.3s-0.3,0.9-0.6,1.4c-0.2,0.5-0.3,1.1-0.5,1.6c-0.8,2.3-1.3,5-1.4,8
				c0,0.8-0.1,1.5-0.1,2.3c0,0.8,0.1,1.6,0.1,2.4c0.1,0.8,0.2,1.7,0.3,2.5c0.1,0.8,0.3,1.7,0.4,2.5c0.8,3.4,1.9,6.4,3.3,9.2
				s3.1,4.9,4.5,6.8c0.6,0.6,1.2,1.2,1.7,1.8c0-0.1-0.1-0.1-0.1-0.2c-0.5-0.5-0.9-1-1.5-1.6c-1.4-1.8-3.2-4-4.5-6.8
				c-1.3-2.7-2.5-5.8-3.3-9.2c-0.2-0.8-0.3-1.7-0.4-2.5s-0.2-1.7-0.3-2.5c0-0.8-0.1-1.6-0.1-2.4c0-0.8,0.1-1.6,0.1-2.3
				c0.2-3,0.7-5.8,1.4-8c0.2-0.6,0.3-1.1,0.5-1.6c0.2-0.5,0.4-1,0.6-1.4C428.8,191.3,429,190.9,429.1,190.5c0.3-0.3,0.4-0.7,0.6-1
				c0.6-1.3,0.9-1.9,0.9-1.9s-0.3-0.2-0.7-0.5c-0.3-0.2-0.5-0.3-0.8-0.5c-0.3-0.2-0.8-0.3-1.3-0.4c-0.5-0.2-1.1-0.3-1.7-0.3
				c0.6,0,1.2,0.1,1.6,0.3c0.5,0.1,0.9,0.3,1.3,0.4c0.3,0.2,0.7,0.3,0.8,0.5c0.4,0.3,0.7,0.5,0.7,0.5s-0.3,0.7-0.9,1.9
				C429.4,189.8,429.3,190.1,429.1,190.5z"/>
			<path class="st3" d="M627.5,198.8c-0.6-9.4-4.3-20.4-11.6-30.3c-1.8-2.4-3.9-4.9-6.2-7.1c-2.3-2.3-4.8-4.5-7.4-6.8
				c-5.1-4.5-10.7-9.3-15.2-15.6c-2.3-3.1-4.1-6.5-5.3-10.1c-0.3-0.9-0.5-1.8-0.8-2.8c-0.3-0.9-0.3-1.8-0.5-2.8
				c-0.3-1.8-0.4-3.7-0.4-5.4c-0.1-3.6,0.2-7,0.1-10.1v-1.2l-0.1-1.2l-0.1-1.2c0-0.4-0.1-0.8-0.2-1.1c-0.3-1.4-0.7-2.8-1.3-4.1
				c-1.3-2.6-3.1-4.8-5.3-6.6c-1.1-0.9-2.2-1.8-3.4-2.6c-1.2-0.8-2.4-1.4-3.6-2.1c-1.3-0.7-2.3-1.3-3.6-2c-1.2-0.6-2.4-1.2-3.6-1.8
				c-2.3-1.2-4.6-2.3-6.8-3.4c-2.2-1.2-4.1-2.3-6-3.4c-1.8-1.2-3.6-2.3-5.2-3.3c-1.6-1-3.1-2-4.5-2.8s-2.7-1.7-3.7-2.6
				c-0.3-0.3-0.5-0.4-0.8-0.7c0.8,2.4,1.5,4.5,2.4,6.2c0.9,1.7,1.9,2.8,2.8,3.5c0.9,0.7,1.4,1,1.4,1s-0.2,0-0.4-0.1
				c-0.3-0.1-0.8-0.2-1.3-0.3c-1.1-0.4-2.7-1.3-4.2-2.8c-1.5-1.5-2.8-3.7-4.1-6.2c-0.6-1.3-1.2-2.8-1.3-4.6
				c-0.2-1.8,0.4-3.9,1.4-5.4c1.9-2.9,4.4-4.9,7-6.2c-1.8,0.1-3.9,0.2-5.8,0.4c-0.6,0.1-1.2,0.2-1.8,0.3c-0.6,0.2-1.1,0.3-1.6,0.4
				c-0.5,0.2-1,0.3-1.5,0.5c-0.5,0.2-0.9,0.4-1.3,0.6c-0.7,0.3-1.3,0.8-1.9,1.3c-1.6,1.9-2.9,3.9-3.6,5.6c-0.2,0.3-0.3,0.8-0.4,1.1
				c-0.1,0.3-0.3,0.7-0.3,1c-0.3,0.6-0.3,1.3-0.4,1.8c-0.1,0.3-0.1,0.5-0.1,0.7c0,0.1,0,0.1,0,0.2c0,0.1,0,0.1,0.1,0.2
				c0.1,0.1,0.2,0.2,0.2,0.2c0.1,0,0.1-0.1,0.1-0.1s0,0-0.1,0.1c-0.1,0.1-0.2,0-0.3-0.1c-0.1,0-0.2-0.1-0.2-0.2
				c-0.1-0.1-0.1-0.3-0.1-0.3c-0.1-0.2-0.1-0.4-0.2-0.7c-0.1-0.5-0.3-1.1-0.3-1.8c0-0.4,0-0.8-0.1-1.2c0-0.4,0.1-0.8,0.1-1.3
				c0.3-3.8,2.7-8.8,7.1-12.6c0.3-0.3,0.6-0.4,0.9-0.7c0.3-0.3,0.6-0.4,0.9-0.6c0.3-0.2,0.7-0.4,1-0.5c0.3-0.2,0.7-0.3,1-0.4
				c1.3-0.6,2.5-0.8,3.7-1.1c2.3-0.4,4.4-0.7,6.2-0.8c2.2-0.1,3.9-0.1,4.8,0l-0.1-0.1c-0.3,0-0.8-0.1-1.4-0.1
				c-0.6-0.1-1.2-0.2-2-0.2c-0.8,0-1.7-0.2-2.6-0.2c-3.9-0.2-9-0.3-14.3,1c-5.3,1.2-9.5,3.9-11.9,6.7c-1.2,1.3-1.8,2.8-2.3,3.8
				c-0.3,0.5-0.3,0.9-0.3,1.2c-0.1,0.3-0.1,0.4-0.1,0.4s0-0.2-0.1-0.4c0-0.3-0.2-0.8-0.1-1.3c0-1.1,0.2-2.8,1.1-4.8
				c0.8-1.6,1.9-3.4,3.7-5c0-0.1,0-0.3,0-0.3c0-0.3,0-0.4,0-0.7c0-0.3,0-0.5,0-0.8c0-0.5-0.1-1-0.1-1.6c-0.2-1.1-0.3-2.3-0.6-3.4
				c-0.6-2.2-1.7-4.6-2.2-6.5c-0.3-0.9-0.5-1.8-0.6-2.3c-0.1-0.3-0.1-0.5-0.1-0.6c-0.2,0.2-0.3,0.5-0.7,0.9c-0.5,0.8-1.3,1.8-2.1,3
				c-0.8,1.3-1.7,2.8-2.4,4.5c-0.8,1.8-1.4,3.8-2,5.9c-0.6,2.3-1.1,4.5-1.4,6.6c-0.1,1.8-0.3,3.6-0.7,4.9v0.1
				c-0.3,1.4-0.3,2.7-0.4,3.5c-0.1,0.9-0.2,1.4-0.2,1.4s-0.2-0.4-0.4-1.2c-0.3,0.8-0.4,1.2-0.4,1.2s-0.1-0.5-0.2-1.4
				c-0.2-0.8-0.3-2.1-0.4-3.5v-0.1c-0.3-1.3-0.6-3.1-0.7-4.9c-0.3-2.1-0.8-4.4-1.4-6.6c-0.6-2.1-1.3-4.1-2-5.9
				c-0.8-1.8-1.6-3.3-2.4-4.5c-0.8-1.3-1.6-2.3-2.1-3c-0.3-0.4-0.5-0.7-0.7-0.9v0.1c0,0.2-0.1,0.3-0.1,0.6c-0.1,0.6-0.3,1.4-0.6,2.3
				c-0.6,1.9-1.7,4.4-2.3,6.6c-0.3,1-0.3,2.3-0.3,3.4c0,0.6,0,1.2,0,1.7c0,0.3,0,0.5,0,0.8c0,0.3,0.1,0.5,0.1,0.8c0,0.1,0,0.2,0,0.3
				c1.5,1.5,2.6,3.1,3.3,4.6c0.9,1.9,1.1,3.7,1.1,4.8c0,0.6-0.1,1-0.1,1.3c-0.1,0.3-0.1,0.4-0.1,0.4s0-0.2-0.1-0.4
				c-0.1-0.3-0.2-0.7-0.3-1.2c-0.3-1-1-2.3-2.3-3.8c-2.3-2.8-6.6-5.5-11.9-6.7c-5.3-1.3-10.6-1.2-14.3-1c-1,0-1.8,0.2-2.6,0.2
				c-0.8,0.1-2.1,0.3-2.6,0.3l0,0c1,0,2.3,0,3.9,0.1c1.8,0.2,3.9,0.4,6.2,0.8c1.2,0.3,2.4,0.6,3.7,1.1c0.3,0.2,0.7,0.3,1,0.4
				c0.3,0.2,0.7,0.3,1,0.5c0.3,0.2,0.7,0.4,0.9,0.6c0.3,0.3,0.6,0.4,0.9,0.7c4.4,3.8,6.8,8.8,7.1,12.6c0,0.5,0.1,0.9,0.1,1.3
				s0,0.8-0.1,1.2c0,0.8-0.3,1.3-0.3,1.8c-0.1,0.3-0.1,0.4-0.2,0.7c0,0.1-0.1,0.3-0.1,0.3c-0.1,0.1-0.2,0.2-0.2,0.2
				c-0.2,0.1-0.3,0.1-0.3,0.1c-0.1-0.1-0.1-0.1-0.1-0.1s0,0,0.1,0.1c0.1,0,0.2-0.1,0.2-0.2c0-0.1,0.1-0.1,0.1-0.2c0-0.1,0-0.1,0-0.2
				c0-0.2-0.1-0.4-0.1-0.7c-0.1-0.5-0.2-1.1-0.4-1.8c-0.1-0.3-0.2-0.7-0.3-1c-0.1-0.3-0.3-0.7-0.4-1.1c-0.7-1.8-2-3.7-3.6-5.6
				c-0.6-0.5-1.2-0.9-1.9-1.3c-0.4-0.2-0.9-0.4-1.3-0.6c-0.5-0.2-1-0.3-1.5-0.5c-0.5-0.2-1.1-0.3-1.6-0.4c-0.6-0.1-1.2-0.2-1.8-0.3
				c-1.9-0.3-3.9-0.3-5.8-0.4c2.6,1.3,5.1,3.3,7,6.2c0.9,1.5,1.5,3.5,1.4,5.4c-0.2,1.8-0.8,3.4-1.3,4.6c-1.2,2.4-2.6,4.6-4.1,6.2
				c-1.5,1.6-3.1,2.3-4.2,2.8c-0.6,0.2-1,0.3-1.3,0.3c-0.3,0.1-0.4,0.1-0.4,0.1s0.5-0.3,1.4-1c0.8-0.8,1.8-1.8,2.8-3.5
				c0.9-1.7,1.7-3.8,2.4-6.2c0.1-0.2,0.1-0.3,0.2-0.5c-0.4,0.4-0.8,0.8-1.3,1.2c-1.1,0.8-2.3,1.7-3.7,2.6c-1.3,0.8-2.8,1.8-4.5,2.8
				c-1.6,1-3.4,2.1-5.2,3.3c-1.9,1.1-3.9,2.3-6,3.4c-2.2,1.1-4.4,2.2-6.8,3.4c-1.2,0.6-2.3,1.2-3.6,1.8c-1.2,0.6-2.3,1.3-3.6,2
				c-1.2,0.7-2.5,1.3-3.6,2.1c-1.2,0.8-2.3,1.6-3.4,2.6c-2.2,1.8-4,4.1-5.3,6.6c-0.6,1.3-1.1,2.7-1.3,4.1c-0.1,0.3-0.1,0.7-0.2,1.1
				l-0.1,1.2l-0.1,1.2v1.2c-0.1,3.2,0.2,6.6,0.1,10.1c0,1.8-0.2,3.6-0.4,5.4c-0.2,0.9-0.3,1.8-0.5,2.8c-0.3,0.9-0.5,1.8-0.8,2.8
				c-1.2,3.6-3,7-5.3,10.1c-4.5,6.2-10.1,11-15.2,15.6c-2.6,2.3-5.1,4.5-7.4,6.8c-2.3,2.3-4.4,4.7-6.2,7.1
				c-7.4,9.9-11.1,20.9-11.6,30.3c-0.3,4.7,0,9,0.8,12.6c0.8,3.6,2.1,6.5,3.4,8.9c-0.2-1.3-0.1-2.6,0.3-3.9c0.5-1.9,1.5-3.6,2.7-4.8
				c1.2-1.3,2.4-2,3.5-2.6c1.1-0.5,2.1-0.8,2.7-0.8c0.7-0.1,1-0.1,1-0.1s-0.3,0.3-0.7,0.8c-0.4,0.4-1.1,1.2-1.7,1.9
				c-0.4,0.6-0.8,1.3-1.3,1.9c0.1,0.1,0.2,0.1,0.3,0.2c0.8,0.4,2.1,1.2,3.5,2.3s3,2.5,4.4,4.6c0.3,0.5,0.7,1.1,0.9,1.8
				c0.3,0.6,0.5,1.3,0.7,2c0.3,1.4,0.5,2.8,0.3,4.4c-0.3,3-1.8,5.7-3.6,7.5c-1.8,1.8-3.9,2.7-5.5,3.4c-1.1,0.4-2,0.6-2.8,0.8
				c0.3,0,0.7,0,1-0.1c2.3-0.2,5.3-0.3,8.4-0.8c1.5-0.3,2.9-0.5,4.3-0.9c1.3-0.3,2.4-0.8,3.4-1.3c1-0.5,1.8-0.9,2.3-1.3
				c0.6-0.3,0.9-0.5,0.9-0.5s-0.1,0.3-0.4,1c-0.3,0.7-0.8,1.5-1.5,2.5c-0.3,0.3-0.7,0.8-1.1,1.2c0,0.1,0,0.1,0,0.2
				c0,0.3,0.1,0.5,0.1,0.8c0.1,0.3,0.1,0.6,0.2,0.8c0.1,0.6,0.3,1.3,0.5,2c0.3,1.5,1,3.2,1.8,4.9c0.8,1.8,1.8,3.7,3,5.5
				c2.3,3.8,5.1,6.9,7.4,9c1.1,1.1,2.1,1.9,2.8,2.5c0.1,0.1,0.2,0.2,0.3,0.3l0,0c-0.3-0.3-0.5-0.8-0.8-1.3c-0.3-0.4-0.6-0.9-0.8-1.5
				c-0.2-0.3-0.3-0.6-0.4-0.9c-0.2-0.3-0.3-0.7-0.3-1.1c-0.3-0.8-0.4-1.6-0.6-2.4c-0.3-1.8-0.3-3.8,0.4-5.9c0.7-2.1,1.8-3.8,3.1-5
				c0.7-0.6,1.3-1.2,2-1.6c0.3-0.3,0.7-0.4,1-0.6c0.3-0.2,0.7-0.3,0.9-0.4c0.6-0.3,1.2-0.5,1.7-0.6c0.3-0.1,0.5-0.2,0.7-0.2
				c0.3,0,0.4-0.1,0.6-0.1c0.8-0.1,1.1-0.1,1.1-0.1s-0.3,0.3-0.8,0.8c-0.2,0.1-0.3,0.3-0.4,0.3c-0.2,0.2-0.3,0.3-0.5,0.5
				c-0.3,0.3-0.8,0.7-1.1,1.2c-0.2,0.3-0.4,0.4-0.6,0.7s-0.4,0.5-0.6,0.8c-0.2,0.3-0.4,0.5-0.6,0.8l-0.1,0.1
				c0.2,0.1,0.4,0.3,0.7,0.4c0.9,0.7,2.1,1.8,3.4,3.4s2.4,3.8,3.2,6.4c0.4,1.3,0.6,2.8,0.7,4.3c0.1,1.5,0,3.2-0.4,4.7
				c-0.7,3.1-2.1,5.9-3.6,8c-0.4,0.6-0.8,1.1-1.2,1.5c-0.4,0.5-0.8,0.9-1.2,1.3s-0.8,0.8-1.2,1.2c-0.4,0.3-0.8,0.7-1.2,1
				c-0.8,0.7-1.5,1.2-2.1,1.6c-0.4,0.3-0.8,0.6-1.2,0.8c0.2,0,0.4-0.1,0.6-0.1c0.6-0.1,1.3-0.2,2.1-0.3c0.3-0.1,0.8-0.2,1.2-0.2
				c0.4-0.1,0.8-0.2,1.3-0.3c0.8-0.2,1.8-0.4,2.7-0.7c1.8-0.6,3.9-1.3,5.9-2.1c2-0.9,3.8-1.9,5.3-3c0.3-0.3,0.8-0.6,1.1-0.8
				s0.7-0.6,0.9-0.9c0.7-0.6,1.2-1.2,1.6-1.8c0.1-0.2,0.3-0.3,0.3-0.4s0.2-0.3,0.3-0.4c0.2-0.3,0.4-0.6,0.6-0.8
				c0.4-0.5,0.6-1,0.8-1.3c0.4-0.8,0.7-1.3,0.7-1.3s0,0.5-0.1,1.4c0,0.4,0,1-0.2,1.7c-0.1,0.3-0.2,0.7-0.3,1
				c-0.1,0.2-0.1,0.3-0.2,0.6c-0.1,0.2-0.2,0.3-0.3,0.6c-0.2,0.4-0.3,0.8-0.5,1.3c0.1,0.3,0.2,0.6,0.3,0.9c0.1,0.3,0.2,0.6,0.3,0.8
				c0.1,0.3,0.3,0.7,0.4,1c0.2,0.3,0.3,0.8,0.4,1.1c0.2,0.4,0.4,0.8,0.6,1.2c0.8,1.7,2.1,3.5,3.6,5.4c1.5,1.9,3.4,3.7,5.5,5.5
				c4.3,3.6,8.8,6.4,12.1,8.5c1.1,0.7,2,1.3,2.8,1.8c-1-1.8-1.8-3.5-2.5-5.3c-1.5-4.1-2.2-8-2.3-11.2s0.3-5.9,0.7-7.5
				c0.2-0.8,0.4-1.5,0.5-2c0.2-0.4,0.2-0.7,0.2-0.7s0,0.3,0,0.7c0,0.5-0.1,1.2,0,2c0,1.8,0.2,4.3,0.8,7.3c0.6,3,1.7,6.4,3.4,10
				c1.8,3.5,4.2,7.1,7.3,10.5c0.8,0.8,1.6,1.6,2.3,2.3c0.8,0.8,1.7,1.4,2.5,2.2c1.7,1.4,3.4,2.8,4.9,4.2c1.6,1.3,3,2.8,4.4,4.1
				c0.4,0.4,0.8,0.8,1.1,1.3c-0.3-1.1-0.5-2.2-0.8-3.2c-0.2-0.8-0.4-1.5-0.6-2.3c-0.2-0.8-0.4-1.4-0.7-2.2c-0.4-1.4-0.9-2.8-1.3-4
				c-0.9-2.6-1.9-4.8-2.8-6.9c-0.9-2-1.6-3.9-2-5.4c-0.3-1.5-0.5-2.8-0.4-3.6s0.1-1.3,0.1-1.3s0,0.4,0.1,1.3s0.3,1.9,0.9,3.4
				c0.6,1.4,1.4,3,2.5,4.9c1.1,1.8,2.3,4.1,3.6,6.6c0.6,1.3,1.3,2.6,1.8,4c0.3,0.8,0.6,1.4,0.8,2.2s0.5,1.5,0.8,2.3
				c0.5,1.6,1,3.2,1.5,4.8c0.6,1.6,1.1,3.4,1.7,5c1.2,3.4,2.7,6.8,4.4,10.2c0.5,0.8,0.9,1.7,1.4,2.5s1.1,1.6,1.6,2.4
				c0.3,0.4,0.6,0.8,0.8,1.3s0.6,0.8,0.9,1.2c0,0.1,0.1,0.1,0.1,0.1l0,0l0,0l0,0l0,0l0,0l0,0l0.5-0.6c0.7-0.8,1.2-1.6,1.8-2.4
				c1.2-1.6,2.2-3.3,3.3-4.9c1.9-3.4,3.6-6.6,4.9-10c0.3-0.8,0.7-1.7,1-2.4c0.3-0.8,0.6-1.6,0.9-2.4c0.5-1.6,1.1-3.2,1.6-4.8
				c0.3-0.8,0.5-1.6,0.8-2.3s0.6-1.5,0.8-2.2c0.5-1.4,1.2-2.8,1.8-4c1.2-2.5,2.5-4.8,3.6-6.6c1.1-1.8,2-3.5,2.5-4.9
				c0.5-1.4,0.8-2.6,0.9-3.4c0.1-0.8,0.1-1.3,0.1-1.3s0,0.4,0.1,1.3c0,0.8-0.1,2-0.4,3.6c-0.4,1.5-1.1,3.4-2,5.4
				c-0.9,2-1.8,4.3-2.8,6.9c-0.4,1.3-0.9,2.6-1.3,4c-0.2,0.7-0.4,1.4-0.7,2.2c-0.2,0.8-0.3,1.5-0.6,2.3c-0.3,0.8-0.4,1.7-0.7,2.6
				c0.3-0.3,0.4-0.5,0.7-0.8c1.3-1.3,2.8-2.8,4.4-4.1c1.6-1.4,3.3-2.8,4.9-4.2c0.8-0.8,1.7-1.4,2.5-2.2c0.8-0.8,1.6-1.5,2.3-2.3
				c3.1-3.3,5.5-7,7.3-10.5c1.8-3.5,2.8-7,3.4-10c0.6-3,0.8-5.5,0.8-7.3c0-0.8,0-1.6,0-2c0-0.5,0-0.7,0-0.7s0.1,0.3,0.2,0.7
				c0.1,0.4,0.3,1.1,0.5,2c0.3,1.8,0.8,4.4,0.7,7.5c-0.1,3.3-0.8,7.1-2.3,11.2c-0.7,1.8-1.5,3.5-2.5,5.3c0.8-0.5,1.8-1.1,2.8-1.8
				c3.3-2,7.8-4.9,12.1-8.5c2.1-1.8,4-3.7,5.5-5.5c1.5-1.9,2.8-3.7,3.6-5.4c0.2-0.4,0.4-0.8,0.6-1.2c0.2-0.4,0.3-0.8,0.4-1.1
				c0.2-0.3,0.3-0.7,0.4-1c0.1-0.3,0.2-0.6,0.3-0.8c0.1-0.3,0.2-0.7,0.3-0.9c-0.2-0.4-0.3-0.8-0.5-1.3c-0.1-0.2-0.2-0.4-0.3-0.6
				s-0.1-0.4-0.2-0.6c-0.1-0.3-0.2-0.7-0.3-1c-0.2-0.7-0.2-1.2-0.2-1.7c-0.1-0.9-0.1-1.4-0.1-1.4s0.3,0.4,0.7,1.3
				c0.3,0.4,0.4,0.8,0.8,1.3c0.2,0.3,0.3,0.5,0.6,0.8c0.1,0.2,0.2,0.3,0.3,0.4s0.3,0.3,0.3,0.4c0.5,0.6,1,1.2,1.6,1.8
				c0.3,0.3,0.6,0.6,0.9,0.9c0.3,0.3,0.7,0.6,1.1,0.8c1.5,1.1,3.3,2.1,5.3,3c2,0.9,4,1.6,5.9,2.1c0.9,0.3,1.8,0.5,2.7,0.7
				c0.4,0.1,0.8,0.2,1.3,0.3c0.4,0.1,0.8,0.2,1.2,0.2c0.8,0.2,1.4,0.3,2.1,0.3c0.3,0,0.4,0.1,0.6,0.1c-0.4-0.3-0.8-0.5-1.2-0.8
				c-0.6-0.5-1.3-1-2.1-1.6c-0.3-0.3-0.8-0.7-1.2-1c-0.4-0.4-0.8-0.8-1.2-1.2s-0.8-0.8-1.2-1.3c-0.4-0.5-0.8-1-1.2-1.5
				c-1.5-2.2-2.9-4.9-3.6-8c-0.4-1.5-0.5-3.2-0.4-4.7s0.3-2.9,0.7-4.3c0.8-2.7,1.9-4.8,3.2-6.4c1.3-1.6,2.4-2.7,3.4-3.4
				c0.3-0.2,0.4-0.3,0.7-0.4l-0.1-0.1c-0.2-0.3-0.3-0.6-0.6-0.8c-0.2-0.3-0.4-0.5-0.6-0.8c-0.2-0.3-0.4-0.5-0.6-0.7
				c-0.3-0.5-0.8-0.8-1.1-1.2c-0.2-0.2-0.3-0.3-0.5-0.5c-0.2-0.2-0.3-0.3-0.4-0.3c-0.5-0.5-0.8-0.8-0.8-0.8s0.4,0,1.1,0.1
				c0.2,0,0.4,0.1,0.6,0.1c0.3,0.1,0.4,0.1,0.7,0.2c0.5,0.2,1.1,0.3,1.7,0.6c0.3,0.2,0.6,0.3,0.9,0.4c0.3,0.2,0.7,0.4,1,0.6
				c0.7,0.4,1.3,1,2,1.6c1.3,1.3,2.4,3,3.1,5c0.8,2.1,0.7,4.2,0.4,5.9c-0.2,0.8-0.3,1.7-0.6,2.4c-0.1,0.3-0.3,0.8-0.3,1.1
				c-0.2,0.3-0.3,0.7-0.4,0.9c-0.3,0.6-0.6,1.1-0.8,1.5s-0.7,1.1-0.9,1.3c0.2-0.1,0.3-0.3,0.4-0.3c0.7-0.6,1.7-1.4,2.8-2.5
				c2.3-2.2,4.9-5.3,7.4-9c1.2-1.9,2.2-3.8,3-5.5c0.8-1.8,1.4-3.5,1.8-4.9c0.3-0.8,0.3-1.4,0.5-2c0.1-0.3,0.2-0.6,0.2-0.8
				c0-0.3,0.1-0.5,0.1-0.8c0-0.1,0-0.1,0-0.2c-0.4-0.4-0.8-0.8-1.1-1.2c-0.8-1-1.3-1.8-1.5-2.5c-0.3-0.6-0.4-1-0.4-1
				s0.3,0.2,0.9,0.5c0.5,0.3,1.4,0.8,2.3,1.3c1,0.4,2.2,0.9,3.4,1.3c1.3,0.4,2.7,0.7,4.3,0.9c3,0.5,6,0.7,8.4,0.8c0.3,0,0.7,0,1,0.1
				c-0.8-0.2-1.8-0.3-2.8-0.8c-1.7-0.6-3.7-1.5-5.5-3.4c-1.8-1.8-3.4-4.4-3.6-7.5c-0.2-1.5,0-3,0.3-4.4c0.3-0.7,0.3-1.3,0.7-2
				c0.3-0.6,0.6-1.3,0.9-1.8c1.4-2.1,3-3.5,4.4-4.6c1.4-1.1,2.6-1.8,3.5-2.3c0.1-0.1,0.2-0.1,0.3-0.2c-0.4-0.8-0.8-1.3-1.3-1.9
				c-0.7-0.8-1.3-1.5-1.7-1.9s-0.7-0.8-0.7-0.8s0.3,0,1,0.1c0.7,0.1,1.6,0.3,2.7,0.8c1.1,0.5,2.3,1.3,3.5,2.6s2.2,2.8,2.7,4.8
				c0.3,1.3,0.4,2.7,0.3,3.9c1.3-2.3,2.6-5.3,3.4-8.9C627.4,207.7,627.8,203.5,627.5,198.8z M498.5,191.4c2.7,0,5.4-0.1,8-0.3
				c0.8-0.1,1.7-0.2,2.6-0.3c0.5-0.1,1.8-0.3,2-0.3c2-0.4,4-0.8,5.9-1.5l0,0c0.1-0.1,0.2-0.1,0.3-0.2c0.7-0.4,1.3-0.8,2-1.3
				c5.4-4.1,13.7-0.8,16.8,4.4c3.7,6.3,0.9,12.8-4.4,16.8c-9.1,7-23.4,7.4-34.3,7.1c-11.3-0.3-24-1.3-33.8-7.7
				c-5.6-3.7-8-10.8-4.4-16.8c3.3-5.5,11.2-8.1,16.8-4.4c0.5,0.3,4,1.9,1.8,1.2c1.2,0.4,2.3,0.8,3.4,1.2c1.9,0.5,3.9,1,5.9,1.3
				c0.5,0.1,1.8,0.3,2.2,0.3c0.9,0.1,1.8,0.2,2.8,0.2C494.3,191.3,496.4,191.4,498.5,191.4z M516.3,131c0.3-0.1,0.6-0.1,0.8-0.2
				c0.1,0,0.2-0.1,0.2-0.1c1-0.5,1.9-1.2,2.8-1.8c0.4-3.7,2.5-7.2,5.9-9.2c5.8-3.4,13.5-1.4,16.8,4.4c4.4,7.6,1.2,16.5-5.1,21.9
				c-4.1,3.5-9.5,7.6-15,8.5c-6.6,1.2-13.2-1.7-15.2-8.6C506,140.1,509.7,132.2,516.3,131z M449,137.5c-3.8-5.5-1.1-13.7,4.4-16.8
				c5.6-3.3,12-1.4,15.9,3.2c0.1,0.1,0.2,0.2,0.3,0.3c0.3,0.4,0.8,0.8,1.2,1.1c0.5,0.5,1.1,0.9,1.6,1.4c0.6,0.4,1.2,0.8,1.8,1.2
				c3,0,6,1.1,8.4,3.5c4.5,4.5,5,12.9,0,17.4C471.5,158.6,455.7,147.3,449,137.5z M579.8,193c0,0.7-0.1,1.3-0.1,1.8
				c-0.1,1-0.2,1.5-0.2,1.5s-0.1-0.3-0.3-0.7c-0.4-0.2-1.3-0.6-2.5-1.2c-1.6-0.8-3.6-1.9-5.6-3.2c-1-0.6-1.9-1.2-2.8-1.7
				s-1.7-0.9-2.4-1.2c-0.4-0.2-0.8-0.3-1.1-0.3c-0.3-0.1-0.5-0.2-0.8-0.2c0.2,0.3,0.4,0.8,0.8,1.5c0.2,0.2,0.4,0.4,0.6,0.7
				c0.3,0.3,0.5,0.7,0.8,1.1s0.6,0.8,0.9,1.3c0.3,0.5,0.6,1,0.9,1.6c1.3,2.2,2.4,5,3,8.4c0.1,0.8,0.3,1.7,0.3,2.6
				c0.1,0.9,0.1,1.8,0.2,2.8c0,0.9-0.1,1.8-0.2,2.8c-0.1,0.9-0.3,1.9-0.5,2.9c-0.8,3.9-2.4,7.4-4.4,10.2c-0.5,0.7-1,1.3-1.5,2
				c-0.6,0.6-1.1,1.2-1.6,1.7c-0.5,0.6-1.1,1-1.6,1.5c-0.5,0.4-1,0.8-1.5,1.3c-1.1,0.7-2,1.3-2.8,1.8c-0.9,0.5-1.8,0.8-2.4,1
				c-0.3,0.1-0.5,0.2-0.8,0.3l-0.1,0.1c-0.2,0.1-0.3,0.1-0.4,0.2c-0.5,0.2-0.8,0.2-0.8,0.2s0.1-0.3,0.3-0.7c0.1-0.1,0.1-0.3,0.2-0.3
				c0.1-0.2,0.1-0.3,0.2-0.4c0.1-0.3,0.2-0.6,0.3-1c0-0.2,0.1-0.3,0.1-0.6c0-0.2,0-0.4,0.1-0.6c0.1-0.4,0-0.8,0-1.3
				c-0.1-0.9-0.1-1.8-0.3-2.8c0-0.1,0-0.2-0.1-0.3c-0.3,0.3-0.6,0.7-0.9,1c-0.4,0.5-0.9,0.8-1.4,1.3c-0.5,0.4-1,0.9-1.6,1.3
				s-1.2,0.8-1.8,1.2c-0.3,0.2-0.7,0.4-1,0.6s-0.7,0.3-1.1,0.5c-0.7,0.3-1.4,0.7-2.2,1c-1.5,0.6-3,1-4.3,1.6
				c-0.7,0.3-1.2,0.6-1.7,0.9c-0.5,0.3-0.9,0.8-1.2,1.2c-0.3,0.4-0.6,0.8-0.7,1.3c-0.2,0.4-0.2,0.9-0.2,1.5c0.1,2.2,1.5,4.1,2.8,5.7
				c1.3,1.6,2.5,2.9,3.3,3.9c0.8,0.9,1.2,1.4,1.2,1.4s-0.1,0-0.2-0.1c-0.1,0.1-0.3,0.2-0.5,0.4c-0.3,0.3-0.8,0.7-1.6,1
				c-1.4,0.7-3.7,1.3-6,0.6c-1.5-0.4-2.8-1.3-3.7-2.3c0.3,0.8,0.7,1.8,1,3c0.7,2.3,1.1,5.3,0.8,8.6c-0.2,1.7-0.5,3.4-1.2,5.2
				c-0.7,1.8-1.7,3.5-3,5.1c-1.4,1.6-3.3,2.7-5,3.4c-0.9,0.4-1.8,0.6-2.7,0.8c-0.9,0.2-1.8,0.3-2.6,0.3c-3.4,0.3-6.3-0.3-8.6-0.9
				c-1.5-0.4-2.8-0.9-3.9-1.4c0,0.1,0,0.1,0,0.2c0.1,0.7-0.1,1.6-0.3,2.8c-0.2,0.6-0.3,1.3-0.7,1.8c-0.3,0.7-0.7,1.3-1,1.9
				c-0.3,0.6-0.8,1.3-1.1,1.8c-0.4,0.7-0.8,1.3-1.3,2c-0.4,0.7-0.9,1.3-1.3,1.9c-0.3,0.3-0.4,0.6-0.7,0.9l-0.3,0.4l-0.3,0.4
				c-0.3,0.6-0.8,1-1.1,1.6c-0.3,0.5-0.6,1-0.9,1.4c-0.6,0.9-1,1.8-1.3,2.3c-0.2,0.3-0.3,0.4-0.3,0.6c0,0.2,0,0.3,0,0.3
				s0-0.1-0.1-0.1c-0.1,0.1-0.1,0.1-0.1,0.1s0-0.1,0-0.3c-0.1-0.2-0.3-0.3-0.3-0.6c-0.3-0.5-0.8-1.3-1.3-2.3
				c-0.3-0.4-0.6-0.9-0.9-1.4c-0.3-0.5-0.8-1-1.1-1.6l-0.3-0.4l-0.3-0.4c-0.3-0.3-0.4-0.6-0.7-0.9c-0.4-0.6-0.9-1.3-1.3-1.9
				c-0.4-0.7-0.8-1.3-1.3-2s-0.8-1.3-1.1-1.8c-0.3-0.6-0.7-1.3-1-1.9c-0.3-0.7-0.5-1.3-0.7-1.8c-0.3-1.2-0.3-2.1-0.3-2.8
				c0-0.3,0-0.6,0-0.8c-0.1,0.1-0.2,0.1-0.3,0.2c-1.1,0.7-2.7,1.4-4.9,2c-2.2,0.6-4.9,0.9-8.1,0.3c-1.6-0.3-3.2-0.8-4.8-1.8
				c-1.5-1-2.9-2.4-3.9-4.2c-1.8-3.3-2.4-6.7-2.5-9.7s0.4-5.7,1-7.9c0.2-0.7,0.3-1.3,0.6-1.8c-0.3,0.3-0.6,0.5-0.9,0.8
				c-0.4,0.3-0.9,0.5-1.4,0.8c-2.2,0.8-4.3,0.3-5.5-0.5c-0.7-0.3-1.1-0.8-1.3-1c-0.3-0.3-0.3-0.3-0.4-0.4c-0.1,0.1-0.2,0.1-0.2,0.1
				s0.3-0.5,1-1.4c0.6-0.9,1.6-2.3,2.7-3.9c1.1-1.6,2.2-3.4,2.2-5.5c0-0.5,0-1-0.1-1.5c-0.1-0.4-0.3-0.9-0.5-1.3
				c-0.5-0.8-1.3-1.6-2.3-2.1c-1-0.6-2.3-1-3.7-1.7c-0.7-0.3-1.3-0.7-2-1c-0.3-0.2-0.7-0.3-0.9-0.5c-0.3-0.3-0.6-0.4-0.8-0.7
				c-0.6-0.4-1.1-0.8-1.6-1.3c-0.5-0.5-0.9-0.9-1.3-1.3c-0.9-0.8-1.5-1.8-2.2-2.6c-1-1.3-1.6-2.6-1.8-3.7c-0.1,0.5-0.2,1-0.3,1.5
				c-0.2,0.9-0.3,1.9-0.5,2.9c-0.1,0.9-0.2,1.8-0.3,2.8c0,0.4,0,0.8,0,1.3c0,0.2,0,0.4,0.1,0.6c0,0.2,0.1,0.3,0.1,0.6
				c0,0.4,0.2,0.7,0.3,1c0.1,0.2,0.1,0.3,0.2,0.4s0.1,0.3,0.2,0.3c0.2,0.4,0.3,0.7,0.3,0.7s-0.3-0.1-0.8-0.2
				c-0.2-0.1-0.3-0.1-0.4-0.2l-0.1-0.1c-0.3-0.1-0.5-0.2-0.8-0.3c-0.7-0.3-1.5-0.5-2.4-1c-0.8-0.5-1.8-1.2-2.8-1.8
				c-0.5-0.4-1-0.8-1.5-1.3c-0.5-0.4-1.1-0.9-1.6-1.5s-1-1.1-1.6-1.7c-0.5-0.7-1-1.3-1.5-2c-1.9-2.8-3.5-6.3-4.4-10.2
				c-0.2-1-0.4-1.9-0.5-2.9s-0.2-1.9-0.2-2.8c0.1-0.9,0.1-1.8,0.2-2.8c0.1-0.9,0.3-1.8,0.3-2.6c0.7-3.4,1.8-6.2,3-8.4
				c0.3-0.6,0.6-1.1,0.9-1.6c0.3-0.4,0.7-0.9,0.9-1.3c0.3-0.4,0.6-0.8,0.8-1.1c0.3-0.3,0.6-0.6,0.8-0.8c1-1,1.5-1.5,1.5-1.5
				s-0.3,0.1-0.8,0.2c-0.3,0.1-0.5,0.1-0.8,0.3c-0.3,0.1-0.7,0.2-1.1,0.3c-0.8,0.3-1.6,0.8-2.4,1.2c-0.8,0.5-1.8,1.1-2.8,1.7
				c-2,1.3-4,2.3-5.6,3.2c-1.2,0.6-2.1,1-2.5,1.2c-0.2,0.4-0.3,0.7-0.3,0.7s-0.1-0.5-0.2-1.5c-0.1-0.5-0.1-1.1-0.1-1.8
				c0-0.7-0.1-1.5,0.1-2.4c0.1-0.9,0.2-1.8,0.3-2.9c0.2-1.1,0.5-2.2,0.8-3.3c0.8-2.3,1.8-4.7,3.3-7c1.5-2.3,3.4-4.3,5.1-5.9
				c0.9-0.8,1.8-1.5,2.7-2c0.6-0.4,1.1-0.8,1.7-1c-0.2,0-0.4,0-0.6-0.1c-0.9-0.1-1.8-0.3-2.5-0.6c-0.4-0.2-0.8-0.3-1.1-0.5
				c-0.3-0.2-0.7-0.3-0.9-0.5c-0.6-0.4-1.1-0.8-1.5-1.2s-0.7-0.7-0.9-1c-0.4-0.7-0.6-1-0.6-1s0.3,0.2,1,0.4c0.3,0.2,0.8,0.3,1.2,0.4
				s1,0.3,1.5,0.3c0.3,0.1,0.6,0.1,0.9,0.1s0.6,0,0.9,0l0,0c-0.3,0-0.6,0-0.9,0s-0.6,0-0.9-0.1c-0.6-0.1-1.1-0.2-1.5-0.3
				s-0.8-0.3-1.2-0.4s-0.6-0.3-0.8-0.3c0.1,0,0.3-0.1,0.5-0.1c0.8-0.3,2.3-1.1,3.7-1.7c1.4-0.6,3.2-1.3,5.1-2.4
				c1.9-1.1,4.1-2.4,6.1-4.4c1-1,2-2.2,2.8-3.5c0.4-0.7,0.8-1.4,1.2-2.2c0.2-0.3,0.3-0.8,0.5-1.2s0.3-0.8,0.4-1.2
				c0.7-2.1,1-4.4,1.3-6.7c0-0.1,0-0.1-0.1-0.2c-0.2,2.3-0.5,4.7-1.3,6.9c-0.2,0.4-0.3,0.8-0.4,1.2c-0.2,0.4-0.3,0.8-0.5,1.2
				c-0.4,0.8-0.8,1.5-1.2,2.2c-0.8,1.3-1.8,2.5-2.8,3.5c-2,2-4.2,3.4-6.1,4.4c-1.9,1.1-3.7,1.8-5.1,2.4s-2.5,1-3.3,1.3
				s-1.2,0.4-1.2,0.4s0.3-0.2,1.1-0.6c0.7-0.4,1.8-0.9,3.1-1.7s2.9-1.7,4.6-2.9c1.8-1.3,3.6-2.8,5.3-4.8c0.8-1,1.6-2.1,2.2-3.4
				c0.3-0.6,0.5-1.3,0.8-1.9c0.2-0.3,0.3-0.7,0.3-1s0.2-0.7,0.3-1.1c0.7-2.9,0.8-6.2,0.6-9.7c-0.2-3.5-0.6-7.3-0.6-11.4
				c0-0.5,0-1,0-1.5c0-0.5,0.1-1,0.1-1.6c0-1.1,0.3-2.1,0.4-3.2c0.1-0.5,0.3-1.1,0.3-1.6c0.2-0.5,0.3-1.1,0.5-1.6
				c0.4-1.1,0.8-2.2,1.4-3.2c0.3-0.5,0.6-1,0.9-1.5c0.3-0.5,0.7-0.9,1.1-1.4c0.8-0.9,1.6-1.7,2.5-2.4c1.8-1.4,3.8-2.4,5.8-3.2
				c2-0.8,4.1-1.1,6.2-1.3c2.1-0.1,4.1,0.1,5.9,0.4c3.8,0.7,7.1,2.2,10.1,3.9c2.8,1.7,5.3,3.6,7.4,5.4c2.1,1.8,3.9,3.4,5.6,4.7
				s3.3,2.3,4.6,2.9s2.5,1,3.3,1.3c0.8,0.2,1.2,0.3,1.2,0.3s-0.4,0-1.3-0.1c-0.8-0.1-2-0.3-3.4-0.8c-1.5-0.5-3.2-1.3-5.1-2.4
				c-1.9-1.1-3.9-2.6-6.2-4.1c-2.3-1.6-4.7-3.2-7.5-4.5c-2.8-1.3-5.9-2.4-9.2-2.8c-1.7-0.3-3.4-0.3-5-0.1c-1.7,0.2-3.4,0.6-5,1.3
				c-3.3,1.3-6.3,3.5-8,6.7c-1.8,3-2.3,6.7-2.4,10.3c0.1,0.8,0.3,1.7,0.5,2.6c0.2,0.6,0.3,1.3,0.4,1.9c0.2,0.7,0.3,1.3,0.6,2
				c0.8,2.7,1.8,5.7,3.1,8.7c1.3,3,2.5,5.9,3.9,8.3c0.8,1.1,1.4,2.3,2.2,3.3c0.3,0.5,0.8,0.9,1.2,1.3s0.8,0.8,1.2,1.2
				c1.6,1.4,3,2.4,4.2,2.9c0.5,0.3,1,0.4,1.3,0.6s0.5,0.2,0.5,0.2s-0.2,0-0.5,0s-0.8,0-1.5-0.1c-0.1,0-0.2,0-0.3,0v0.1
				c-1,0-2.4,0-4.3,0.3s-4.2,0.8-6.5,2.1c-0.8,0.4-1.7,1-2.4,1.8c0,0,0,0.1-0.1,0.1c-1,1.9-1.6,4.1-2.6,5.9c-0.1,1.8,0.7,3.3,2.1,5
				c0.9,1.3,1.8,2.5,2.8,3.7c0.8,0.9,1.3,1.1,1.2,1.8c0.1,0,0.2,0.1,0.3,0.1c0.7-0.4,1.7,0.1,1.9,0.9l0,0c1.7,0.8,4.1,1.5,5.1,1.8
				c-0.2,0.3-1.1,0.3-0.8,0.3c-0.3,0.1-0.7,0.3-1.1,0.5c-1.3,0.7-3.1,1.9-4.7,4.2c-0.3,0.6-0.8,1.2-1.1,1.8
				c-0.2,0.3-0.3,0.7-0.5,1.1c-0.1,0.2-0.2,0.3-0.3,0.6c-0.1,0.2-0.1,0.4-0.2,0.6c-0.3,0.8-0.5,1.6-0.6,2.5
				c-0.1,0.4-0.1,0.8-0.2,1.3c0,0.4,0,0.9,0,1.3c-0.1,3.6,0.8,7.5,1.8,11.2c1.2,3.8,2.5,7.2,3.7,10.3s2.3,5.9,3.2,8.3
				c0.9,2.2,1.7,3.9,2.3,5.3c-1.6-0.9-3.1-1.3-4.3-1.7c-0.7-0.3-1.2-0.5-1.8-0.7c-0.3-0.1-0.6-0.3-0.8-0.3c-0.3-0.2-0.5-0.3-0.8-0.4
				c-0.5-0.3-1.1-0.6-1.6-0.8c-0.5-0.3-0.9-0.6-1.4-0.9c-0.9-0.6-1.7-1.3-2.5-1.8c-1.5-1.1-2.4-2.3-2.8-3.3
				c-0.1-0.3-0.2-0.4-0.3-0.6c0.1-0.6,0.2-1.1,0.3-1.4c0.1-0.5,0.1-0.8,0.1-0.8s0,0-0.1,0.1c0,0.1,0,0.3-0.1,0.8
				c-0.1,0.3-0.2,0.8-0.3,1.4c0.1,0.2,0.1,0.4,0.3,0.6c0.4,1,1.3,2.1,2.8,3.3c0.8,0.6,1.5,1.3,2.5,1.8c0.4,0.3,0.9,0.6,1.4,0.9
				c0.5,0.3,1,0.5,1.6,0.8c0.3,0.2,0.5,0.3,0.8,0.4c0.3,0.1,0.6,0.3,0.8,0.3c0.6,0.3,1.2,0.5,1.8,0.7c1.3,0.4,2.8,0.8,4.4,1.8
				c1.6,0.9,3,2.3,3.9,4c0.4,0.8,0.6,1.8,0.7,2.7c0.1,0.9,0,1.8-0.2,2.5c-0.3,1.6-1,2.8-1.8,3.9c-0.4,0.5-0.8,1-1.2,1.4
				s-0.8,0.8-1.3,1.1c-1.6,1.3-2.9,2.2-3.9,2.8c-0.5,0.3-0.9,0.7-1.2,0.8c0.1,0,0.3-0.1,0.4-0.2c0.3-0.2,0.9-0.3,1.4-0.4
				c1.2-0.4,2.4-1,3.9-1.4c1.3-0.4,2.8-0.9,3.9-1.3c1-0.3,1.8-0.6,2-0.7c0.1-0.2,0.2-0.3,0.2-0.3s0,0.2-0.1,0.5
				c-0.1,0.3-0.2,0.8-0.3,1.3c-0.2,1.2-0.3,2.9-0.4,5s0.1,4.5,0.5,7.2c0.4,2.6,1.3,5.4,2.7,7.9c0.7,1.2,1.5,2.1,2.5,2.8
				s2.2,1.3,3.4,1.8c1.7,0.6,3.4,0.8,4.9,0.9c-4.2-0.9-7.8-3.8-9-8.5c-1.7-6,2-14,8.6-15.2c14.5-2.5,28.9-2.1,43.1,1.7
				c6.6,1.8,9.1,7.2,8.7,12.5c0.3-0.9,0.7-1.9,0.8-2.8c0.6-2.8,0.8-5.5,0.7-7.8c-0.1-2.3-0.3-4.1-0.7-5.4c-0.1-0.7-0.3-1.2-0.3-1.5
				c-0.1-0.3-0.1-0.5-0.1-0.5s0.1,0.1,0.2,0.3c0.1,0,0.3,0.1,0.6,0.2c0.4,0.1,0.9,0.3,1.6,0.5c1.3,0.3,2.9,0.8,4.6,1.3
				c1.7,0.4,3.3,1,4.6,1.4c0.7,0.3,1.3,0.3,1.7,0.4c0.3,0.1,0.4,0.1,0.5,0.2c-0.3-0.2-0.7-0.4-1.3-0.8c-1-0.7-2.5-1.5-4.3-2.8
				c-0.4-0.3-0.9-0.7-1.4-1.1c-0.3-0.3-0.5-0.4-0.8-0.7c-0.3-0.3-0.4-0.5-0.7-0.8c-0.9-1.1-1.8-2.5-2.1-4.2
				c-0.4-1.7-0.1-3.9,1.1-5.6c1-1.6,2.6-2.8,4.2-3.5v-0.1c-0.2,0.1-0.3,0.1-0.4,0.2c0.2-0.3,0.3-0.8,0.5-1.2
				c0.2-1.3,0.4-2.8,0.8-4.7c0.5-2.5,1-5.4,1.8-8.8s1.9-6.9,3-10.5c1.1-3.6,2-7,2.3-10.1c0.4-3,0-5.8-0.9-8
				c-0.9-2.2-2.3-3.7-3.2-4.7c-0.2-0.2-0.3-0.3-0.4-0.4c-0.1-0.1-0.2-0.1-0.3-0.2c-0.4-0.3-0.8-0.3-1.1-0.5c0.3-0.1-0.7-0.1-0.8-0.3
				c0.3-0.1,0.7-0.3,1.1-0.3c0.2-0.2,0.3-0.3,0.6-0.5c0.8-0.7,1.9-1.6,3.4-2.8c1.3-1.2,3-2.6,4.4-4.2c0.7-0.8,1.3-1.8,1.6-2.6
				c0.3-0.9,0.3-1.7,0.1-2.6c-0.1-0.4-0.3-0.9-0.6-1.4c-0.1-0.3-0.3-0.5-0.4-0.7c-0.2-0.3-0.3-0.5-0.4-0.7c-0.7-0.8-1.4-1.7-2.3-2.3
				c-1.7-1.3-3.5-2.3-5.1-3.1c-1.6-0.8-3-1.3-3.9-1.7c-0.9-0.4-1.5-0.6-1.5-0.6s0.6-0.1,1.6-0.1c-0.3,0-0.4,0-0.7,0
				c-0.4,0-0.7,0-0.9,0.1c-0.3,0-0.5,0-0.5,0s0.2-0.1,0.5-0.2c0.3-0.2,0.8-0.3,1.3-0.6c1.1-0.5,2.6-1.5,4.2-2.9
				c0.4-0.3,0.8-0.8,1.2-1.2c0.3-0.4,0.8-0.8,1.2-1.3c0.8-0.9,1.4-2.1,2.2-3.3c1.3-2.4,2.7-5.2,3.9-8.3c1-2.3,1.8-4.7,2.5-6.9
				c0.1-2.6,0.2-5.3,0.1-8c-0.2-3.8-0.6-7.5-2.4-10.7c-1.7-3.2-4.7-5.4-8-6.7c-1.7-0.7-3.4-1-5-1.3c-1.7-0.2-3.4-0.1-5,0.1
				c-3.4,0.4-6.4,1.5-9.2,2.8c-2.8,1.3-5.2,2.9-7.5,4.5c-2.3,1.6-4.3,3-6.2,4.1c-1.9,1.1-3.6,1.9-5.1,2.4c-1.5,0.5-2.7,0.7-3.4,0.8
				c-0.8,0.1-1.3,0.1-1.3,0.1s0.4-0.1,1.2-0.3c0.8-0.3,1.9-0.6,3.3-1.3c1.3-0.7,2.9-1.6,4.6-2.9c1.7-1.3,3.5-2.9,5.6-4.7
				c2.1-1.8,4.5-3.7,7.4-5.4c2.8-1.7,6.2-3.1,10.1-3.9c1.9-0.3,3.9-0.5,5.9-0.4c2.1,0.2,4.1,0.6,6.2,1.3c2,0.8,4,1.8,5.8,3.2
				c0.8,0.8,1.8,1.5,2.5,2.4c0.4,0.4,0.8,0.9,1.1,1.4c0.3,0.5,0.6,1,0.9,1.5c0.7,1,1,2.1,1.4,3.2c0.2,0.5,0.3,1.1,0.5,1.6
				c0.2,0.5,0.3,1.1,0.3,1.6c0.2,1.1,0.3,2.2,0.4,3.2c0,0.3,0,0.4,0.1,0.7c0.1,0.4,0.2,0.8,0.2,1.3c0.1,1.2,0.3,2.4,0.2,3.8
				c0,0.7,0,1.4-0.1,2.1c-0.1,0.8-0.2,1.5-0.3,2.3c-0.1,0.7-0.3,1.4-0.4,2.1c-0.1,0.8-0.1,1.6-0.2,2.3c-0.2,3.5-0.1,6.8,0.6,9.7
				c0.1,0.3,0.2,0.8,0.3,1.1c0.1,0.3,0.2,0.8,0.3,1c0.3,0.7,0.5,1.3,0.8,1.9c0.6,1.3,1.4,2.3,2.2,3.4c1.7,2,3.5,3.5,5.3,4.8
				c1.8,1.3,3.4,2.2,4.6,2.9c1.3,0.8,2.3,1.3,3.1,1.7c0.5,0.3,0.8,0.4,0.9,0.5c0.1,0,0.1,0.1,0.2,0.1c0.2,0.1,0.3,0.1,0.5,0.1
				c-0.2,0.1-0.4,0.2-0.8,0.3c0,0-0.1,0-0.1,0.1c-0.1,0.2-0.2,0.3-0.3,0.5c-0.2,0.3-0.5,0.7-0.9,1c-0.3,0.4-0.9,0.8-1.5,1.2
				c-0.3,0.2-0.6,0.3-0.9,0.5c-0.3,0.2-0.7,0.3-1.1,0.5c-0.8,0.3-1.6,0.5-2.5,0.6c-0.2,0-0.3,0-0.5,0.1v0.1c0.5,0.3,1,0.6,1.6,0.9
				c0.9,0.6,1.8,1.3,2.7,2c1.8,1.6,3.6,3.5,5.1,5.9s2.6,4.8,3.3,7c0.3,1.2,0.7,2.3,0.8,3.3c0.2,1,0.3,2,0.3,2.9
				C579.8,191.5,579.8,192.3,579.8,193z"/>
			<path class="st3" d="M557.3,230.2c0.1-0.1,0.1-0.1,0.2-0.2c0,0,0,0-0.1,0C557.4,230.1,557.3,230.2,557.3,230.2z"/>
			<path class="st3" d="M538.7,229.8c0,0.1-0.1,0.1-0.1,0.2C538.7,229.9,538.8,229.8,538.7,229.8L538.7,229.8
				C538.7,229.7,538.7,229.7,538.7,229.8z"/>
			<path class="st3" d="M578.3,192.8C578.3,192.9,578.3,192.9,578.3,192.8c0.1,0.2,0.1,0.3,0.2,0.3
				C578.4,193.1,578.4,193,578.3,192.8L578.3,192.8z"/>
			<path class="st3" d="M485,272.8c-0.1,0.1-0.2,0.1-0.3,0.2c0.1,0.2,0.3,0.3,0.5,0.7c0.3,0.5,0.9,1.3,1.6,2
				c0.4,0.3,0.8,0.8,1.2,1.2c0.4,0.4,0.8,0.8,1.4,1.3c0.5,0.5,1.1,1.1,1.6,1.7c0.6,0.6,1,1.3,1.5,2c0.5,0.8,0.9,1.4,1.3,2.2
				c0.2,0.3,0.3,0.8,0.5,1.1c0.1,0.2,0.2,0.3,0.3,0.5c0.1,0.2,0.2,0.4,0.2,0.6c0.3,0.8,0.5,1.3,0.6,2c0.1-0.7,0.3-1.3,0.6-2
				c0.1-0.2,0.2-0.4,0.2-0.6c0.1-0.2,0.2-0.3,0.3-0.5c0.2-0.3,0.3-0.8,0.5-1.1c0.3-0.8,0.8-1.4,1.3-2.2c0.5-0.7,0.9-1.4,1.5-2
				c0.5-0.6,1.1-1.2,1.6-1.7c0.6-0.6,1-0.9,1.4-1.3s0.8-0.8,1.2-1.2c0.7-0.8,1.3-1.5,1.6-2c0.1-0.1,0.1-0.2,0.2-0.2
				c-0.3-0.2-0.6-0.3-0.8-0.4C498.3,272.1,491.4,271.9,485,272.8z"/>
		</g>
		<g>
			<path class="st0" d="M537.1,157c1.1-0.5,2.6-1.5,4.2-2.9c0.4-0.3,0.8-0.8,1.2-1.2c0.3-0.4,0.8-0.8,1.2-1.3
				c0.8-0.9,1.4-2.1,2.2-3.3c1.3-2.4,2.7-5.2,3.9-8.3c1-2.3,1.8-4.7,2.5-6.9c0.1-2.6,0.2-5.3,0.1-8c-0.2-3.8-0.6-7.5-2.4-10.7
				c-1.7-3.2-4.7-5.4-8-6.7c-1.7-0.7-3.4-1-5-1.3c-1.7-0.2-3.4-0.1-5,0.1c-3.4,0.4-6.4,1.5-9.2,2.8c-2.8,1.3-5.2,2.9-7.5,4.5
				c-2.3,1.6-4.3,3-6.2,4.1c-1.7,1-3.2,1.7-4.5,2.2c0,0.2-0.1,0.3-0.3,0.3c-0.4,0.1-0.8,0.2-1.3,0.3c-1,0.3-1.8,0.4-2.5,0.5
				c-0.2,0-0.6,0-0.9,0c-1.1,0.1-2.3,0.2-3.4,0.2c-0.6,0-1.4-0.1-2.2-0.2c-0.2,0-0.3,0-0.4,0c-0.8-0.1-2-0.3-3.4-0.8
				c-1.5-0.5-3.2-1.3-5.1-2.4c-1.9-1.1-3.9-2.6-6.2-4.1c-2.3-1.6-4.7-3.2-7.5-4.5c-2.8-1.3-5.9-2.4-9.2-2.8c-1.7-0.3-3.4-0.3-5-0.1
				c-1.7,0.2-3.4,0.6-5,1.3c-3.3,1.3-6.3,3.5-8,6.7c-1.8,3-2.3,6.7-2.4,10.3c0.1,0.8,0.3,1.7,0.5,2.6c0.2,0.6,0.3,1.3,0.4,1.9
				s0.3,1.3,0.6,2c0.8,2.7,1.8,5.7,3.1,8.7c1.3,3,2.5,5.9,3.9,8.3c0.8,1.1,1.4,2.3,2.2,3.3c0.3,0.5,0.8,0.9,1.2,1.3s0.8,0.8,1.2,1.2
				c1.6,1.4,3,2.4,4.2,2.9c0.5,0.3,1,0.4,1.3,0.6s0.5,0.2,0.5,0.2s-0.2,0-0.5,0c-0.3,0-0.6,0-1-0.1l0,0c0.7,0,1,0.1,1,0.1
				s-0.5,0.3-1.5,0.6c-0.9,0.4-2.3,0.9-3.9,1.7c-1.6,0.8-3.5,1.7-5.1,3.1c-0.8,0.7-1.6,1.4-2.3,2.3c-0.2,0.2-0.3,0.4-0.4,0.7
				c-0.2,0.3-0.3,0.4-0.4,0.7c-0.3,0.5-0.5,0.9-0.6,1.4c-0.3,0.9-0.2,1.7,0.1,2.6c0.3,0.9,0.9,1.8,1.6,2.6c1.3,1.7,3,3.1,4.4,4.2
				c1.4,1.2,2.5,2.1,3.4,2.8c0.8,0.7,1.3,1.1,1.3,1.1s-0.2-0.1-0.5-0.2c-0.1,0.1-0.2,0.2-0.3,0.3c-0.3,0.3-0.8,0.6-1.3,1
				c-1,1-2.3,2.5-3.2,4.7c-0.9,2.2-1.3,4.9-0.9,8c0.3,3.1,1.3,6.5,2.3,10.1c1.1,3.6,2.3,7.1,3,10.5c0.8,3.4,1.3,6.3,1.8,8.8
				c0.5,2.8,0.8,4.9,1,6.4c1.3,0.8,2.3,2.1,3,3.5c0.4,0.8,0.6,1.8,0.7,2.7c0.1,0.9,0,1.8-0.2,2.5c-0.3,1.6-1,2.8-1.8,3.9
				c-0.4,0.5-0.8,1-1.2,1.4s-0.8,0.8-1.3,1.1c-1.6,1.3-2.9,2.2-3.9,2.8c-0.5,0.3-0.9,0.7-1.2,0.8c0.1,0,0.3-0.1,0.4-0.2
				c0.3-0.2,0.9-0.3,1.4-0.4c1.2-0.4,2.4-1,3.9-1.4c1.3-0.4,2.8-0.9,3.9-1.3c1-0.3,1.8-0.6,2-0.7c0.1-0.2,0.2-0.3,0.2-0.3
				s0,0.2-0.1,0.5c-0.1,0.3-0.2,0.8-0.3,1.3c-0.2,1.2-0.3,2.9-0.4,5s0.1,4.5,0.5,7.2c0.4,2.6,1.3,5.4,2.7,7.9
				c0.7,1.2,1.5,2.1,2.5,2.8s2.2,1.3,3.4,1.8c2.3,0.8,4.9,1.1,6.9,1c2.1,0,3.8-0.3,4.9-0.5c0.6-0.1,1-0.3,1.3-0.3
				c0.3-0.1,0.5-0.1,0.5-0.1s-0.2,0.1-0.4,0.3c-0.2,0.2-0.5,0.3-0.8,0.6c0.1,0.2,0.3,0.3,0.5,0.7c0.3,0.5,0.9,1.3,1.6,2
				c0.4,0.3,0.8,0.8,1.2,1.2c0.4,0.4,0.8,0.8,1.4,1.3c0.5,0.5,1.1,1.1,1.6,1.7c0.6,0.6,1,1.3,1.5,2c0.5,0.8,0.9,1.4,1.3,2.2
				c0.2,0.3,0.3,0.8,0.5,1.1c0.1,0.2,0.2,0.3,0.3,0.5c0.1,0.2,0.2,0.4,0.2,0.6c0.3,0.8,0.5,1.3,0.6,2c0.1-0.7,0.3-1.3,0.6-2
				c0.1-0.2,0.2-0.4,0.2-0.6c0.1-0.2,0.2-0.3,0.3-0.5c0.2-0.3,0.3-0.8,0.5-1.1c0.3-0.8,0.8-1.4,1.3-2.2c0.5-0.7,0.9-1.4,1.5-2
				c0.5-0.6,1.1-1.2,1.6-1.7c0.6-0.6,1-0.9,1.4-1.3s0.8-0.8,1.2-1.2c0.7-0.8,1.3-1.5,1.6-2c0.1-0.1,0.1-0.2,0.2-0.2
				c-0.3-0.2-0.7-0.3-1-0.5c-0.6-0.3-1-0.6-1.3-0.8c-0.3-0.2-0.4-0.3-0.4-0.3s0.2,0,0.5,0.1s0.8,0.3,1.5,0.3
				c1.3,0.3,3.2,0.5,5.4,0.7c2.3,0.1,4.9,0.1,7.8-0.5c0.7-0.1,1.4-0.3,2.1-0.5c0.7-0.3,1.3-0.5,2-0.8c1.3-0.7,2.5-1.4,3.4-2.5
				c2-2.3,3.2-5.1,3.8-7.9s0.8-5.5,0.7-7.8c-0.1-2.3-0.3-4.1-0.7-5.4c-0.1-0.7-0.3-1.2-0.3-1.5c-0.1-0.3-0.1-0.5-0.1-0.5
				s0.1,0.1,0.2,0.3c0.1,0,0.3,0.1,0.6,0.2c0.4,0.1,0.9,0.3,1.6,0.5c1.3,0.3,2.9,0.8,4.6,1.3c1.7,0.4,3.3,1,4.6,1.4
				c0.7,0.3,1.3,0.3,1.7,0.4c0.3,0.1,0.4,0.1,0.5,0.2c-0.3-0.2-0.7-0.4-1.3-0.8c-1-0.7-2.5-1.5-4.3-2.8c-0.4-0.3-0.9-0.7-1.4-1.1
				c-0.3-0.3-0.5-0.4-0.8-0.7s-0.4-0.5-0.7-0.8c-0.9-1.1-1.8-2.5-2.1-4.2c-0.4-1.7-0.1-3.9,1.1-5.6c1-1.6,2.6-2.8,4.2-3.5
				c0.2-1.4,0.5-3.4,0.9-5.7c0.5-2.5,1-5.4,1.8-8.8s1.9-6.9,3-10.5s2-7,2.3-10.1c0.4-3,0-5.8-0.9-8s-2.3-3.7-3.2-4.7
				c-0.5-0.5-0.9-0.8-1.3-1c-0.2-0.2-0.3-0.3-0.3-0.3c-0.3,0.1-0.5,0.2-0.5,0.2s0.4-0.4,1.3-1.1s1.9-1.6,3.4-2.8
				c1.3-1.2,3-2.6,4.4-4.2c0.7-0.8,1.3-1.8,1.6-2.6c0.3-0.9,0.3-1.7,0.1-2.6c-0.1-0.4-0.3-0.9-0.6-1.4c-0.1-0.3-0.3-0.5-0.4-0.7
				c-0.2-0.3-0.3-0.5-0.4-0.7c-0.7-0.8-1.4-1.7-2.3-2.3c-1.7-1.3-3.5-2.3-5.1-3.1c-1.6-0.8-3-1.3-3.9-1.7c-0.9-0.4-1.9-0.6-1.9-0.6
				c-0.1,0-0.1,0-0.1,0s0.2-0.1,0.5-0.2C536.1,157.4,536.6,157.2,537.1,157z M458.2,140.2c-4.1-2.5-6.1-5-6.6-9.9
				c-0.1-1.3,0.2-2.2,0.8-2.9c0.4-2.1,2.3-3.8,4.6-3.8c2.4,0,4.5,2,4.7,4.4c0.5,0.3,0.9,0.5,1.3,0.9c1.3,1.3,2.4,3,3.8,4.4
				c1.3,1.3,2.5,2.4,3.7,3.9c0.2,0.2,0.3,0.4,0.4,0.7c1.6,1.3,3.2,2.5,4.9,3.6c0.2,0.1,0.3,0.2,0.4,0.3c0.1,0,0.2,0,0.2,0
				c6,0,6,9.4,0,9.4c-0.9,0-1.7-0.3-2.3-0.6c-0.8,0.1-1.7-0.1-2.5-0.6c-0.3-0.2-0.5-0.3-0.8-0.5C466.4,146.6,462.7,143,458.2,140.2z
				 M523,260.6c-0.6,2.5-3.4,4.1-5.9,4.2c-2.3,0.1-3.6-0.3-5.6-0.5c-2.2-0.3-4.4-0.5-6.4-1.3c-0.2,0.1-0.3,0.1-0.5,0.1l0,0
				c-0.4,0-4.2-0.3-4.5-0.6c-4.5-0.3-5.6,0.1-10.2,0.2c-0.1,0-0.3,0-0.3,0c-2.2,0.3-4.3,0.7-6.4,1.3c-4.4,1.1-7.5,0.8-11-2
				c-2.1-1.7-1.9-3.9-0.7-5.6c-0.8-1.5-0.6-3.3,1.3-4.7c7-5.4,16.8-5.4,25.1-4.7c5,0.4,10,1.1,15,1.8c3.8,0.5,6.3,0.7,9.1,3.4
				c1.7,1.6,1.8,3.5,1,5C523.2,258.1,523.3,259.2,523,260.6z M529.8,208.1c-1.8,2.2-4.8,3.4-7.7,3.7c-0.4,0.5-0.9,1-1.7,1.3
				c-6.4,3.1-14.3,1.7-21.2,1c-8-0.8-16.1-1.2-24-2.8c-1.2-0.3-2.4-0.5-3.6-0.8c-0.3,0-0.5,0.1-0.8,0c-1.6-0.2-3-0.5-4.5-1.1
				c-1.2-0.5-2.1-1-2.8-2.2c-0.4-0.8-0.6-1.5-0.6-2.3c-0.4-0.9-0.6-2-0.6-3.4c0.1-4.4,1.5-9.7,6.8-9.9c1.8-0.1,3.1,0.8,3.9,2
				c8,2.8,16.7,3.4,25,3.7c1.8,0.1,3.4,0.2,5.2,0.3c0.4-0.3,0.9-0.5,1.4-0.7c2.8-0.8,5.7-0.8,8.5-1.6c2.1-0.6,4-1.3,6-1.9
				c3.8-1.3,7.1-1.7,10.3,1c2.3,1.9,2.2,5.8,1.2,8.5C531.3,204.5,531.2,206.4,529.8,208.1z M531.3,144.2c-0.8,0.4-1.8,0.6-2.6,0.6
				c-0.3,0.3-0.5,0.4-0.7,0.7c-2.1,1.8-5.4,3.9-8.1,4.8c-0.8,0.7-1.8,1.1-2.9,1.1h-0.2c-2.5,0-4.7-2.1-4.7-4.7c0-1.7,1-3.3,2.3-4
				c0.5-0.6,1.3-1,2.3-1.2c1.9-0.4,4.7-2.3,6-3.8c0.5-0.5,1.1-1.1,1.6-1.7c0-1.2,0.5-2.3,1.3-3.4c2.4-2.6,4.4-5.4,7.4-7.5
				c0.8-0.8,2-1.3,3.5-1.3c4,0,5.6,3.9,4.7,6.8c0,0.8-0.3,1.5-0.6,2.2C540.2,137.4,535.1,142.5,531.3,144.2z"/>
		</g>
		<path class="st4" d="M453,128.6c-0.1,0.9,0,1.9,0.2,3c0.4,2.2,1.4,4.7,3.4,6.8c1.9,2.2,4.7,4,7.8,5.8c1.6,0.8,3.2,1.7,4.7,2.4
			c1.5,0.8,3,1.4,4.4,1.9c1.4,0.5,2.8,0.8,4,0.9c0.7,0.1,1.3,0.1,1.8,0.1s0.8-0.1,1.1-0.3s0.4-0.6,0.6-1c0.1-0.4,0.2-0.9,0.1-1.3
			c0-0.8-0.3-1.7-0.5-2.3c-0.1-0.2-0.2-0.3-0.2-0.4c-0.4-0.2-0.8-0.3-1.3-0.5c-1.5-0.7-3.1-1.6-4.6-2.6c-1.5-1.1-3-2.3-4.5-3.6
			s-2.8-2.8-4.3-4.3c-2.8-2.9-5.4-5.4-8.2-6.9l-0.5-0.3l-0.5-0.2c-0.3-0.2-0.7-0.3-1.1-0.4c-0.5-0.2-1-0.3-1.4-0.4
			c-0.2,0.3-0.3,0.7-0.4,1.1C453.2,126.9,453,127.7,453,128.6z"/>
		<path class="st5" d="M454.1,124.8c0.2-0.3,0.3-0.5,0.3-0.5s-0.2,0.2-0.4,0.3c-0.1,0.1-0.3,0.2-0.3,0.3c0.1,0,0.3,0.1,0.3,0.1
			C454,125.1,454.1,124.9,454.1,124.8z"/>
		<path class="st5" d="M479.9,143.2c-0.3-0.2-0.5-0.3-0.5-0.3s0.1,0.2,0.3,0.4c0.2,0.3,0.3,0.5,0.6,0.9c0.3,0.1,0.6,0.3,0.9,0.3
			c-0.1-0.1-0.1-0.2-0.2-0.3C480.6,143.8,480.2,143.4,479.9,143.2z"/>
		<path class="st2" d="M551.2,124.8c-1.3-0.6-3.4-1.4-5.9-2.2c-1.3-0.3-2.8-0.7-4.5-0.8c-1.7-0.1-3.6,0.1-5.4,0.8
			c-0.5,0.2-0.9,0.4-1.4,0.6c-0.5,0.3-0.8,0.5-1.3,0.8c-0.8,0.6-1.6,1.1-2.3,1.8c-1.5,1.3-3,2.6-4.4,4.1c-2.8,2.8-5.4,5.7-7.8,8
			c-2.4,2.3-4.9,3.9-7.2,4.5c-2.3,0.8-4.4,0.7-5.9,0.4c-0.8-0.1-1.3-0.3-1.7-0.3c-0.4-0.1-0.6-0.2-0.6-0.2s0.2,0.1,0.5,0.3
			c0.3,0.2,0.8,0.5,1.6,0.8c1.3,0.6,3.6,1.3,6.4,1c0.7-0.1,1.3-0.2,2.1-0.3c-0.1,0.1-0.2,0.2-0.3,0.3c-0.4,0.6-0.9,1.3-1.3,2.3
			c-0.2,0.5-0.3,1.1-0.3,1.8s0.1,1.4,0.7,2.2c0.3,0.4,0.7,0.7,1.1,0.9c0.4,0.3,0.8,0.3,1.3,0.4c0.4,0.1,0.8,0.2,1.1,0.2
			c0.4,0.1,0.8,0.2,1.2,0.2c1.6,0.1,3.3-0.1,5-0.4c1.7-0.4,3.4-0.9,5.1-1.7c1.7-0.7,3.4-1.5,5-2.4c3.4-1.8,6.5-4.3,8.5-7.3
			c1.1-1.4,1.8-3.1,2.2-4.6c0.4-1.5,0.6-3,0.5-4.4c-0.1-1.3-0.3-2.5-0.7-3.5c-0.3-1-0.8-1.8-1.3-2.3c-0.3-0.4-0.6-0.8-0.8-1
			c1.6-0.3,3.2-0.3,4.6-0.2c2.5,0.2,4.7,0.5,6.1,0.8c1.5,0.2,2.3,0.3,2.3,0.3S552.6,125.5,551.2,124.8z"/>
		<path class="st1" d="M540.5,126.2c0.3,0.7,0.4,1.4,0.5,2.3c0.1,0.9,0,1.9-0.2,3c-0.4,2.2-1.4,4.7-3.4,6.8c-1.9,2.2-4.7,4-7.8,5.8
			c-1.6,0.8-3.2,1.7-4.7,2.4s-3,1.4-4.4,1.9c-1.4,0.5-2.8,0.8-4,0.9c-0.7,0.1-1.3,0.1-1.8,0.1s-0.8-0.1-1.1-0.3
			c-0.3-0.2-0.4-0.6-0.6-1c-0.1-0.4-0.2-0.9-0.1-1.3c0-0.8,0.3-1.7,0.5-2.3c0.2-0.3,0.3-0.6,0.4-0.8c2.1-0.7,4.3-1.8,6.3-3.2
			c3-2.1,5.8-4.9,8.6-7.7c1.4-1.4,2.8-2.8,4.1-3.9c0.7-0.6,1.3-1.2,2-1.7c0.7-0.5,1.2-0.9,1.8-1.2c1.1-0.5,2.2-0.8,3.4-1.1
			C540.2,125.3,540.3,125.7,540.5,126.2z"/>
		<path class="st2" d="M439.7,125.8c0,0,0.8-0.1,2.3-0.3c1.5-0.2,3.6-0.5,6.1-0.8c1.4-0.1,3-0.1,4.6,0.2c-0.3,0.3-0.5,0.6-0.8,1
			c-0.4,0.6-0.8,1.3-1.3,2.3c-0.3,1-0.6,2.2-0.7,3.5c-0.1,1.3,0.1,2.8,0.5,4.4c0.4,1.5,1.2,3.2,2.2,4.6c2,3,5.1,5.4,8.5,7.3
			c1.7,0.9,3.4,1.7,5,2.4c1.7,0.7,3.4,1.3,5.1,1.7c1.7,0.3,3.4,0.5,5,0.4c0.4,0,0.8-0.1,1.2-0.2c0.4-0.1,0.8-0.1,1.1-0.2
			c0.3-0.1,0.8-0.3,1.3-0.4c0.4-0.3,0.8-0.6,1.1-0.9c0.6-0.8,0.7-1.6,0.7-2.2c0-0.7-0.2-1.3-0.3-1.8c-0.3-1-0.8-1.8-1.3-2.3
			c-0.1-0.1-0.2-0.2-0.3-0.3c0.7,0.2,1.4,0.3,2.1,0.3c2.8,0.3,5.1-0.4,6.4-1c0.7-0.3,1.2-0.6,1.6-0.8c0.3-0.2,0.5-0.3,0.5-0.3
			s-0.2,0.1-0.6,0.2c-0.4,0.1-0.9,0.3-1.7,0.3c-1.4,0.2-3.5,0.3-5.9-0.4c-2.3-0.8-4.8-2.3-7.2-4.5c-2.4-2.3-4.9-5-7.8-8
			c-1.4-1.4-2.9-2.8-4.4-4.1c-0.8-0.6-1.6-1.2-2.3-1.8c-0.4-0.3-0.8-0.6-1.3-0.8c-0.5-0.3-1-0.5-1.4-0.6c-1.9-0.7-3.8-0.8-5.4-0.8
			c-1.7,0.1-3.2,0.4-4.5,0.8c-2.6,0.8-4.6,1.6-5.9,2.2C440.5,125.5,439.7,125.8,439.7,125.8z"/>
		<path class="st1" d="M453.1,125c1.2,0.2,2.3,0.5,3.4,1.1c0.7,0.3,1.3,0.7,1.8,1.2c0.7,0.5,1.3,1.1,2,1.7c1.3,1.3,2.7,2.6,4.1,3.9
			c2.8,2.8,5.6,5.6,8.6,7.7c2,1.5,4.2,2.6,6.3,3.2c0.2,0.3,0.3,0.5,0.4,0.8c0.3,0.6,0.4,1.3,0.5,2.3c0,0.4,0,0.9-0.1,1.3
			c-0.1,0.4-0.3,0.8-0.6,1c-0.3,0.2-0.5,0.3-1.1,0.3c-0.6,0-1.3,0-1.8-0.1c-1.3-0.2-2.6-0.5-4-0.9c-1.4-0.5-2.8-1.2-4.4-1.9
			c-1.5-0.8-3.1-1.6-4.7-2.4c-3.1-1.8-5.9-3.5-7.8-5.8c-2-2.1-3-4.6-3.4-6.8c-0.2-1.1-0.3-2.2-0.2-3c0.1-0.9,0.3-1.7,0.5-2.3
			C452.8,125.7,453,125.3,453.1,125z"/>
		<g>
			<path class="st2" d="M491.7,173.6c-1.5-0.7-3.1-1.3-4.8-1.3c-1.7-0.1-3.4,0.3-4.6,1.5c-1.5,1.5-1.8,3.8-1.9,5.9
				c0,1.3,0,2.6,0.8,3.7c0.7,0.9,1.8,1.4,2.8,1.6c1.1,0.1,2.2-0.1,3.3-0.5c1.8-0.6,3.5-1.7,4.9-3c0.6-0.6,1.1-1.2,1.5-1.9
				c0.5-1.2,0.5-2.5,0-3.7s-2.2-2.3-2.9-2.6"/>
			<g>
				<path class="st2" d="M490.7,173.1c0,0,0.2,0,0.4,0.1c0.3,0.1,0.7,0.3,1.2,0.5c0.5,0.3,1.1,0.7,1.7,1.3c0.3,0.3,0.5,0.8,0.8,1.3
					c0.1,0.5,0.3,1.1,0.3,1.7c0.1,0.6-0.1,1.3-0.3,1.9c-0.3,0.7-0.6,1.3-1,1.8c-0.8,1.1-1.8,1.9-2.9,2.8c-1.3,0.8-2.5,1.6-4.2,2
					c-0.8,0.3-1.8,0.3-2.8,0.3c-1-0.1-2.1-0.4-3-1c-1-0.6-1.8-1.7-2.2-2.8c-0.3-1.1-0.4-2-0.4-2.8c0-0.8,0.1-1.5,0.2-2.3
					c0.1-0.8,0.3-1.5,0.5-2.3c0.5-1.5,1.5-2.8,2.8-3.7s2.6-1.1,3.7-1.1c2.3,0,3.8,0.9,4.8,1.4c0.5,0.3,0.8,0.5,1.1,0.7
					c0.3,0.2,0.3,0.3,0.3,0.3s-0.2,0-0.4-0.1s-0.7-0.2-1.3-0.3c-1-0.2-2.7-0.4-4.3,0.1c-0.8,0.3-1.6,0.7-2.1,1.3s-0.8,1.3-1,2.3
					s-0.2,2.3-0.1,3.4c0,0.6,0.2,1.1,0.3,1.3c0.2,0.3,0.3,0.4,0.5,0.6c0.6,0.4,1.4,0.5,2.5,0.3c0.3,0,0.6-0.2,0.8-0.2
					c0.3-0.1,0.6-0.2,0.8-0.3c0.3-0.1,0.5-0.2,0.8-0.3c0.3-0.1,0.5-0.3,0.8-0.3c0.5-0.3,1-0.5,1.4-0.8s0.9-0.6,1.3-0.9
					c0.3-0.3,0.7-0.6,0.8-0.9c0.2-0.3,0.4-0.7,0.4-1c0.2-0.3,0.1-0.8,0.2-1.1c-0.1-0.3-0.1-0.8-0.2-1c-0.3-0.6-0.7-1.1-1-1.5
					C491.2,173.5,490.7,173.1,490.7,173.1z"/>
			</g>
		</g>
		<g>
			<path class="st2" d="M502.3,173.6c1.5-0.7,3.1-1.3,4.8-1.3c1.7-0.1,3.4,0.3,4.6,1.5c1.5,1.5,1.8,3.8,1.9,5.9c0,1.3,0,2.6-0.8,3.7
				c-0.7,0.9-1.8,1.4-2.8,1.6c-1.1,0.1-2.2-0.1-3.3-0.5c-1.8-0.7-3.6-1.7-4.9-3c-0.6-0.6-1.1-1.2-1.5-1.9c-0.5-1.2-0.5-2.5,0-3.7
				s2.2-2.3,2.9-2.6"/>
			<g>
				<path class="st2" d="M503.2,173.1c0,0-0.5,0.3-1.2,1.2c-0.3,0.4-0.8,0.9-1,1.5c-0.2,0.3-0.1,0.7-0.2,1c0.1,0.3,0,0.8,0.2,1.1
					c0.1,0.3,0.3,0.7,0.4,1c0.3,0.3,0.5,0.6,0.8,0.9c0.8,0.6,1.7,1.2,2.7,1.8c0.3,0.1,0.5,0.3,0.8,0.3c0.3,0.1,0.5,0.3,0.8,0.3
					c0.3,0.1,0.6,0.2,0.8,0.3c0.3,0.1,0.6,0.2,0.8,0.2c1.1,0.2,1.9,0.1,2.5-0.3c0.3-0.2,0.4-0.3,0.5-0.6c0.2-0.3,0.3-0.8,0.3-1.3
					c0.1-1.3,0.1-2.5-0.1-3.4c-0.2-1-0.5-1.8-1-2.3s-1.3-1-2.1-1.3c-1.6-0.4-3.2-0.3-4.3-0.1c-0.5,0.1-0.9,0.2-1.3,0.3
					c-0.3,0.1-0.4,0.1-0.4,0.1s0.2-0.1,0.3-0.3c0.3-0.2,0.6-0.4,1.1-0.7c0.9-0.6,2.4-1.4,4.8-1.4c1.1,0,2.4,0.3,3.7,1.1
					s2.3,2.3,2.8,3.7c0.3,0.8,0.4,1.5,0.5,2.3c0.1,0.8,0.2,1.4,0.2,2.3s0,1.8-0.4,2.8c-0.3,1-1.2,2.1-2.2,2.8c-1,0.6-2,0.9-3,1
					c-1,0.1-1.9-0.1-2.8-0.3c-0.4-0.1-0.8-0.3-1.2-0.4c-0.3-0.2-0.7-0.3-1.1-0.5c-0.3-0.2-0.7-0.3-1-0.6c-0.3-0.2-0.7-0.4-0.9-0.6
					c-1.2-0.9-2.2-1.8-2.9-2.8c-0.4-0.5-0.8-1.2-1-1.8c-0.2-0.7-0.3-1.3-0.3-1.9s0.2-1.2,0.3-1.7c0.3-0.5,0.4-0.9,0.8-1.3
					c0.6-0.7,1.2-1.1,1.7-1.3c0.5-0.3,0.9-0.4,1.2-0.5C503.1,173.2,503.2,173.1,503.2,173.1z"/>
			</g>
		</g>
		<path class="st4" d="M496.9,199L496.9,199c-0.1-0.1-0.3-0.1-0.3-0.1c-1.2-0.1-2.3-0.2-3.5-0.3c-1.2-0.1-2.3-0.2-3.4-0.3
			c-1.2-0.2-2.3-0.3-3.4-0.5c-1.2-0.2-2.3-0.3-3.4-0.6c-1.1-0.3-2.3-0.5-3.4-0.8l-1.7-0.4c-0.6-0.2-1.1-0.3-1.6-0.5
			c-1.1-0.3-2.2-0.7-3.2-1l-1.6-0.5c-0.3-0.1-0.5-0.2-0.8-0.3c-0.3-0.1-0.5-0.2-0.7-0.3c-0.5-0.2-0.8-0.2-1.3-0.3
			c-0.3,0-0.7,0-0.9,0.1c-0.6,0.1-1.2,0.4-1.7,1s-0.9,1.3-1.2,2c-0.2,0.3-0.3,0.8-0.3,1.3s-0.3,0.9-0.3,1.3l-0.1,1.3
			c-0.1,0.4,0,0.9,0,1.4c0,0.9,0.2,1.8,0.3,2.8c0.3,1.6,0.8,3.2,1.3,4.7c0.8,0.3,1.6,0.5,2.6,0.8c1.3,0.3,2.6,0.6,4.2,0.8
			c3.1,0.6,6.9,0.9,11.1,1.3c2.1,0.2,4.3,0.2,6.5,0.3c1.2,0.1,2.3,0.1,3.4,0.2c1.2,0,2.3,0,3.6,0c2.4,0,4.8,0.1,7,0
			c1.2,0,2.3-0.1,3.4-0.1c1.1-0.1,2.2,0,3.2-0.1c4.2-0.3,8-0.5,11.1-0.9c0.8-0.1,1.5-0.3,2.2-0.3c0.7-0.2,1.3-0.3,1.9-0.4
			c0.8-0.3,1.5-0.4,2.2-0.7c0.1-0.3,0.3-0.6,0.3-0.9c0.6-1.8,1.2-3.6,1.3-5.4c0.2-0.9,0.2-1.8,0.3-2.8c0-0.4-0.1-0.9-0.1-1.3
			l-0.1-0.7l-0.2-0.7l-0.3-1.3l-0.2-0.6c-0.1-0.2-0.2-0.3-0.3-0.6c-0.3-0.8-0.8-1.3-1.3-1.8c-1.1-0.8-2.2-0.8-4.2,0
			c-8.1,2.8-17,4.7-26.2,5.2l0,0C497.2,199,497,199,496.9,199z"/>
		<path class="st4" d="M502.3,262.5c0.5,0.1,1.1,0.2,1.8,0.2c1.3,0.1,2.8,0.4,4.4,0.7c1.7,0.3,3.4,0.5,5.4,0.7
			c2,0.2,4.3,0.4,6.2-0.4c1-0.4,1.7-1.3,2.1-2.3c0.4-1,0.5-2.3,0.5-3.5c-0.2-2.6-0.6-5.4-1.2-8.3s-1.3-6-1.7-9.3
			c-0.4-3.3-0.6-6.9,0.2-10.6c0.8-3.7,2.2-7.1,3.9-10.6c1.3-2.7,2.7-5.4,3.8-8c-0.3,0.2-0.8,0.4-1.2,0.6c-0.6,0.3-1.3,0.5-1.9,0.8
			c-0.7,0.3-1.4,0.5-2.3,0.8c-3.2,1-7,1.7-11.2,2.4c-1.1,0.3-2.2,0.3-3.3,0.4c-1.1,0.1-2.3,0.2-3.4,0.3c-2.3,0.3-4.8,0.3-7.3,0.3
			c-1.3,0-2.5,0-3.7-0.1c-1.2-0.1-2.4-0.2-3.6-0.3c-2.3-0.3-4.6-0.4-6.7-0.8c-4.3-0.7-8-1.7-11.1-2.8c-1.6-0.5-2.9-1.2-4.1-1.7
			c-0.6-0.3-1.2-0.6-1.7-0.8c1.3,3.4,3.1,6.7,4.7,10.1c1.6,3.4,3,7.1,3.5,10.8c0.3,1.8,0.3,3.7,0.3,5.4s-0.3,3.5-0.5,5.1
			c-0.5,3.2-1.2,6.1-1.7,9c0.3-0.3,0.6-0.5,1-0.9c0.5-0.4,1.2-0.8,2-1.4c0.4-0.3,0.8-0.5,1.3-0.8c0.5-0.3,1-0.4,1.6-0.7
			c2.3-0.9,4.9-1.5,8-2.2c0.8-0.2,1.6-0.3,2.3-0.3c0.8-0.1,1.7-0.2,2.5-0.3c1.7-0.3,3.4-0.3,5.3-0.2c0.9,0,1.8,0,2.7,0.1
			c0.8,0.1,1.8,0.2,2.6,0.3c1.7,0.3,3.4,0.3,4.9,0.7c3.1,0.6,5.8,1.5,8,2.4c1.1,0.4,2,1,2.8,1.4c0.8,0.5,1.5,0.9,2,1.3
			c1,0.8,1.6,1.3,1.6,1.3s-0.7-0.3-1.9-0.7c-0.6-0.2-1.3-0.4-2.3-0.7c-0.9-0.2-1.8-0.5-3-0.7c-2.2-0.4-4.9-0.7-7.9-0.9
			c-1.5-0.1-3.1-0.1-4.7-0.2c-0.8,0-1.6-0.1-2.4-0.1s-1.7,0-2.5,0c-1.7,0-3.4-0.1-5,0c-0.8,0-1.6,0-2.3,0.1c-0.8,0-1.5,0-2.3,0.1
			c-2.9,0.3-5.7,0.3-7.9,0.7c-0.6,0.1-1.1,0.2-1.6,0.3s-0.9,0.3-1.4,0.3c-0.8,0.3-1.6,0.5-2.2,0.8c-0.6,0.3-1.1,0.5-1.4,0.6v0.1
			c-0.3,1.5-0.5,2.9-0.7,4.3c-0.2,1.4-0.3,2.8-0.2,3.9c0.1,1.3,0.5,2.3,1.2,3.2c0.8,0.8,1.8,1.3,2.8,1.4c1.1,0.3,2.2,0.2,3.3,0.1
			c1.1-0.1,2.2-0.3,3.2-0.3c2-0.3,3.9-0.6,5.5-0.9c0.8-0.2,1.6-0.3,2.3-0.3c0.8-0.1,1.4-0.2,2.1-0.3c1.3,0,2.4,0,3.3,0
			c1.8,0,2.7,0,2.7,0s0.9,0,2.7,0.1C501.2,262.5,501.7,262.5,502.3,262.5z"/>
		<path class="st5" d="M497.3,199c-0.1,0-0.1,0-0.2,0s-0.1,0-0.2,0l0,0h-0.1l0,0C497,199,497.2,199,497.3,199L497.3,199
			C497.4,198.9,497.3,198.9,497.3,199L497.3,199z"/>
		<path class="st5" d="M465.8,209.2c-0.2-0.1-0.4-0.1-0.6-0.2c-1.7-0.6-2.7-0.9-2.7-0.9s0.8,0.6,2.3,1.5c0.4,0.2,0.8,0.4,1.3,0.7
			c-0.1-0.2-0.1-0.3-0.2-0.4C465.9,209.7,465.9,209.5,465.8,209.2z"/>
		<path class="st5" d="M529.4,210.2c1.5-1.1,2.3-1.7,2.3-1.7s-0.9,0.4-2.6,1.1c-0.3,0.1-0.6,0.2-0.9,0.3c-0.2,0.4-0.3,0.8-0.5,1.3
			C528.4,210.8,528.9,210.5,529.4,210.2z"/>
		<path class="st5" d="M472.5,251c0-0.1,0-0.2,0.1-0.3c-0.3,0.3-0.5,0.5-0.5,0.5S472.2,251.2,472.5,251z"/>
		<g>
			<path class="st2" d="M376.2,226.8c0,0-0.6-0.5-1.7-1.4c-0.6-0.4-1.2-1.1-1.8-1.8c-0.8-0.8-1.4-1.8-2.3-2.8
				c-1.5-2.3-3.1-5.3-4.2-9c-1.1-3.8-1.8-8.1-1.7-13.1c0.1-9.8,3.4-21.6,10.8-32.3c1.8-2.7,4-5.3,6.4-7.8c2.3-2.4,4.9-4.8,7.5-7.1
				c5.1-4.7,10.5-9.3,14.6-15c2-2.8,3.7-5.9,4.8-9c0.3-0.8,0.4-1.6,0.7-2.4c0.3-0.8,0.3-1.6,0.5-2.4c0.3-1.6,0.4-3.3,0.4-4.9
				c0.1-3.4,0-6.8,0.2-10.1l0.1-1.3l0.1-1.3l0.1-1.3c0-0.4,0.2-0.9,0.2-1.3c0.3-1.8,0.9-3.5,1.8-5c1.6-3.1,3.9-5.6,6.4-7.5
				c1.3-1,2.5-1.8,3.9-2.7c1.3-0.8,2.6-1.4,3.9-2.1c1.3-0.7,2.5-1.3,3.8-1.8c1.3-0.6,2.5-1.1,3.7-1.6c2.4-1,4.7-2,6.9-3
				c2.2-1,4.2-2,6.1-2.9c1.9-1,3.7-2,5.4-2.9c1.7-0.9,3.3-1.8,4.7-2.5c1.4-0.8,2.8-1.5,3.9-2.3c2.2-1.5,3.5-3.1,4.1-4.4
				c0.3-0.6,0.5-1.2,0.6-1.5c0.1-0.3,0.2-0.5,0.2-0.5s0,0.2-0.1,0.5c-0.1,0.3-0.2,0.9-0.4,1.6c-0.5,1.3-1.8,3.1-3.9,4.9
				c-1.1,0.8-2.3,1.7-3.7,2.6c-1.3,0.8-2.8,1.8-4.5,2.8c-1.6,1-3.4,2.1-5.2,3.3c-1.9,1.1-3.9,2.3-6,3.4c-2.2,1.1-4.4,2.2-6.8,3.4
				c-1.2,0.6-2.3,1.2-3.6,1.8c-1.2,0.6-2.3,1.3-3.6,2c-1.2,0.7-2.5,1.3-3.6,2.1c-1.2,0.8-2.3,1.6-3.4,2.6c-2.2,1.8-4,4.1-5.3,6.6
				c-0.6,1.3-1.1,2.7-1.3,4.1c-0.1,0.3-0.1,0.7-0.2,1.1l-0.1,1.2l-0.1,1.2v1.2c-0.1,3.2,0.2,6.6,0.1,10.1c0,1.8-0.2,3.6-0.4,5.4
				c-0.2,0.9-0.3,1.8-0.5,2.8c-0.3,0.9-0.5,1.8-0.8,2.8c-1.2,3.6-3,7-5.3,10.1c-4.5,6.2-10.1,11-15.2,15.6c-2.6,2.3-5.1,4.5-7.4,6.8
				c-2.3,2.3-4.4,4.7-6.2,7.1c-7.4,9.9-11.1,20.9-11.6,30.3c-0.3,4.7,0,9,0.8,12.6c0.8,3.7,2.1,6.6,3.4,9c0.8,1.1,1.3,2.2,2,2.9
				c0.7,0.8,1.2,1.5,1.7,2C375.7,226.3,376.2,226.8,376.2,226.8z"/>
		</g>
		<g>
			<path class="st2" d="M381.2,208.1c0,0-0.3,0.3-0.7,0.8c-0.4,0.4-1.1,1.2-1.7,1.9c-1.3,1.7-2.6,4.1-3.4,6.8
				c-0.3,1.3-0.5,2.6-0.5,3.9s0.2,2.3,0.5,3.4c0.3,0.9,0.8,1.8,1.1,2.3c0.3,0.5,0.6,0.8,0.6,0.8s-0.3-0.1-1-0.3
				c-0.6-0.3-1.5-0.7-2.4-1.6c-0.9-0.9-1.8-2.2-2.3-3.9c-0.5-1.7-0.6-3.7-0.1-5.6c0.5-1.9,1.5-3.6,2.7-4.8c1.2-1.3,2.4-2,3.5-2.6
				c1.1-0.5,2.1-0.8,2.7-0.8C380.8,208.1,381.2,208.1,381.2,208.1z"/>
		</g>
		<g>
			<path class="st2" d="M372.7,239.5c0,0,0.1-0.1,0.3-0.2c0.3-0.1,0.6-0.3,1-0.5c0.8-0.5,2-1.2,3.3-2.2c1.3-1,2.8-2.3,3.9-3.9
				c1.1-1.5,1.8-3.4,2.1-5.6c0.2-1.1,0.1-2.1-0.1-3.1s-0.4-1.9-0.8-2.8c-0.8-1.8-1.8-3.5-2.8-4.9c-0.9-1.3-1.8-2.4-2.3-3.2
				c-0.6-0.8-0.9-1.2-0.9-1.2s0.5,0.3,1.3,0.7s2.1,1.2,3.5,2.3s3,2.5,4.4,4.6c0.3,0.5,0.7,1.1,0.9,1.8c0.3,0.6,0.5,1.3,0.7,2
				c0.3,1.4,0.5,2.8,0.3,4.4c-0.3,3-1.8,5.7-3.6,7.5c-1.8,1.8-3.9,2.7-5.5,3.4c-1.7,0.6-3.1,0.8-4.1,0.9c-0.5,0.1-0.8,0-1.2,0
				C372.9,239.5,372.7,239.5,372.7,239.5z"/>
		</g>
		<g>
			<path class="st2" d="M395.8,234.5c0,0-0.1,0.3-0.4,1c-0.3,0.7-0.8,1.5-1.5,2.5c-0.8,0.9-1.8,2.1-3.4,2.9
				c-1.4,0.9-3.2,1.6-5.1,1.8c-3.9,0.6-7.2-0.4-9.4-1.3c-1.1-0.5-1.9-0.9-2.5-1.3c-0.6-0.3-0.8-0.6-0.8-0.6s0.4-0.1,1-0.1
				c0.7,0,1.6-0.1,2.8-0.2c2.3-0.2,5.3-0.3,8.4-0.8c1.5-0.3,2.9-0.5,4.3-0.9c1.3-0.3,2.4-0.8,3.4-1.3c1-0.5,1.8-0.9,2.3-1.3
				C395.5,234.7,395.8,234.5,395.8,234.5z"/>
		</g>
		<g>
			<path class="st2" d="M409.7,265.9c0,0-0.5-0.1-1.3-0.3c-0.9-0.2-2.2-0.7-3.7-1.3c-0.8-0.3-1.6-0.8-2.4-1.3
				c-0.4-0.3-0.8-0.5-1.3-0.8c-0.4-0.3-0.8-0.7-1.3-1c-1.7-1.4-3.4-3.2-4.8-5.4c-1.3-2.2-2.3-4.5-2.8-6.7c-0.4-2.2-0.6-4.2-0.4-5.9
				c0-0.8,0.2-1.6,0.3-2.3c0.1-0.3,0.1-0.6,0.2-0.9c0.1-0.3,0.2-0.5,0.3-0.8c0.3-0.8,0.4-1.3,0.4-1.3s0.1,0.5,0.3,1.4
				c0,0.3,0.1,0.5,0.1,0.8c0.1,0.3,0.1,0.6,0.2,0.8c0.1,0.6,0.3,1.3,0.5,2c0.3,1.5,1,3.2,1.8,4.9c0.8,1.8,1.8,3.7,3,5.5
				c2.3,3.8,5.1,6.9,7.4,9c1.1,1.1,2.1,1.9,2.8,2.5C409.2,265.5,409.7,265.9,409.7,265.9z"/>
		</g>
		<g>
			<path class="st2" d="M417.4,243.2c0,0-0.3,0.3-0.8,0.8c-0.2,0.1-0.3,0.3-0.4,0.3c-0.2,0.2-0.3,0.3-0.5,0.5
				c-0.3,0.3-0.8,0.7-1.1,1.2c-0.2,0.3-0.4,0.4-0.6,0.7s-0.4,0.5-0.6,0.8c-0.2,0.3-0.4,0.5-0.6,0.8c-0.2,0.3-0.4,0.6-0.6,0.9
				c-0.8,1.3-1.3,2.7-1.8,4.1c-0.9,2.9-1.1,6.2-1.1,8.5c0,0.6,0,1.2,0.1,1.6c0,0.5,0.1,0.9,0.1,1.3c0.1,0.7,0.2,1.1,0.2,1.1
				s-0.3-0.3-0.8-0.8c-0.3-0.3-0.5-0.7-0.8-1.1s-0.6-0.9-0.8-1.5c-0.2-0.3-0.3-0.6-0.4-0.9c-0.2-0.3-0.3-0.7-0.3-1.1
				c-0.3-0.8-0.4-1.6-0.6-2.4c-0.3-1.8-0.3-3.8,0.4-5.9c0.7-2.1,1.8-3.8,3.1-5c0.7-0.6,1.3-1.2,2-1.6c0.3-0.3,0.7-0.4,1-0.6
				c0.3-0.2,0.7-0.3,0.9-0.4c0.6-0.3,1.2-0.5,1.7-0.6c0.3-0.1,0.5-0.2,0.7-0.2c0.3,0,0.4-0.1,0.6-0.1
				C417,243.3,417.4,243.2,417.4,243.2z"/>
		</g>
		<g>
			<path class="st2" d="M406.2,283.5c0,0,0.2,0,0.4,0s0.6-0.2,1-0.5c0.3-0.3,0.8-0.8,1.2-1.4s0.9-1.3,1.4-2.1
				c0.3-0.4,0.5-0.8,0.8-1.3c0.3-0.4,0.5-0.9,0.8-1.3c0.3-0.4,0.6-0.9,0.8-1.4c0.3-0.5,0.6-1,0.8-1.6c1.1-2.2,1.9-4.5,2.5-7.1
				c1.2-5,0.2-10.1-1.2-13.4c-0.7-1.7-1.4-3-2-3.9c-0.3-0.5-0.5-0.8-0.7-1c-0.2-0.3-0.3-0.3-0.3-0.3s0.2,0.1,0.3,0.3
				c0.3,0.2,0.7,0.3,1.1,0.7c0.9,0.7,2.1,1.8,3.4,3.4c1.3,1.6,2.4,3.8,3.2,6.4c0.4,1.3,0.6,2.8,0.7,4.3c0.1,1.5,0,3.2-0.4,4.7
				c-0.7,3.1-2.1,5.9-3.6,8c-0.4,0.6-0.8,1.1-1.2,1.5c-0.4,0.5-0.8,0.9-1.2,1.3s-0.8,0.8-1.2,1.2c-0.4,0.3-0.8,0.7-1.2,1
				c-0.8,0.7-1.5,1.2-2.1,1.6s-1.2,0.8-1.8,1.1c-0.6,0.2-1.1,0.3-1.3,0.2C406.4,283.6,406.2,283.5,406.2,283.5z"/>
		</g>
		<g>
			<path class="st2" d="M434,268.9c0,0,0,0.5-0.1,1.4c0,0.4,0,1-0.2,1.7c-0.1,0.3-0.2,0.7-0.3,1c-0.1,0.2-0.1,0.3-0.2,0.6
				c-0.1,0.2-0.2,0.3-0.3,0.6c-0.3,0.8-0.7,1.7-1.2,2.5c-0.3,0.4-0.5,0.9-0.8,1.3s-0.7,0.8-1.1,1.3c-1.5,1.7-3.6,3.2-5.9,4.3
				c-2.3,1.1-4.8,1.6-7,1.8c-1.1,0.1-2.2,0.1-3.1,0c-0.5,0-0.9-0.1-1.4-0.1c-0.4-0.1-0.8-0.2-1.3-0.2c-0.8-0.1-1.5-0.3-2.2-0.5
				c-0.3-0.1-0.6-0.2-0.8-0.3c-0.3-0.1-0.5-0.2-0.8-0.3c-0.8-0.3-1.3-0.5-1.3-0.5s0.5-0.1,1.4-0.2c0.3,0,0.5,0,0.8-0.1
				c0.3,0,0.6-0.1,0.8-0.1c0.6-0.1,1.3-0.2,2.1-0.3c0.3-0.1,0.8-0.2,1.2-0.2c0.4-0.1,0.8-0.2,1.3-0.3c0.8-0.2,1.8-0.4,2.7-0.7
				c1.8-0.6,3.9-1.3,5.9-2.1c2-0.9,3.8-1.9,5.3-3c0.3-0.3,0.8-0.6,1.1-0.8s0.7-0.6,0.9-0.9c0.7-0.6,1.2-1.2,1.6-1.8
				c0.1-0.2,0.3-0.3,0.3-0.4s0.2-0.3,0.3-0.4c0.2-0.3,0.4-0.6,0.6-0.8c0.4-0.5,0.6-1,0.8-1.3C433.7,269.3,434,268.9,434,268.9z"/>
		</g>
		<g>
			<path class="st2" d="M461.2,303.1c0,0-0.6-0.1-1.7-0.3c-1.1-0.2-2.7-0.5-4.6-1c-0.9-0.3-2-0.6-3.1-1c-0.6-0.3-1.1-0.4-1.7-0.7
				s-1.2-0.5-1.8-0.8c-2.4-1.2-5-2.6-7.4-4.7s-4.4-4.4-5.8-6.8c-1.3-2.4-2.3-4.7-2.6-6.8c-0.1-0.5-0.2-1-0.3-1.4
				c0-0.5-0.1-0.9-0.1-1.3s0-0.8-0.1-1.1c0-0.3,0.1-0.7,0.1-0.9c0.1-1.1,0.2-1.8,0.2-1.8s0.2,0.6,0.5,1.7c0.1,0.3,0.2,0.6,0.3,0.8
				c0.1,0.3,0.3,0.7,0.4,1s0.3,0.8,0.4,1.1c0.2,0.4,0.4,0.8,0.6,1.2c0.8,1.7,2.1,3.5,3.6,5.4c1.5,1.9,3.4,3.7,5.5,5.5
				c4.3,3.6,8.8,6.4,12.1,8.5c1.7,1,3,1.8,3.9,2.4C460.7,302.8,461.2,303.1,461.2,303.1z"/>
		</g>
		<g>
			<path class="st2" d="M486.4,332.6c0,0,0-0.3-0.1-0.7c0-0.4-0.2-1.1-0.3-1.9c-0.4-1.7-1.5-3.9-3.5-6.2c-1-1.2-2.2-2.3-3.5-3.4
				c-1.4-1.1-2.9-2.3-4.6-3.4s-3.5-2.4-5.3-3.8c-0.9-0.8-1.8-1.5-2.8-2.3c-0.9-0.8-1.8-1.7-2.7-2.6c-3.4-3.7-5.9-7.9-7.5-11.9
				c-1.5-4.1-2.2-8-2.3-11.2s0.3-5.9,0.7-7.5c0.2-0.8,0.4-1.5,0.5-2c0.2-0.4,0.2-0.7,0.2-0.7s0,0.3,0,0.7c0,0.5-0.1,1.2,0,2
				c0,1.8,0.2,4.3,0.8,7.3c0.6,3,1.7,6.4,3.4,10c1.8,3.5,4.2,7.1,7.3,10.5c0.8,0.8,1.6,1.6,2.3,2.3c0.8,0.8,1.7,1.4,2.5,2.2
				c1.7,1.4,3.4,2.8,4.9,4.2c1.6,1.3,3,2.8,4.4,4.1c1.3,1.4,2.4,2.8,3.3,4.3c1.7,2.8,2.3,5.5,2.4,7.3c0,0.9-0.1,1.6-0.1,2.1
				C486.4,332.4,486.4,332.6,486.4,332.6z"/>
		</g>
		<g>
			<path class="st2" d="M618.1,226.8c0,0,0.5-0.5,1.5-1.5c0.5-0.5,1-1.2,1.7-2c0.7-0.8,1.3-1.8,2-2.9c1.3-2.3,2.6-5.3,3.4-9
				s1.2-8,0.8-12.6c-0.6-9.4-4.3-20.4-11.6-30.3c-1.8-2.4-3.9-4.9-6.2-7.1c-2.3-2.3-4.8-4.5-7.4-6.8c-5.1-4.5-10.7-9.3-15.2-15.6
				c-2.3-3.1-4.1-6.5-5.3-10.1c-0.3-0.9-0.5-1.8-0.8-2.8c-0.3-0.9-0.3-1.8-0.5-2.8c-0.3-1.8-0.4-3.7-0.4-5.4
				c-0.1-3.6,0.2-7,0.1-10.1v-1.2l-0.1-1.2l-0.1-1.2c0-0.4-0.1-0.8-0.2-1.1c-0.3-1.4-0.7-2.8-1.3-4.1c-1.3-2.6-3.1-4.8-5.3-6.6
				c-1.1-0.9-2.2-1.8-3.4-2.6c-1.2-0.8-2.4-1.4-3.6-2.1c-1.3-0.7-2.3-1.3-3.6-2c-1.2-0.6-2.4-1.2-3.6-1.8c-2.3-1.2-4.6-2.3-6.8-3.4
				c-2.2-1.2-4.1-2.3-6-3.4c-1.8-1.2-3.6-2.3-5.2-3.3c-1.6-1-3.1-2-4.5-2.8s-2.7-1.7-3.7-2.6c-2.1-1.8-3.4-3.5-3.9-4.9
				c-0.3-0.7-0.3-1.2-0.4-1.6c-0.1-0.3-0.1-0.5-0.1-0.5s0.1,0.2,0.2,0.5c0.1,0.3,0.3,0.8,0.6,1.5c0.6,1.3,1.9,2.8,4.1,4.4
				c1.1,0.8,2.3,1.5,3.9,2.3c1.4,0.8,3,1.6,4.7,2.5c1.7,0.9,3.4,1.9,5.4,2.9c1.9,0.9,3.9,1.9,6.1,2.9c2.2,0.9,4.5,1.9,6.9,3
				c1.2,0.5,2.4,1.1,3.7,1.6c1.3,0.6,2.5,1.3,3.8,1.8c1.3,0.7,2.6,1.3,3.9,2.1c1.3,0.8,2.6,1.7,3.9,2.7c2.4,2,4.8,4.4,6.4,7.5
				c0.8,1.6,1.4,3.3,1.8,5c0.1,0.4,0.2,0.9,0.2,1.3l0.1,1.3l0.1,1.3l0.1,1.3c0.2,3.4,0,6.9,0.2,10.1c0.1,1.7,0.2,3.4,0.4,4.9
				c0.2,0.8,0.3,1.6,0.5,2.4c0.3,0.8,0.4,1.6,0.7,2.4c1.1,3.2,2.7,6.2,4.8,9c4.1,5.7,9.5,10.3,14.6,15c2.6,2.3,5.1,4.7,7.5,7.1
				c2.3,2.4,4.5,5.1,6.4,7.8c7.5,10.7,10.8,22.5,10.8,32.3c0.1,4.9-0.6,9.3-1.7,13.1s-2.7,6.7-4.2,9c-0.8,1.1-1.5,2.1-2.3,2.8
				c-0.8,0.8-1.3,1.4-1.8,1.8C618.7,226.3,618.1,226.8,618.1,226.8z"/>
		</g>
		<g>
			<path class="st2" d="M613.1,208.1c0,0,0.3,0,1,0.1c0.7,0.1,1.6,0.3,2.7,0.8c1.1,0.5,2.3,1.3,3.5,2.6s2.2,2.8,2.7,4.8
				c0.5,1.9,0.4,3.9-0.1,5.6s-1.3,3-2.3,3.9c-0.9,0.9-1.8,1.3-2.4,1.6c-0.7,0.3-1,0.3-1,0.3s0.3-0.3,0.6-0.8s0.8-1.3,1.1-2.3
				c0.3-0.9,0.5-2.1,0.5-3.4s-0.2-2.5-0.5-3.9c-0.7-2.7-2-5-3.4-6.8c-0.7-0.8-1.3-1.5-1.7-1.9C613.4,208.3,613.1,208.1,613.1,208.1z
				"/>
		</g>
		<g>
			<path class="st2" d="M621.5,239.5c0,0-0.2,0-0.4,0s-0.7,0-1.2,0c-1-0.1-2.4-0.3-4.1-0.9c-1.7-0.6-3.7-1.5-5.5-3.4
				c-1.8-1.8-3.4-4.4-3.6-7.5c-0.2-1.5,0-3,0.3-4.4c0.3-0.7,0.3-1.3,0.7-2c0.3-0.6,0.6-1.3,0.9-1.8c1.4-2.1,3-3.5,4.4-4.6
				c1.4-1.1,2.6-1.8,3.5-2.3c0.8-0.4,1.3-0.7,1.3-0.7s-0.3,0.4-0.9,1.2c-0.6,0.8-1.4,1.8-2.3,3.2s-2,3-2.8,4.9
				c-0.4,0.9-0.7,1.8-0.8,2.8c-0.1,1-0.2,2-0.1,3.1c0.2,2.1,1,4,2.1,5.6c1.1,1.5,2.6,2.8,3.9,3.9c1.3,1,2.4,1.7,3.3,2.2
				c0.4,0.3,0.8,0.3,1,0.5C621.4,239.4,621.5,239.5,621.5,239.5z"/>
		</g>
		<g>
			<path class="st2" d="M598.4,234.5c0,0,0.3,0.2,0.9,0.5c0.5,0.3,1.4,0.8,2.3,1.3c1,0.4,2.2,0.9,3.4,1.3c1.3,0.4,2.7,0.7,4.3,0.9
				c3,0.5,6,0.7,8.4,0.8c1.2,0.1,2.1,0.1,2.8,0.2c0.7,0,1,0.1,1,0.1s-0.3,0.3-0.8,0.6c-0.6,0.3-1.4,0.8-2.5,1.3
				c-2.2,0.9-5.5,1.9-9.4,1.3c-1.9-0.3-3.7-0.9-5.1-1.8c-1.4-0.8-2.5-2-3.4-2.9c-0.8-1-1.3-1.8-1.5-2.5
				C598.5,234.9,598.4,234.5,598.4,234.5z"/>
		</g>
		<g>
			<path class="st2" d="M584.6,265.9c0,0,0.4-0.3,1.1-0.9c0.7-0.6,1.7-1.4,2.8-2.5c2.3-2.2,4.9-5.3,7.4-9c1.2-1.9,2.2-3.8,3-5.5
				c0.8-1.8,1.4-3.5,1.8-4.9c0.3-0.8,0.3-1.4,0.5-2c0.1-0.3,0.2-0.6,0.2-0.8c0-0.3,0.1-0.5,0.1-0.8c0.2-0.9,0.3-1.4,0.3-1.4
				s0.2,0.5,0.4,1.3c0.1,0.3,0.2,0.5,0.3,0.8c0.1,0.3,0.1,0.6,0.2,0.9c0.2,0.7,0.3,1.4,0.3,2.3c0.2,1.7,0,3.7-0.4,5.9
				c-0.5,2.2-1.4,4.5-2.8,6.7c-1.3,2.2-3.1,4-4.8,5.4c-0.4,0.3-0.8,0.7-1.3,1c-0.4,0.3-0.8,0.6-1.3,0.8c-0.8,0.6-1.7,0.9-2.4,1.3
				c-1.5,0.7-2.8,1.1-3.7,1.3C585.1,265.7,584.6,265.9,584.6,265.9z"/>
		</g>
		<g>
			<path class="st2" d="M576.9,243.2c0,0,0.4,0,1.1,0.1c0.2,0,0.4,0.1,0.6,0.1c0.3,0.1,0.4,0.1,0.7,0.2c0.5,0.2,1.1,0.3,1.7,0.6
				c0.3,0.2,0.6,0.3,0.9,0.4c0.3,0.2,0.7,0.4,1,0.6c0.7,0.4,1.3,1,2,1.6c1.3,1.3,2.4,3,3.1,5c0.8,2.1,0.7,4.2,0.4,5.9
				c-0.2,0.8-0.3,1.7-0.6,2.4c-0.1,0.3-0.3,0.8-0.3,1.1c-0.2,0.3-0.3,0.7-0.4,0.9c-0.3,0.6-0.6,1.1-0.8,1.5s-0.5,0.8-0.8,1.1
				c-0.5,0.6-0.8,0.8-0.8,0.8s0.1-0.4,0.2-1.1c0.1-0.3,0.1-0.8,0.1-1.3c0-0.5,0.1-1,0.1-1.6c0-2.3-0.2-5.6-1.1-8.5
				c-0.5-1.5-1.2-2.8-1.8-4.1c-0.2-0.3-0.4-0.6-0.6-0.9c-0.2-0.3-0.3-0.6-0.6-0.8c-0.2-0.3-0.4-0.5-0.6-0.8
				c-0.2-0.3-0.4-0.5-0.6-0.7c-0.3-0.5-0.8-0.8-1.1-1.2c-0.2-0.2-0.3-0.3-0.5-0.5c-0.2-0.2-0.3-0.3-0.4-0.3
				C577.2,243.6,576.9,243.2,576.9,243.2z"/>
		</g>
		<g>
			<path class="st2" d="M588.1,283.5c0,0-0.1,0.1-0.4,0.2c-0.3,0.1-0.8,0.1-1.3-0.2c-0.6-0.2-1.2-0.6-1.8-1.1
				c-0.6-0.5-1.3-1-2.1-1.6c-0.3-0.3-0.8-0.7-1.2-1c-0.4-0.4-0.8-0.8-1.2-1.2s-0.8-0.8-1.2-1.3c-0.4-0.5-0.8-1-1.2-1.5
				c-1.5-2.2-2.9-4.9-3.6-8c-0.4-1.5-0.5-3.2-0.4-4.7s0.3-2.9,0.7-4.3c0.8-2.7,1.9-4.8,3.2-6.4c1.3-1.6,2.4-2.7,3.4-3.4
				c0.4-0.3,0.8-0.5,1.1-0.7s0.3-0.3,0.3-0.3s-0.1,0.1-0.3,0.3c-0.2,0.3-0.4,0.6-0.7,1c-0.6,0.9-1.3,2.3-2,3.9
				c-1.3,3.4-2.3,8.4-1.2,13.4c0.6,2.6,1.4,4.9,2.5,7.1c0.3,0.5,0.6,1,0.8,1.6c0.3,0.5,0.5,1,0.8,1.4c0.3,0.5,0.6,0.9,0.8,1.3
				s0.6,0.8,0.8,1.3c0.5,0.8,1,1.5,1.4,2.1c0.4,0.7,0.8,1.2,1.2,1.4c0.3,0.3,0.8,0.5,1,0.5C587.9,283.5,588.1,283.5,588.1,283.5z"/>
		</g>
		<g>
			<path class="st2" d="M560.4,268.9c0,0,0.3,0.4,0.7,1.3c0.3,0.4,0.4,0.8,0.8,1.3c0.2,0.3,0.3,0.5,0.6,0.8c0.1,0.2,0.2,0.3,0.3,0.4
				s0.3,0.3,0.3,0.4c0.5,0.6,1,1.2,1.6,1.8c0.3,0.3,0.6,0.6,0.9,0.9c0.3,0.3,0.7,0.6,1.1,0.8c1.5,1.1,3.3,2.1,5.3,3
				c2,0.9,4,1.6,5.9,2.1c0.9,0.3,1.8,0.5,2.7,0.7c0.4,0.1,0.8,0.2,1.3,0.3c0.4,0.1,0.8,0.2,1.2,0.2c0.8,0.2,1.4,0.3,2.1,0.3
				c0.3,0.1,0.6,0.1,0.8,0.1s0.5,0.1,0.8,0.1c0.9,0.1,1.4,0.2,1.4,0.2s-0.4,0.2-1.3,0.5c-0.3,0.1-0.4,0.2-0.8,0.3
				c-0.3,0.1-0.6,0.2-0.8,0.3c-0.6,0.2-1.3,0.3-2.2,0.5c-0.4,0.1-0.8,0.2-1.3,0.2c-0.4,0.1-0.9,0.1-1.4,0.1c-1,0.1-2,0-3.1,0
				c-2.2-0.2-4.6-0.8-7-1.8c-2.3-1.1-4.4-2.6-5.9-4.3c-0.3-0.4-0.8-0.8-1.1-1.3c-0.3-0.4-0.6-0.9-0.8-1.3c-0.6-0.8-0.8-1.8-1.2-2.5
				c-0.1-0.2-0.2-0.4-0.3-0.6s-0.1-0.4-0.2-0.6c-0.1-0.3-0.2-0.7-0.3-1c-0.2-0.7-0.2-1.2-0.2-1.7
				C560.4,269.4,560.4,268.9,560.4,268.9z"/>
		</g>
		<g>
			<path class="st2" d="M533.1,303.1c0,0,0.5-0.3,1.5-0.9c0.9-0.6,2.3-1.4,3.9-2.4c3.3-2,7.8-4.9,12.1-8.5c2.1-1.8,4-3.7,5.5-5.5
				c1.5-1.9,2.8-3.7,3.6-5.4c0.2-0.4,0.4-0.8,0.6-1.2c0.2-0.4,0.3-0.8,0.4-1.1c0.2-0.3,0.3-0.7,0.4-1c0.1-0.3,0.2-0.6,0.3-0.8
				c0.3-1.1,0.5-1.7,0.5-1.7s0.1,0.6,0.2,1.8c0,0.3,0.1,0.6,0.1,0.9c0,0.3,0,0.8-0.1,1.1c0,0.4-0.1,0.8-0.1,1.3
				c-0.1,0.4-0.2,0.9-0.3,1.4c-0.3,2-1.3,4.4-2.6,6.8c-1.3,2.3-3.4,4.7-5.8,6.8c-2.3,2.1-4.9,3.5-7.4,4.7c-0.6,0.3-1.2,0.5-1.8,0.8
				c-0.6,0.3-1.2,0.4-1.7,0.7c-1.1,0.4-2.2,0.8-3.1,1c-1.9,0.5-3.5,0.8-4.6,1C533.7,303.1,533.1,303.1,533.1,303.1z"/>
		</g>
		<g>
			<path class="st2" d="M507.9,332.6c0,0-0.1-0.3-0.2-0.7c-0.1-0.5-0.2-1.2-0.1-2.1c0.1-1.8,0.7-4.5,2.4-7.3
				c0.8-1.4,1.9-2.8,3.3-4.3c1.3-1.3,2.8-2.8,4.4-4.1c1.6-1.4,3.3-2.8,4.9-4.2c0.8-0.8,1.7-1.4,2.5-2.2c0.8-0.8,1.6-1.5,2.3-2.3
				c3.1-3.3,5.5-7,7.3-10.5c1.8-3.5,2.8-7,3.4-10c0.6-3,0.8-5.5,0.8-7.3c0-0.8,0-1.6,0-2c0-0.5,0-0.7,0-0.7s0.1,0.3,0.2,0.7
				c0.1,0.4,0.3,1.1,0.5,2c0.3,1.8,0.8,4.4,0.7,7.5c-0.1,3.3-0.8,7.1-2.3,11.2c-1.6,4-4,8.3-7.5,11.9c-0.8,0.9-1.8,1.8-2.7,2.6
				c-0.9,0.8-1.8,1.5-2.8,2.3c-1.8,1.4-3.7,2.6-5.3,3.8c-1.8,1.2-3.2,2.3-4.6,3.4c-1.3,1.1-2.5,2.3-3.5,3.4c-1.9,2.3-3,4.5-3.5,6.2
				c-0.3,0.8-0.3,1.5-0.3,1.9C507.9,332.4,507.9,332.6,507.9,332.6z"/>
		</g>
		<g>
			<path class="st2" d="M444.8,53.4c0,0,0.2-0.1,0.4-0.3c0.3-0.2,0.6-0.4,1.2-0.7c1-0.5,2.7-1.1,4.9-1.3c4.3-0.3,10.7,1.8,14.7,7.8
				c0.9,1.5,1.5,3.5,1.4,5.4c-0.2,1.8-0.8,3.4-1.3,4.6c-1.2,2.4-2.6,4.6-4.1,6.2s-3.1,2.3-4.2,2.8c-0.6,0.2-1,0.3-1.3,0.3
				c-0.3,0.1-0.4,0.1-0.4,0.1s0.5-0.3,1.4-1c0.8-0.8,1.8-1.8,2.8-3.5c0.9-1.7,1.7-3.8,2.4-6.2c0.3-1.2,0.7-2.3,0.6-3.4
				c0-1-0.3-2-1-3c-0.7-1-1.4-2.1-2.4-2.9c-0.3-0.3-0.4-0.4-0.7-0.7c-0.3-0.2-0.5-0.4-0.8-0.6c-0.5-0.4-0.9-0.8-1.4-1.1
				c-1.9-1.3-4-2.2-5.9-2.5c-1.8-0.4-3.4-0.4-4.5-0.3c-0.6,0-1,0.2-1.3,0.2C445,53.4,444.8,53.4,444.8,53.4z"/>
		</g>
		<g>
			<path class="st2" d="M477.1,63.4c0,0-0.2-0.5-0.3-1.4c-0.2-0.4-0.4-1-0.7-1.6c-0.3-0.6-0.7-1.2-1.2-1.8c-0.9-1.3-2.3-2.5-4-3.4
				c-0.4-0.2-0.9-0.4-1.3-0.6c-0.5-0.2-1-0.3-1.5-0.5c-0.5-0.2-1.1-0.3-1.6-0.4c-0.6-0.1-1.2-0.2-1.8-0.3c-2.3-0.3-4.8-0.4-7-0.5
				c-2.3-0.1-4.3-0.2-5.9-0.3s-3,0-3.9,0.2c-0.5,0.1-0.8,0.2-1.1,0.3s-0.4,0.1-0.4,0.1s0.1-0.1,0.3-0.3c0.2-0.2,0.5-0.4,0.9-0.8
				c0.8-0.6,2.2-1.3,3.9-1.8s3.7-0.9,6-1.3c2.3-0.3,4.9-0.5,7.8-0.2c0.7,0.2,1.4,0.3,2.1,0.4c0.7,0.3,1.3,0.4,2,0.7
				c0.7,0.3,1.3,0.6,1.8,0.9c0.6,0.3,1.1,0.8,1.7,1.1c2,1.6,3.3,3.7,3.9,5.4c0.3,0.8,0.4,1.8,0.6,2.4c0,0.8,0,1.3,0,1.8
				C477.2,62.9,477.1,63.4,477.1,63.4z"/>
		</g>
		<g>
			<path class="st2" d="M451.9,44.7c0,0,2.2-0.2,5.8,0c1.8,0.2,3.9,0.4,6.2,0.8c1.2,0.3,2.4,0.6,3.7,1.1c0.3,0.2,0.7,0.3,1,0.4
				c0.3,0.2,0.7,0.3,1,0.5c0.3,0.2,0.7,0.4,0.9,0.6c0.3,0.3,0.6,0.4,0.9,0.7c4.4,3.8,6.8,8.8,7.1,12.6c0,0.5,0.1,0.9,0.1,1.3
				s0,0.8-0.1,1.2c0,0.8-0.3,1.3-0.3,1.8c-0.1,0.3-0.1,0.4-0.2,0.7c0,0.1-0.1,0.3-0.1,0.3c-0.1,0.1-0.2,0.2-0.2,0.2
				c-0.2,0.1-0.3,0.1-0.3,0.1c-0.1-0.1-0.1-0.1-0.1-0.1s0,0,0.1,0.1c0.1,0,0.2-0.1,0.2-0.2c0-0.1,0.1-0.1,0.1-0.2c0-0.1,0-0.1,0-0.2
				c0-0.2-0.1-0.4-0.1-0.7c-0.1-0.5-0.2-1.1-0.4-1.8c-0.1-0.3-0.2-0.7-0.3-1c-0.1-0.3-0.3-0.7-0.4-1.1c-1.3-3-4.1-6.6-7.7-9.7
				c-0.3-0.2-0.4-0.3-0.7-0.5c-0.3-0.2-0.4-0.3-0.7-0.5c-0.3-0.2-0.4-0.3-0.7-0.4s-0.5-0.3-0.8-0.3c-0.9-0.5-2-0.9-3-1.4
				c-2.1-0.8-4-1.6-5.6-2.3C453.9,45.7,451.9,44.7,451.9,44.7z"/>
		</g>
		<g>
			<path class="st2" d="M496.9,60.6c0,0-0.1-0.5-0.2-1.4c-0.2-0.9-0.3-2.2-0.4-3.7c-0.3-3.1-1-7.2-2.1-11.5c-0.6-2.1-1.3-4.1-2-5.9
				c-0.8-1.8-1.6-3.3-2.4-4.5s-1.6-2.3-2.1-3c-0.5-0.8-0.8-1.2-0.8-1.2s0.4,0.3,1.3,0.6c0.8,0.4,1.9,1.1,3.3,2c1.3,1,2.8,2.4,4,4.3
				c1.3,1.8,2.3,4,3,6.5c1.3,4.9,0.8,9.6,0.1,12.7c-0.3,1.6-0.8,2.8-1,3.7C497.1,60.1,496.9,60.6,496.9,60.6z"/>
		</g>
		<g>
			<path class="st2" d="M473.7,290.8c0,0,0,0.4,0.1,1.3s0.3,1.9,0.9,3.4c0.6,1.4,1.4,3,2.5,4.9c1.1,1.8,2.3,4.1,3.6,6.6
				c0.6,1.3,1.3,2.6,1.8,4c0.3,0.8,0.6,1.4,0.8,2.2c0.3,0.8,0.5,1.5,0.8,2.3c0.5,1.6,1,3.2,1.5,4.8c0.6,1.6,1.1,3.4,1.7,5
				c1.2,3.4,2.7,6.8,4.4,10.2c0.5,0.8,0.9,1.7,1.4,2.5s1.1,1.6,1.6,2.4c0.3,0.4,0.6,0.8,0.8,1.3s0.6,0.8,0.9,1.2
				c0.1,0.2,0.1,0.1,0.1,0.1l0,0l0,0l0,0l0,0l0,0l0.5-0.6c0.7-0.8,1.2-1.6,1.8-2.4c1.2-1.6,2.2-3.3,3.3-4.9c1.9-3.4,3.6-6.6,4.9-10
				c0.3-0.8,0.7-1.7,1-2.4c0.3-0.8,0.6-1.6,0.9-2.4c0.5-1.6,1.1-3.2,1.6-4.8c0.3-0.8,0.5-1.6,0.8-2.3s0.6-1.5,0.8-2.2
				c0.5-1.4,1.2-2.8,1.8-4c1.2-2.5,2.5-4.8,3.6-6.6c1.1-1.8,2-3.5,2.5-4.9c0.5-1.4,0.8-2.6,0.9-3.4c0.1-0.8,0.1-1.3,0.1-1.3
				s0,0.4,0.1,1.3c0,0.8-0.1,2-0.4,3.6c-0.4,1.5-1.1,3.4-2,5.4c-0.9,2-1.8,4.3-2.8,6.9c-0.4,1.3-0.9,2.6-1.3,4
				c-0.2,0.7-0.4,1.4-0.7,2.2c-0.2,0.8-0.3,1.5-0.6,2.3c-0.4,1.6-0.8,3.3-1.3,4.9c-0.3,0.8-0.5,1.7-0.8,2.6
				c-0.3,0.8-0.5,1.8-0.8,2.6c-1.2,3.5-2.8,7.1-4.8,10.7c-1.1,1.8-2.1,3.6-3.4,5.3c-0.6,0.8-1.2,1.8-1.8,2.6
				c-1.2,1.4-2.3,2.8-3.5,4.3l-0.3,0.3l-0.1,0.2l0,0l0,0l-0.1-0.1l-0.5-0.6l-1-1.3c-0.6-0.8-1.3-1.6-1.8-2.3c-0.3-0.4-0.7-0.8-1-1.3
				c-0.3-0.4-0.6-0.9-0.9-1.3c-0.6-0.9-1.2-1.8-1.7-2.7s-1-1.8-1.5-2.8c-1.8-3.7-3.2-7.4-4.2-11c-0.6-1.8-0.9-3.5-1.4-5.2
				c-0.4-1.7-0.8-3.4-1.2-4.9c-0.2-0.8-0.4-1.5-0.6-2.3c-0.2-0.8-0.4-1.4-0.7-2.2c-0.4-1.4-0.9-2.8-1.3-4c-0.9-2.6-1.9-4.8-2.8-6.9
				c-0.9-2-1.6-3.9-2-5.4c-0.3-1.5-0.5-2.8-0.4-3.6C473.7,291.2,473.7,290.8,473.7,290.8z"/>
		</g>
		<g>
			<path class="st2" d="M549.8,53.4c0,0-0.2,0-0.4-0.1c-0.3-0.1-0.8-0.2-1.3-0.2c-1.1-0.1-2.7-0.1-4.5,0.3c-1.8,0.3-3.9,1.2-5.9,2.5
				c-0.5,0.3-1,0.7-1.4,1.1c-0.3,0.2-0.5,0.4-0.8,0.6c-0.3,0.3-0.4,0.4-0.7,0.7c-0.9,0.8-1.8,1.9-2.4,2.9c-0.7,1.1-0.9,2-1,3
				c0,1,0.3,2.3,0.6,3.4c0.8,2.4,1.5,4.6,2.4,6.2c0.9,1.7,1.9,2.8,2.8,3.5c0.9,0.7,1.4,1,1.4,1s-0.2,0-0.4-0.1
				c-0.3-0.1-0.8-0.2-1.3-0.3c-1.1-0.4-2.7-1.3-4.2-2.8c-1.5-1.5-2.8-3.7-4.1-6.2c-0.6-1.3-1.2-2.8-1.3-4.6
				c-0.2-1.8,0.4-3.9,1.4-5.4c3.9-5.9,10.4-8.1,14.7-7.8c2.2,0.2,3.8,0.8,4.9,1.3c0.5,0.3,0.9,0.5,1.2,0.7
				C549.7,53.4,549.8,53.4,549.8,53.4z"/>
		</g>
		<g>
			<path class="st2" d="M517.5,63.4c0,0-0.1-0.5-0.3-1.5c0-0.5,0-1.1,0-1.8c0.2-0.7,0.3-1.6,0.6-2.4c0.6-1.8,1.8-3.9,3.9-5.4
				c0.5-0.3,1.1-0.8,1.7-1.1c0.6-0.3,1.3-0.6,1.8-0.9c0.7-0.3,1.3-0.4,2-0.7c0.7-0.2,1.4-0.3,2.1-0.4c2.8-0.4,5.4-0.2,7.8,0.2
				s4.3,0.8,6,1.3c1.8,0.5,3.1,1.2,3.9,1.8c0.4,0.3,0.8,0.5,0.9,0.8c0.2,0.2,0.3,0.3,0.3,0.3s-0.2,0-0.4-0.1s-0.6-0.2-1.1-0.3
				c-0.9-0.2-2.3-0.3-3.9-0.2s-3.8,0.2-5.9,0.3c-2.2,0.1-4.6,0.2-7,0.5c-0.6,0.1-1.2,0.2-1.8,0.3c-0.6,0.2-1.1,0.3-1.6,0.4
				c-0.5,0.2-1,0.3-1.5,0.5c-0.5,0.2-0.9,0.4-1.3,0.6c-1.8,0.9-3.1,2.2-4,3.4c-0.5,0.6-0.8,1.3-1.2,1.8c-0.3,0.6-0.5,1.1-0.7,1.6
				C517.7,62.9,517.5,63.4,517.5,63.4z"/>
		</g>
		<g>
			<path class="st2" d="M542.8,44.7c0,0-2,0.9-5.3,2.1c-1.6,0.7-3.5,1.5-5.6,2.3c-1,0.4-2.1,0.8-3,1.4c-0.3,0.1-0.5,0.3-0.8,0.3
				c-0.3,0.2-0.4,0.3-0.7,0.4c-0.3,0.2-0.4,0.3-0.7,0.5c-0.3,0.2-0.4,0.3-0.7,0.5c-3.7,3.1-6.5,6.7-7.7,9.7
				c-0.2,0.3-0.3,0.8-0.4,1.1c-0.1,0.3-0.3,0.7-0.3,1c-0.3,0.6-0.3,1.3-0.4,1.8c-0.1,0.3-0.1,0.5-0.1,0.7c0,0.1,0,0.1,0,0.2
				c0,0.1,0,0.1,0.1,0.2c0.1,0.1,0.2,0.2,0.2,0.2c0.1,0,0.1-0.1,0.1-0.1s0,0-0.1,0.1c-0.1,0.1-0.2,0-0.3-0.1c-0.1,0-0.2-0.1-0.2-0.2
				c-0.1-0.1-0.1-0.3-0.1-0.3c-0.1-0.2-0.1-0.4-0.2-0.7c-0.1-0.5-0.3-1.1-0.3-1.8c0-0.4,0-0.8-0.1-1.2c0-0.4,0.1-0.8,0.1-1.3
				c0.3-3.8,2.7-8.8,7.1-12.6c0.3-0.3,0.6-0.4,0.9-0.7c0.3-0.3,0.6-0.4,0.9-0.6c0.3-0.2,0.7-0.4,1-0.5c0.3-0.2,0.7-0.3,1-0.4
				c1.3-0.6,2.5-0.8,3.7-1.1c2.3-0.4,4.4-0.7,6.2-0.8C540.7,44.6,542.8,44.7,542.8,44.7z"/>
		</g>
		<g>
			<path class="st2" d="M497.8,60.6c0,0-0.2-0.5-0.5-1.3c-0.3-0.8-0.8-2.1-1-3.7c-0.8-3.1-1.2-7.7,0.1-12.7c0.7-2.4,1.8-4.7,3-6.5
				c1.3-1.8,2.7-3.3,4-4.3c1.3-1,2.4-1.7,3.3-2c0.8-0.4,1.3-0.6,1.3-0.6s-0.3,0.4-0.8,1.2c-0.5,0.8-1.3,1.8-2.1,3s-1.7,2.8-2.4,4.5
				c-0.8,1.8-1.4,3.8-2,5.9c-1.1,4.3-1.8,8.4-2.1,11.5c-0.3,1.5-0.3,2.8-0.4,3.7C497.9,60.1,497.8,60.6,497.8,60.6z"/>
		</g>
		<g>
			<path class="st2" d="M459.8,157.7c0,0-0.5,0.3-1.5,0.6c-0.9,0.4-2.3,0.9-3.9,1.7c-1.6,0.8-3.5,1.7-5.1,3.1
				c-0.8,0.7-1.6,1.4-2.3,2.3c-0.2,0.2-0.3,0.4-0.4,0.7c-0.2,0.3-0.3,0.4-0.4,0.7c-0.3,0.5-0.5,0.9-0.6,1.4
				c-0.3,0.9-0.2,1.7,0.1,2.6c0.3,0.9,0.9,1.8,1.6,2.6c1.3,1.7,3,3.1,4.4,4.2c1.4,1.2,2.5,2.1,3.4,2.8s1.3,1.1,1.3,1.1
				s-0.6-0.2-1.6-0.5c-1-0.3-2.4-0.8-4.2-1.5c-1.8-0.8-3.8-1.8-5.8-3.5c-1-0.9-2-2-2.8-3.5c-0.3-0.8-0.6-1.7-0.8-2.6
				c-0.1-0.9,0-1.9,0.3-2.8c0.3-0.9,0.7-1.7,1-2.3c0.2-0.3,0.4-0.7,0.7-1c0.3-0.3,0.5-0.7,0.8-0.9c1-1.2,2.3-2,3.4-2.7
				c2.3-1.3,4.7-1.8,6.5-2.1c1.9-0.3,3.4-0.3,4.4-0.3C459.2,157.6,459.8,157.7,459.8,157.7z"/>
		</g>
		<g>
			<path class="st2" d="M455.7,181.2c0,0-0.2,0.2-0.4,0.3c-0.3,0.3-0.8,0.6-1.3,1c-1,1-2.3,2.5-3.2,4.7c-0.9,2.2-1.3,4.9-0.9,8
				c0.3,3.1,1.3,6.5,2.3,10.1s2.3,7.1,3,10.5c0.8,3.4,1.3,6.3,1.8,8.8c0.9,5,1.3,8.2,1.3,8.2s-1.4-2.8-3.4-7.5c-1-2.3-2-5.2-3.2-8.3
				c-1.2-3.1-2.5-6.5-3.7-10.3s-1.9-7.6-1.8-11.2c0-0.4,0-0.9,0-1.3c0.1-0.4,0.1-0.9,0.2-1.3c0.1-0.8,0.3-1.7,0.6-2.5
				c0.1-0.2,0.1-0.4,0.2-0.6s0.2-0.3,0.3-0.6c0.2-0.3,0.3-0.8,0.5-1.1c0.3-0.7,0.8-1.3,1.1-1.8c1.6-2.3,3.4-3.5,4.7-4.2
				c0.7-0.3,1.2-0.5,1.5-0.7C455.5,181.3,455.7,181.2,455.7,181.2z"/>
		</g>
		<path class="st2" d="M579.7,190.6c-0.1-0.9-0.2-1.8-0.3-2.9s-0.5-2.2-0.8-3.3c-0.8-2.3-1.8-4.7-3.3-7c-1.5-2.3-3.4-4.3-5.1-5.9
			c-0.9-0.8-1.8-1.5-2.7-2c-0.5-0.3-1-0.7-1.6-0.9v-0.1c0.2,0,0.3,0,0.5-0.1c0.9-0.1,1.8-0.3,2.5-0.6c0.4-0.2,0.8-0.3,1.1-0.5
			c0.3-0.2,0.7-0.3,0.9-0.5c0.6-0.4,1.1-0.8,1.5-1.2s0.7-0.7,0.9-1c0.1-0.2,0.3-0.3,0.3-0.5c0,0,0.1,0,0.1-0.1
			c0.3-0.2,0.6-0.3,0.8-0.3c-0.1,0-0.3-0.1-0.5-0.1c-0.1,0-0.1-0.1-0.2-0.1c-0.2-0.1-0.5-0.3-0.9-0.5c-0.7-0.4-1.8-0.9-3.1-1.7
			c-1.3-0.8-2.9-1.7-4.6-2.9c-1.8-1.3-3.6-2.8-5.3-4.8c-0.8-1-1.6-2.1-2.2-3.4c-0.3-0.6-0.5-1.3-0.8-1.9c-0.2-0.3-0.3-0.7-0.3-1
			c-0.1-0.3-0.2-0.7-0.3-1.1c-0.7-2.9-0.8-6.2-0.6-9.7c0-0.8,0.1-1.5,0.2-2.3c0.2-0.8,0.3-1.4,0.4-2.1c0.1-0.8,0.2-1.5,0.3-2.3
			s0.1-1.4,0.1-2.1c0.1-1.3-0.1-2.6-0.2-3.8c0-0.4-0.1-0.8-0.2-1.3c0-0.3,0-0.4-0.1-0.7c0-1.1-0.3-2.1-0.4-3.2
			c-0.1-0.5-0.3-1.1-0.3-1.6c-0.2-0.5-0.3-1.1-0.5-1.6c-0.4-1.1-0.8-2.2-1.4-3.2c-0.3-0.5-0.6-1-0.9-1.5c-0.3-0.5-0.7-0.9-1.1-1.4
			c-0.8-0.9-1.6-1.7-2.5-2.4c-1.8-1.4-3.8-2.4-5.8-3.2c-2-0.8-4.1-1.1-6.2-1.3c-2.1-0.1-4.1,0.1-5.9,0.4c-3.8,0.7-7.1,2.2-10.1,3.9
			c-2.8,1.7-5.3,3.6-7.4,5.4c-2.1,1.8-3.9,3.4-5.6,4.7s-3.3,2.3-4.6,2.9s-2.5,1-3.3,1.3c-0.8,0.2-1.2,0.3-1.2,0.3s0.4,0,1.3-0.1
			c0.8-0.1,2-0.3,3.4-0.8c1.5-0.5,3.2-1.3,5.1-2.4c1.9-1.1,3.9-2.6,6.2-4.1c2.3-1.6,4.7-3.2,7.5-4.5c2.8-1.3,5.9-2.4,9.2-2.8
			c1.7-0.3,3.4-0.3,5-0.1c1.7,0.2,3.4,0.6,5,1.3c3.3,1.3,6.3,3.5,8,6.7c1.8,3.1,2.3,7,2.4,10.7c0.1,2.7,0,5.3-0.1,8
			c-0.7,2.2-1.5,4.5-2.5,6.9c-1.3,3-2.5,5.9-3.9,8.3c-0.8,1.1-1.4,2.3-2.2,3.3c-0.3,0.5-0.8,0.9-1.2,1.3s-0.8,0.8-1.2,1.2
			c-1.6,1.4-3,2.4-4.2,2.9c-0.5,0.3-1,0.4-1.3,0.6c-0.3,0.2-0.5,0.2-0.5,0.2s0.2,0,0.5,0c0.3,0,0.6,0,0.9-0.1c0.2,0,0.4,0,0.7,0
			c-1,0-1.6,0.1-1.6,0.1s0.5,0.3,1.5,0.6c0.9,0.4,2.3,0.9,3.9,1.7s3.5,1.7,5.1,3.1c0.8,0.7,1.6,1.4,2.3,2.3c0.2,0.2,0.3,0.4,0.4,0.7
			c0.2,0.3,0.3,0.4,0.4,0.7c0.3,0.5,0.5,0.9,0.6,1.4c0.3,0.9,0.2,1.7-0.1,2.6c-0.3,0.9-0.9,1.8-1.6,2.6c-1.3,1.7-3,3.1-4.4,4.2
			c-1.4,1.2-2.5,2.1-3.4,2.8c-0.3,0.2-0.4,0.3-0.6,0.5c-0.4,0.2-0.8,0.3-1.1,0.3c0.2,0.3,1.1,0.3,0.8,0.3c0.3,0.1,0.7,0.3,1.1,0.5
			c0.1,0.1,0.2,0.1,0.3,0.2c0.2,0.1,0.3,0.3,0.4,0.4c1,1,2.3,2.5,3.2,4.7c0.9,2.2,1.3,4.9,0.9,8c-0.3,3.1-1.3,6.5-2.3,10.1
			s-2.3,7.1-3,10.5c-0.8,3.4-1.3,6.3-1.8,8.8c-0.3,1.8-0.6,3.4-0.8,4.7c-0.2,0.4-0.3,0.8-0.5,1.2c0.2-0.1,0.3-0.2,0.4-0.2v0.1
			c-1.6,0.8-3.2,1.9-4.2,3.5c-1.2,1.7-1.4,3.9-1.1,5.6c0.3,1.8,1.2,3.2,2.1,4.2c0.3,0.3,0.5,0.5,0.7,0.8c0.3,0.3,0.5,0.4,0.8,0.7
			c0.5,0.4,0.9,0.8,1.4,1.1c1.8,1.3,3.3,2.1,4.3,2.8c0.6,0.3,1,0.6,1.3,0.8c-0.1,0-0.3-0.1-0.5-0.2c-0.4-0.2-1-0.3-1.7-0.4
			c-1.3-0.4-2.9-0.9-4.6-1.4c-1.7-0.5-3.3-0.9-4.6-1.3c-0.7-0.2-1.2-0.4-1.6-0.5c-0.3-0.1-0.5-0.2-0.6-0.2c-0.1-0.2-0.2-0.3-0.2-0.3
			s0.1,0.2,0.1,0.5c0.1,0.3,0.3,0.8,0.3,1.5c0.3,1.3,0.6,3.2,0.7,5.4s-0.1,4.9-0.7,7.8c-0.6,2.8-1.8,5.7-3.8,7.9
			c-0.9,1.1-2.2,1.8-3.4,2.5c-0.7,0.3-1.3,0.6-2,0.8c-0.7,0.2-1.4,0.4-2.1,0.5c-2.8,0.6-5.5,0.7-7.8,0.5c-2.3-0.1-4.2-0.4-5.4-0.7
			c-0.7-0.1-1.2-0.3-1.5-0.3c-0.3-0.1-0.5-0.1-0.5-0.1s0.2,0.1,0.4,0.3c0.3,0.2,0.8,0.5,1.3,0.8c0.3,0.2,0.6,0.3,1,0.5
			c-0.1,0.1-0.1,0.1-0.2,0.2c-0.3,0.5-0.9,1.3-1.6,2c-0.4,0.3-0.8,0.8-1.2,1.2c-0.4,0.4-0.8,0.8-1.4,1.3c-0.5,0.5-1.1,1.1-1.6,1.7
			c-0.6,0.6-1,1.3-1.5,2c-0.5,0.8-0.9,1.4-1.3,2.2c-0.2,0.3-0.3,0.8-0.5,1.1c-0.1,0.2-0.2,0.3-0.3,0.5c-0.1,0.2-0.2,0.4-0.2,0.6
			c-0.3,0.8-0.5,1.3-0.6,2c-0.1-0.7-0.3-1.3-0.6-2c-0.1-0.2-0.2-0.4-0.2-0.6c-0.1-0.2-0.2-0.3-0.3-0.5c-0.2-0.3-0.3-0.8-0.5-1.1
			c-0.3-0.8-0.8-1.4-1.3-2.2c-0.5-0.7-0.9-1.4-1.5-2c-0.5-0.6-1.1-1.2-1.6-1.7c-0.6-0.6-1-0.9-1.4-1.3s-0.8-0.8-1.2-1.2
			c-0.7-0.8-1.3-1.5-1.6-2c-0.3-0.3-0.4-0.5-0.5-0.7c0.3-0.3,0.7-0.4,0.8-0.6c0.3-0.2,0.4-0.3,0.4-0.3s-0.2,0-0.5,0.1
			s-0.8,0.3-1.3,0.3c-1.2,0.3-2.8,0.5-4.9,0.5s-4.5-0.3-6.9-1c-1.2-0.4-2.3-0.9-3.4-1.8c-1-0.8-1.8-1.7-2.5-2.8
			c-1.4-2.5-2.2-5.3-2.7-7.9c-0.4-2.6-0.6-5.1-0.5-7.2s0.3-3.9,0.4-5c0.1-0.6,0.2-1.1,0.3-1.3c0.1-0.3,0.1-0.5,0.1-0.5
			s-0.1,0.1-0.2,0.3c-0.3,0.1-1,0.3-2,0.7c-1.3,0.3-2.6,0.8-3.9,1.3s-2.7,1.1-3.9,1.4c-0.6,0.3-1.1,0.3-1.4,0.4
			c-0.2,0.1-0.3,0.1-0.4,0.2c0.3-0.2,0.7-0.4,1.2-0.8c0.9-0.7,2.3-1.5,3.9-2.8c0.4-0.3,0.8-0.7,1.3-1.1s0.8-0.9,1.2-1.4
			c0.8-1.1,1.5-2.3,1.8-3.9c0.2-0.8,0.3-1.6,0.2-2.5c-0.1-0.9-0.3-1.8-0.7-2.7c-0.8-1.7-2.2-3.1-3.9-4c-1.6-0.9-3.1-1.3-4.4-1.8
			c-0.7-0.3-1.2-0.5-1.8-0.7c-0.3-0.1-0.6-0.3-0.8-0.3c-0.3-0.2-0.5-0.3-0.8-0.4c-0.5-0.3-1.1-0.6-1.6-0.8c-0.5-0.3-0.9-0.6-1.4-0.9
			c-0.9-0.6-1.7-1.3-2.5-1.8c-1.5-1.1-2.4-2.3-2.8-3.3c-0.1-0.3-0.2-0.4-0.3-0.6c0.1-0.6,0.2-1.1,0.3-1.4c0.1-0.4,0.1-0.7,0.1-0.8
			c0.1,0,0.1-0.1,0.1-0.1s0,0.3-0.1,0.8c-0.1,0.3-0.2,0.8-0.3,1.4c0.1,0.2,0.1,0.4,0.3,0.6c0.4,1,1.3,2.1,2.8,3.3
			c0.8,0.6,1.5,1.3,2.5,1.8c0.4,0.3,0.9,0.6,1.4,0.9c0.5,0.3,1,0.5,1.6,0.8c0.3,0.2,0.5,0.3,0.8,0.4c0.3,0.1,0.6,0.3,0.8,0.3
			c0.6,0.3,1.2,0.5,1.8,0.7c1.2,0.4,2.8,0.8,4.3,1.7c-0.6-1.3-1.3-3.1-2.3-5.3c-1-2.3-2-5.2-3.2-8.3c-1.2-3.1-2.5-6.5-3.7-10.3
			c-1.2-3.8-1.9-7.6-1.8-11.2c0-0.4,0-0.9,0-1.3c0.1-0.4,0.1-0.9,0.2-1.3c0.1-0.8,0.3-1.7,0.6-2.5c0.1-0.2,0.1-0.4,0.2-0.6
			c0.1-0.2,0.2-0.3,0.3-0.6c0.2-0.3,0.3-0.8,0.5-1.1c0.3-0.7,0.8-1.3,1.1-1.8c1.6-2.3,3.4-3.5,4.7-4.2c0.4-0.3,0.8-0.3,1.1-0.5
			c-0.3-0.1,0.7-0.1,0.8-0.3c-1-0.3-3.4-1.1-5.1-1.8l0,0c-0.2-0.8-1.2-1.3-1.9-0.9c-0.1,0-0.2-0.1-0.3-0.1c0.2-0.8-0.4-0.9-1.2-1.8
			c-1-1.2-1.9-2.5-2.8-3.7c-1.4-1.8-2.2-3.3-2.1-5c1-1.8,1.6-4.1,2.6-5.9c0,0,0-0.1,0.1-0.1c0.8-0.7,1.6-1.3,2.4-1.8
			c2.3-1.3,4.7-1.8,6.5-2.1c1.8-0.3,3.2-0.3,4.3-0.3v-0.1c0.1,0,0.2,0,0.3,0c0.6,0.2,1.2,0.1,1.5,0.1c0.3,0,0.5,0,0.5,0
			s-0.2-0.1-0.5-0.2c-0.3-0.2-0.8-0.3-1.3-0.6c-1.1-0.5-2.6-1.5-4.2-2.9c-0.4-0.3-0.8-0.8-1.2-1.2c-0.3-0.4-0.8-0.8-1.2-1.3
			c-0.8-0.9-1.4-2.1-2.2-3.3c-1.3-2.4-2.7-5.2-3.9-8.3c-1.3-3-2.3-5.9-3.1-8.7c-0.2-0.7-0.3-1.3-0.6-2c-0.2-0.7-0.3-1.3-0.4-1.9
			c-0.3-0.9-0.3-1.8-0.5-2.6c0.2-3.6,0.7-7.3,2.4-10.3c1.7-3.2,4.7-5.4,8-6.7c1.7-0.7,3.4-1,5-1.3c1.7-0.2,3.4-0.1,5,0.1
			c3.4,0.4,6.4,1.5,9.2,2.8c2.8,1.3,5.2,2.9,7.5,4.5c2.3,1.6,4.3,3,6.2,4.1c1.9,1.1,3.6,1.9,5.1,2.4c1.5,0.5,2.7,0.7,3.4,0.8
			c0.8,0.1,1.3,0.1,1.3,0.1s-0.4-0.1-1.2-0.3c-0.8-0.3-1.9-0.6-3.3-1.3c-1.3-0.7-2.9-1.6-4.6-2.9c-1.7-1.3-3.5-2.9-5.6-4.7
			s-4.5-3.7-7.4-5.4s-6.2-3.1-10.1-3.9c-1.9-0.3-3.9-0.5-5.9-0.4c-2.1,0.2-4.1,0.6-6.2,1.3c-2,0.8-4,1.8-5.8,3.2
			c-0.8,0.8-1.8,1.5-2.5,2.4c-0.4,0.4-0.8,0.9-1.1,1.4c-0.3,0.5-0.6,1-0.9,1.5c-0.7,1-1,2.1-1.4,3.2c-0.2,0.5-0.3,1.1-0.5,1.6
			c-0.2,0.5-0.3,1.1-0.3,1.6c-0.2,1.1-0.3,2.2-0.4,3.2c0,0.5-0.1,1.1-0.1,1.6c0,0.5,0,1,0,1.5c0,4.1,0.4,7.9,0.6,11.4
			c0.2,3.5,0.1,6.8-0.6,9.7c-0.1,0.3-0.2,0.8-0.3,1.1c-0.1,0.3-0.2,0.8-0.3,1c-0.3,0.7-0.5,1.3-0.8,1.9c-0.6,1.3-1.4,2.3-2.2,3.4
			c-1.7,2-3.5,3.5-5.3,4.8s-3.4,2.2-4.6,2.9c-1.3,0.8-2.3,1.3-3.1,1.7c-0.7,0.4-1.1,0.6-1.1,0.6s0.4-0.2,1.2-0.4s1.8-0.7,3.3-1.3
			c1.4-0.6,3.2-1.3,5.1-2.4c1.9-1.1,4.1-2.4,6.1-4.4c1-1,2-2.2,2.8-3.5c0.4-0.7,0.8-1.4,1.2-2.2c0.2-0.3,0.3-0.8,0.5-1.2
			s0.3-0.8,0.4-1.2c0.7-2.2,1.1-4.4,1.3-6.9c0,0.1,0,0.1,0.1,0.2c-0.2,2.3-0.6,4.6-1.3,6.7c-0.2,0.4-0.3,0.8-0.4,1.2
			c-0.2,0.4-0.3,0.8-0.5,1.2c-0.4,0.8-0.8,1.5-1.2,2.2c-0.8,1.3-1.8,2.5-2.8,3.5c-2,2-4.2,3.4-6.1,4.4c-1.9,1.1-3.7,1.8-5.1,2.4
			s-2.9,1.4-3.7,1.7c-0.2,0.1-0.3,0.1-0.5,0.1c0.2,0.1,0.4,0.2,0.8,0.3c0.3,0.2,0.8,0.3,1.2,0.4s1,0.3,1.5,0.3
			c0.3,0.1,0.6,0.1,0.9,0.1c0.3,0,0.6,0,0.9,0l0,0c-0.3,0-0.7,0-0.9,0c-0.3,0-0.6,0-0.9-0.1c-0.6-0.1-1.1-0.2-1.5-0.3
			s-0.8-0.3-1.2-0.4c-0.7-0.3-1-0.4-1-0.4s0.2,0.3,0.6,1c0.2,0.3,0.5,0.7,0.9,1c0.3,0.4,0.9,0.8,1.5,1.2c0.3,0.2,0.6,0.3,0.9,0.5
			c0.3,0.2,0.7,0.3,1.1,0.5c0.8,0.3,1.6,0.5,2.5,0.6c0.2,0,0.4,0,0.6,0.1c-0.6,0.3-1.1,0.7-1.7,1c-0.9,0.6-1.8,1.3-2.7,2
			c-1.8,1.6-3.6,3.5-5.1,5.9c-1.5,2.3-2.6,4.8-3.3,7c-0.3,1.2-0.7,2.3-0.8,3.3c-0.2,1-0.3,2-0.3,2.9c-0.1,0.9-0.1,1.7-0.1,2.4
			c0,0.7,0.1,1.3,0.1,1.8c0.1,1,0.2,1.5,0.2,1.5s0.1-0.3,0.3-0.7c0.4-0.2,1.3-0.6,2.5-1.2c1.6-0.8,3.6-1.9,5.6-3.2
			c1-0.6,1.9-1.2,2.8-1.7s1.7-0.9,2.4-1.2c0.4-0.2,0.8-0.3,1.1-0.3c0.3-0.1,0.6-0.2,0.8-0.3c0.5-0.1,0.8-0.2,0.8-0.2
			s-0.3-0.2-0.7-0.5c-0.3-0.2-0.5-0.3-0.8-0.5c-0.3-0.2-0.8-0.3-1.3-0.4c-0.5-0.2-1-0.3-1.6-0.3c0.6,0,1.2,0.1,1.7,0.3
			c0.5,0.1,0.9,0.3,1.3,0.4c0.3,0.2,0.7,0.3,0.8,0.5c0.4,0.3,0.7,0.5,0.7,0.5s-0.3,0.7-0.9,1.9c-0.2,0.3-0.3,0.7-0.5,1
			c-0.2,0.4-0.3,0.8-0.5,1.3s-0.3,0.9-0.6,1.4c-0.2,0.5-0.3,1.1-0.5,1.6c-0.8,2.3-1.3,5-1.4,8c0,0.8-0.1,1.5-0.1,2.3
			c0,0.8,0.1,1.6,0.1,2.4c0.1,0.8,0.2,1.7,0.3,2.5c0.1,0.8,0.3,1.7,0.4,2.5c0.8,3.4,1.9,6.4,3.3,9.2s3.1,4.9,4.5,6.8
			c0.5,0.6,1,1.1,1.5,1.6c0,0.1,0.1,0.1,0.1,0.2c-0.5-0.5-1.1-1.1-1.7-1.8c-1.4-1.8-3.2-4-4.5-6.8c-1.3-2.7-2.5-5.8-3.3-9.2
			c-0.2-0.8-0.3-1.7-0.4-2.5s-0.2-1.7-0.3-2.5c0-0.8-0.1-1.6-0.1-2.4c0-0.8,0.1-1.6,0.1-2.3c0.2-3,0.7-5.8,1.4-8
			c0.2-0.6,0.3-1.1,0.5-1.6c0.2-0.5,0.4-1,0.6-1.4s0.3-0.8,0.5-1.3c0.2-0.3,0.3-0.7,0.5-1c0.6-1.3,0.9-1.9,0.9-1.9s-0.5,0.5-1.5,1.5
			c-0.3,0.3-0.5,0.5-0.8,0.8c-0.3,0.3-0.5,0.7-0.8,1.1c-0.3,0.4-0.6,0.8-0.9,1.3c-0.3,0.5-0.6,1-0.9,1.6c-1.3,2.2-2.4,5-3,8.4
			c-0.1,0.8-0.3,1.7-0.3,2.6c-0.1,0.9-0.1,1.8-0.2,2.8c0,0.9,0.1,1.8,0.2,2.8c0.1,0.9,0.3,1.9,0.5,2.9c0.8,3.9,2.4,7.4,4.4,10.2
			c0.5,0.7,1,1.3,1.5,2c0.6,0.6,1.1,1.2,1.6,1.7c0.5,0.6,1.1,1,1.6,1.5c0.5,0.4,1,0.8,1.5,1.3c1.1,0.7,2,1.3,2.8,1.8
			c0.9,0.5,1.8,0.8,2.4,1c0.3,0.1,0.5,0.2,0.8,0.3l0.1,0.1c0.2,0.1,0.3,0.1,0.4,0.2c0.5,0.2,0.8,0.2,0.8,0.2s-0.1-0.3-0.3-0.7
			c-0.1-0.1-0.1-0.3-0.2-0.3c-0.1-0.2-0.1-0.3-0.2-0.4c-0.1-0.3-0.2-0.6-0.3-1c0-0.2-0.1-0.3-0.1-0.6c0-0.2,0-0.4-0.1-0.6
			c-0.1-0.4,0-0.8,0-1.3c0.1-0.9,0.1-1.8,0.3-2.8c0.2-1,0.3-1.9,0.5-2.9c0.1-0.5,0.3-1.1,0.3-1.5c0.3,1.1,0.8,2.4,1.8,3.7
			c0.7,0.8,1.3,1.8,2.2,2.6c0.4,0.4,0.9,0.9,1.3,1.3c0.5,0.4,1.1,0.8,1.6,1.3c0.3,0.2,0.6,0.4,0.8,0.7c0.3,0.2,0.7,0.3,0.9,0.5
			c0.7,0.3,1.3,0.8,2,1c1.4,0.6,2.7,1,3.7,1.7c1,0.6,1.8,1.3,2.3,2.1c0.3,0.4,0.4,0.8,0.5,1.3s0.2,1,0.1,1.5
			c-0.1,2.1-1.2,3.9-2.2,5.5c-1.1,1.6-2.1,2.9-2.7,3.9c-0.7,0.9-1,1.4-1,1.4s0.1,0,0.2-0.1c0.1,0.1,0.2,0.2,0.4,0.4
			c0.3,0.3,0.8,0.7,1.3,1c1.3,0.8,3.4,1.3,5.5,0.5c0.5-0.3,1-0.4,1.4-0.8c0.3-0.3,0.7-0.5,0.9-0.8c-0.2,0.6-0.4,1.2-0.6,1.8
			c-0.6,2.2-1.1,4.8-1,7.9c0.1,3,0.8,6.4,2.5,9.7c0.9,1.7,2.3,3.2,3.9,4.2c1.5,1,3.2,1.5,4.8,1.8c3.1,0.6,5.9,0.3,8.1-0.3
			c2.2-0.6,3.9-1.3,4.9-2c0.1-0.1,0.2-0.1,0.3-0.2c0,0.2,0,0.4,0,0.8c-0.1,0.7,0.1,1.6,0.3,2.8c0.2,0.6,0.3,1.3,0.7,1.8
			c0.3,0.7,0.7,1.3,1,1.9c0.3,0.6,0.8,1.3,1.1,1.8c0.4,0.7,0.8,1.3,1.3,2c0.4,0.7,0.9,1.3,1.3,1.9c0.3,0.3,0.4,0.6,0.7,0.9l0.3,0.4
			l0.3,0.4c0.3,0.6,0.8,1,1.1,1.6c0.3,0.5,0.6,1,0.9,1.4c0.6,0.9,1,1.8,1.3,2.3c0.2,0.3,0.3,0.4,0.3,0.6c0,0.2,0,0.3,0,0.3
			s0-0.1,0.1-0.1c0.1,0.1,0.1,0.1,0.1,0.1s0-0.1,0-0.3c0.1-0.2,0.3-0.3,0.3-0.6c0.3-0.5,0.8-1.3,1.3-2.3c0.3-0.4,0.6-0.9,0.9-1.4
			s0.8-1,1.1-1.6l0.3-0.4l0.3-0.4c0.3-0.3,0.4-0.6,0.7-0.9c0.4-0.6,0.9-1.3,1.3-1.9c0.4-0.7,0.8-1.3,1.3-2c0.4-0.7,0.8-1.3,1.1-1.8
			s0.7-1.3,1-1.9c0.3-0.7,0.5-1.3,0.7-1.8c0.3-1.2,0.3-2.1,0.3-2.8c0-0.1,0-0.1,0-0.2c1,0.5,2.3,1,3.9,1.4c2.3,0.7,5.3,1.2,8.6,0.9
			c0.8,0,1.7-0.2,2.6-0.3c0.8-0.3,1.8-0.4,2.7-0.8c1.8-0.7,3.6-1.8,5-3.4c1.4-1.6,2.3-3.4,3-5.1c0.7-1.8,1-3.5,1.2-5.2
			c0.3-3.4-0.2-6.3-0.8-8.6c-0.3-1.2-0.7-2.1-1-3c0.9,0.9,2.1,1.8,3.7,2.3c2.4,0.7,4.7,0.1,6-0.6c0.7-0.3,1.2-0.8,1.6-1
			c0.3-0.3,0.4-0.3,0.5-0.4c0.1,0.1,0.2,0.1,0.2,0.1s-0.4-0.5-1.2-1.4c-0.8-0.9-1.9-2.3-3.3-3.9c-1.3-1.6-2.7-3.5-2.8-5.7
			c0-0.5,0-1,0.2-1.5c0.1-0.4,0.3-0.8,0.7-1.3c0.3-0.4,0.8-0.8,1.2-1.2c0.5-0.3,1-0.7,1.7-0.9c1.3-0.6,2.7-1,4.3-1.6
			c0.8-0.3,1.5-0.7,2.2-1c0.3-0.2,0.7-0.3,1.1-0.5c0.3-0.2,0.7-0.4,1-0.6c0.6-0.4,1.3-0.8,1.8-1.2c0.6-0.4,1.1-0.9,1.6-1.3
			c0.5-0.4,1-0.8,1.4-1.3c0.3-0.3,0.6-0.7,0.9-1c0,0.1,0,0.2,0.1,0.3c0.1,0.9,0.2,1.8,0.3,2.8c0,0.4,0,0.8,0,1.3
			c0,0.2,0,0.4-0.1,0.6c0,0.2-0.1,0.3-0.1,0.6c0,0.4-0.2,0.7-0.3,1c-0.1,0.2-0.1,0.3-0.2,0.4c-0.1,0.1-0.1,0.3-0.2,0.3
			c-0.2,0.4-0.3,0.7-0.3,0.7s0.3-0.1,0.8-0.2c0.2-0.1,0.3-0.1,0.4-0.2l0.1-0.1c0.3-0.1,0.5-0.2,0.8-0.3c0.7-0.3,1.5-0.5,2.4-1
			c0.8-0.5,1.8-1.2,2.8-1.8c0.5-0.4,1-0.8,1.5-1.3s1.1-0.9,1.6-1.5c0.5-0.6,1-1.1,1.6-1.7c0.5-0.7,1-1.3,1.5-2
			c1.9-2.8,3.5-6.3,4.4-10.2c0.2-1,0.4-1.9,0.5-2.9s0.2-1.9,0.2-2.8c-0.1-0.9-0.1-1.8-0.2-2.8c-0.1-0.9-0.3-1.8-0.3-2.6
			c-0.7-3.4-1.8-6.2-3-8.4c-0.3-0.6-0.6-1.1-0.9-1.6c-0.3-0.4-0.7-0.9-0.9-1.3c-0.3-0.4-0.6-0.8-0.8-1.1c-0.3-0.3-0.4-0.4-0.6-0.7
			c-0.3-0.8-0.6-1.3-0.8-1.5c0.3,0.1,0.4,0.1,0.8,0.2c0.3,0.1,0.7,0.2,1.1,0.3c0.8,0.3,1.6,0.8,2.4,1.2c0.8,0.5,1.8,1.1,2.8,1.7
			c2,1.3,4,2.3,5.6,3.2c1.2,0.6,2.1,1,2.5,1.2c0.2,0.4,0.3,0.7,0.3,0.7s0.1-0.5,0.2-1.5c0.1-0.5,0.1-1.1,0.1-1.8
			C579.8,192.3,579.8,191.5,579.7,190.6z M416.1,191.1c-0.3,0.6-0.4,1.2-0.7,1.7c0,0.1-0.1,0.1-0.1,0.2c-0.1,0.1-0.1,0.2-0.2,0.3
			C415.4,192.6,415.7,191.8,416.1,191.1c0.1-0.4,0.3-0.9,0.5-1.4c0,0,0,0,0.1,0.1C416.4,190.1,416.3,190.6,416.1,191.1z
			 M538.7,229.8c0-0.1,0.1-0.1,0.1-0.2h0.1v0.1C538.7,229.8,538.7,229.8,538.7,229.8z M557.3,230.2c0-0.1,0.1-0.1,0.1-0.2
			c0,0,0,0,0.1,0C557.4,230.1,557.4,230.2,557.3,230.2z M578.3,192.8L578.3,192.8c0.1,0.1,0.1,0.2,0.2,0.3
			C578.4,193.1,578.3,193,578.3,192.8C578.3,192.9,578.3,192.9,578.3,192.8z"/>
		<g>
			<path class="st2" d="M520,240.9c0,0-0.2-0.2-0.3-0.4c-0.3-0.3-0.6-0.7-1.1-1.2c-0.9-1-2.3-2.3-4.3-3.6c-3.8-2.7-9.7-5.3-16.4-5.1
				c-3.4,0.1-6.5,0.8-9.5,1.6c-0.8,0.3-1.4,0.4-2.1,0.7c-0.7,0.2-1.3,0.5-2,0.8c-1.3,0.4-2.5,1-3.6,1.4c-2.2,0.9-4,1.7-5.3,2.2
				s-1.9,0.8-1.9,0.8s0.6-0.5,1.6-1.3c1-0.8,2.6-2.1,4.6-3.5c1-0.7,2.1-1.5,3.4-2.2c0.7-0.3,1.3-0.8,2-1.1c0.7-0.3,1.4-0.7,2.2-1
				c3-1.3,6.7-2.4,10.7-2.5c4-0.1,7.8,0.9,10.8,2.4c3.1,1.5,5.4,3.4,7.1,5.4c1.7,1.8,2.8,3.6,3.4,4.9c0.3,0.6,0.5,1.1,0.7,1.4
				C519.9,240.7,520,240.9,520,240.9z"/>
		</g>
		<path class="st2" d="M534,199l-0.1-0.8l-0.2-0.8c-0.1-0.6-0.3-1.2-0.3-1.8l-0.3-0.9c-0.1-0.3-0.3-0.6-0.4-0.8
			c-0.6-1.2-1.3-2.3-2.4-3.2c-1.1-0.9-2.7-1.4-4.1-1.5c-0.8,0-1.4,0.1-2.1,0.3c-0.6,0.2-1.3,0.3-1.8,0.5c-7.9,2.7-16.3,4.4-25.1,4.8
			c-0.2,0-0.3,0-0.4,0c-1.1-0.1-2.3-0.2-3.4-0.3c-1.1-0.1-2.3-0.2-3.4-0.3c-1.1-0.2-2.2-0.3-3.3-0.5c-1.1-0.2-2.2-0.3-3.3-0.6
			c-1.1-0.3-2.1-0.5-3.2-0.7l-1.6-0.3c-0.5-0.1-1-0.3-1.6-0.4c-1-0.3-2.1-0.6-3.1-0.9l-1.5-0.4c-0.3-0.1-0.5-0.2-0.8-0.3
			c-0.3-0.1-0.6-0.2-0.8-0.3c-0.6-0.2-1.3-0.3-1.9-0.4c-0.8,0-1.5-0.1-2.3,0.2c-1.5,0.3-2.8,1.2-3.8,2.3s-1.5,2.2-1.9,3.4
			c-0.3,0.6-0.3,1.2-0.4,1.8c-0.1,0.6-0.3,1.2-0.3,1.8c0,0.6-0.1,1.2-0.1,1.8c-0.1,0.6,0.1,1.2,0.1,1.7c0,1.2,0.3,2.3,0.4,3.4
			c0.5,2.1,1.2,4.2,1.9,6c1.6,3.9,3.6,7.2,5.3,10.6c1.7,3.3,3.1,6.5,3.6,9.9c0.6,3.3,0.4,6.6,0.1,9.8c-0.3,3.2-0.9,6.3-1.3,9.3
			c-0.3,1.5-0.3,3-0.5,4.4c-0.1,1.4-0.2,2.9,0,4.4s0.8,2.9,1.8,4c1.1,1.1,2.5,1.5,3.8,1.7c1.3,0.2,2.5,0.1,3.6-0.1
			c1.2-0.2,2.2-0.3,3.2-0.5c2-0.4,3.9-0.8,5.5-1.2c0.8-0.3,1.6-0.3,2.3-0.5c0.8-0.1,1.4-0.3,2.1-0.3c1.3-0.1,2.3-0.2,3.3-0.2
			c1.8-0.1,2.7-0.2,2.7-0.2s-0.9,0-2.7,0c-0.9,0-2,0-3.3,0c-0.7,0-1.3,0.2-2.1,0.3c-0.8,0.1-1.6,0.2-2.3,0.3
			c-1.7,0.3-3.5,0.6-5.5,0.9c-1,0.2-2.1,0.3-3.2,0.3s-2.2,0.1-3.3-0.1c-1.1-0.2-2.1-0.7-2.8-1.4c-0.8-0.8-1.1-1.9-1.2-3.2
			c-0.2-1.3,0-2.6,0.2-3.9c0.2-1.3,0.3-2.6,0.6-3.9l0,0c0.7-0.3,1.4-0.5,2.3-0.8c0.5-0.1,1-0.3,1.5-0.3c0.5-0.1,1.1-0.2,1.7-0.3
			c2.3-0.4,5.4-0.5,8.5-0.8c0.8-0.1,1.6-0.1,2.4-0.1s1.7-0.1,2.6-0.1c1.8-0.1,3.5,0,5.4,0c0.9,0,1.8,0,2.8,0
			c0.9,0.1,1.8,0.1,2.7,0.2c1.8,0.1,3.4,0.1,5,0.3c3.2,0.3,6,0.6,8.5,1c1.2,0.2,2.3,0.5,3.2,0.8c0.9,0.3,1.8,0.6,2.4,0.8
			c0.3,0.1,0.4,0.2,0.7,0.3c0.3,1.9,0.6,3.8,0.7,5.6c0.1,1.3-0.1,2.5-0.5,3.5s-1.2,1.8-2.1,2.3c-1.9,0.9-4.2,0.7-6.2,0.4
			c-2-0.2-3.9-0.5-5.4-0.7c-1.7-0.3-3.1-0.5-4.4-0.7c-0.7-0.1-1.3-0.2-1.8-0.2c-0.5-0.1-1,0-1.5-0.1c-1.8-0.1-2.7-0.1-2.7-0.1
			s0.9,0.1,2.7,0.3c0.4,0.1,0.9,0.1,1.4,0.2c0.5,0.1,1.1,0.2,1.8,0.3c1.3,0.2,2.7,0.6,4.4,0.9s3.4,0.7,5.4,1c1,0.2,2.1,0.3,3.2,0.3
			c1.2,0,2.4-0.1,3.6-0.6c1.3-0.5,2.3-1.5,3-2.8c0.6-1.3,0.8-2.8,0.8-4.2c0-2.8-0.4-5.6-0.8-8.6c-0.4-2.9-0.9-6-1.3-9.2
			c-0.3-3.2-0.3-6.4,0.5-9.6c0.8-3.2,2.3-6.4,3.9-9.7c1.7-3.3,3.6-6.7,5.2-10.6c0.7-1.9,1.4-3.9,1.7-6.1c0.3-1.1,0.3-2.2,0.3-3.4
			C534,200.2,534,199.6,534,199z M521.7,251.4c-0.6-0.4-1.3-1-2.2-1.6c-0.9-0.5-1.9-1.2-3.1-1.7c-2.3-1.2-5.3-2.2-8.6-2.8
			c-1.7-0.4-3.4-0.6-5.2-0.8c-0.9-0.1-1.8-0.3-2.8-0.3c-0.9,0-1.9,0-2.8-0.1c-1.9,0-3.9,0-5.7,0.3c-0.9,0.1-1.8,0.3-2.7,0.3
			c-0.8,0.2-1.8,0.2-2.6,0.4c-3.3,0.8-6.2,1.5-8.6,2.6c-0.6,0.3-1.2,0.5-1.7,0.8s-1,0.6-1.4,0.8c-0.6,0.4-1.2,0.8-1.6,1.2
			c0.5-2.7,1.1-5.5,1.6-8.6c0.2-1.3,0.3-2.5,0.4-3.8c1.2-1.1,2.5-1.9,3.9-2.8c3.8-2.4,7.7-4.9,12.1-5.9c4-1,8.3-0.7,12.4-0.3
			c2.5,0.2,5.1,0.4,7.4,1.6c1.8,0.9,3.4,2.3,4.8,3.7c1.5,1.4,3.1,4.1,4.7,6.1c0.4,3.3,1.1,6.4,1.7,9.3c0.1,0.7,0.3,1.3,0.3,1.9
			C521.8,251.5,521.7,251.5,521.7,251.4z"/>
		<path class="st1" d="M529.9,203.5c0.2-0.9,0.2-1.8,0.3-2.8c0-0.4-0.1-0.9-0.1-1.3l-0.1-0.7l-0.2-0.7l-0.3-1.3l-0.2-0.6
			c-0.1-0.2-0.2-0.3-0.3-0.6c-0.3-0.8-0.8-1.3-1.3-1.8c-1.1-0.8-2.2-0.8-4.2,0c-8.1,2.8-17,4.7-26.2,5.2h-0.1c-0.1,0-0.1,0-0.2,0
			s-0.1,0-0.2,0h-0.1c-0.1,0-0.3,0-0.3,0c-1.2-0.1-2.3-0.2-3.5-0.3c-1.2-0.1-2.3-0.2-3.4-0.3c-1.2-0.2-2.3-0.3-3.4-0.5
			c-1.2-0.2-2.3-0.3-3.4-0.6s-2.3-0.5-3.4-0.8l-1.7-0.4c-0.6-0.2-1.1-0.3-1.6-0.5c-1.1-0.3-2.2-0.7-3.2-1l-1.6-0.5
			c-0.3-0.1-0.5-0.2-0.8-0.3s-0.5-0.2-0.7-0.3c-0.5-0.2-0.8-0.2-1.3-0.3c-0.3,0-0.7,0-0.9,0.1c-0.6,0.1-1.2,0.4-1.7,1
			s-0.9,1.3-1.2,2c-0.2,0.3-0.3,0.8-0.3,1.3s-0.3,0.9-0.3,1.3l-0.1,1.3c-0.1,0.4,0,0.9,0,1.4c0,0.9,0.2,1.8,0.3,2.8
			c0.3,1.6,0.8,3.2,1.3,4.7c0.8,0.3,1.6,0.5,2.6,0.8c1.3,0.3,2.6,0.6,4.2,0.8c3.1,0.6,6.9,0.9,11.1,1.3c2.1,0.2,4.3,0.2,6.5,0.3
			c1.2,0.1,2.3,0.1,3.4,0.2c1.2,0,2.3,0,3.6,0c2.4,0,4.8,0.1,7,0c1.2,0,2.3-0.1,3.4-0.1c1.1-0.1,2.2,0,3.2-0.1
			c4.2-0.3,8-0.5,11.1-0.9c0.8-0.1,1.5-0.3,2.2-0.3c0.7-0.2,1.3-0.3,1.9-0.4c0.8-0.3,1.5-0.4,2.2-0.7c0.1-0.3,0.3-0.6,0.3-0.9
			C529.2,207.1,529.8,205.3,529.9,203.5z"/>
		<path class="st2" d="M520.7,171.6c-4.8-7-11.2-6.8-11.2-6.8s-2.3-16.3-4.3-20.7c-0.8-2.1-1.9-4.4-3.3-6c-1.3-1.6-2.8-3.1-4.8-3.6
			H497c-2.1,0.5-3.6,2-4.8,3.6c-1.3,1.8-2.5,3.9-3.3,6c-2,4.4-4.3,20.7-4.3,20.7s-6.4-0.3-11.2,6.8c-5.5,8.1-1.5,19.3,6.9,24
			c1.1,0.7,2.2-0.4,2-1.3c2.3,1.2,4.9,2,7.5,2.5c2.3,0.4,4.7,0.6,7,0.6c0,0,0,0,0.1,0v-2.7c0,0,0,0-0.1,0c-2.3,0-4.4-0.2-6.5-0.5
			c-2.7-0.5-5.2-1.3-7.5-2.5c-0.6-0.3-1.1-0.7-1.6-1c-0.5-0.3-1-0.8-1.5-1.1c-1-0.8-1.8-1.6-2.5-2.5c-1.4-1.8-2.2-3.9-2.3-6.1
			c-0.2-2.2,0.3-4.4,1.2-6.3c0.4-0.9,1-1.8,1.7-2.6c0.2-0.2,0.3-0.4,0.5-0.6s0.3-0.3,0.6-0.5c0.2-0.2,0.4-0.3,0.6-0.5
			c0.3-0.2,0.4-0.3,0.7-0.4c0.2-0.2,0.4-0.3,0.7-0.3c0.3-0.1,0.4-0.3,0.7-0.3c0.5-0.2,0.9-0.3,1.4-0.5c0.5-0.2,1-0.3,1.5-0.3
			c0.3-0.1,0.5-0.1,0.8-0.1l0.4-0.1h0.2h0.3c0.4-0.1,0.8-0.1,1.3-0.2h0.3c0-0.1,0-0.2,0-0.3l0.1-0.6c0.1-0.6,0.1-1.2,0.2-1.8
			c0.1-0.9,1.3-16.4,6.1-25.5c0.7-1.3,1.7-2.3,3-3c0,0,0,0,0.1,0l0,0h0.1l0,0c0,0,0,0,0.1,0c1.3,0.6,2.3,1.8,3,3
			c4.9,9,6,24.5,6.1,25.5c0.1,0.6,0.1,1.2,0.2,1.8l0.1,0.6c0,0.1,0,0.2,0,0.3h0.3c0.4,0.1,0.8,0.1,1.3,0.2h0.3h0.2l0.4,0.1
			c0.3,0,0.5,0.1,0.8,0.1c0.5,0.1,1,0.2,1.5,0.3c0.5,0.1,0.9,0.3,1.4,0.5c0.3,0.1,0.4,0.3,0.7,0.3c0.3,0.1,0.4,0.3,0.7,0.3
			c0.3,0.2,0.4,0.3,0.7,0.4c0.2,0.2,0.4,0.3,0.6,0.5c0.2,0.2,0.4,0.3,0.6,0.5c0.2,0.2,0.3,0.3,0.5,0.6c0.7,0.8,1.2,1.7,1.7,2.6
			c0.8,1.9,1.3,4.1,1.2,6.3s-0.9,4.3-2.3,6.1c-0.8,0.9-1.6,1.8-2.5,2.5c-0.5,0.4-1,0.8-1.5,1.1c-0.5,0.3-1.1,0.7-1.6,1
			c-2.3,1.3-4.8,2-7.5,2.5c-2.1,0.3-4.3,0.5-6.5,0.5c0,0,0,0-0.1,0v2.7c0,0,0,0,0.1,0c2.3,0,4.7-0.2,7-0.6c2.7-0.5,5.3-1.3,7.5-2.5
			c-0.2,0.9,0.9,2,2,1.3C522.2,191,526.3,179.8,520.7,171.6z"/>
		<path class="st1" d="M522.8,257.9c0.1,1.3-0.1,2.5-0.5,3.5c-0.4,1-1.2,1.8-2.1,2.3c-1.9,0.9-4.2,0.7-6.2,0.4
			c-2-0.2-3.9-0.5-5.4-0.7c-1.7-0.3-3.1-0.5-4.4-0.7c-0.7-0.1-1.3-0.2-1.8-0.2c-0.5-0.1-1,0-1.5-0.1c-1.8-0.1-2.7-0.1-2.7-0.1
			s0.8,0.1,2.1,0.2c-1.2,0-2.3-0.1-3.4-0.1c0.9-0.1,1.3-0.1,1.3-0.1s-0.9,0-2.7,0c-0.9,0-2,0-3.3,0c-0.7,0-1.3,0.2-2.1,0.3
			s-1.6,0.2-2.3,0.3c-1.7,0.3-3.5,0.6-5.5,0.9c-1,0.2-2.1,0.3-3.2,0.3c-1.1,0.1-2.2,0.1-3.3-0.1c-1.1-0.2-2.1-0.7-2.8-1.4
			c-0.8-0.8-1.1-1.9-1.2-3.2c-0.2-1.3,0-2.6,0.2-3.9c0.2-1.3,0.3-2.6,0.6-3.9l0,0c0.7-0.3,1.4-0.5,2.3-0.8c0.5-0.1,1-0.3,1.5-0.3
			c0.5-0.1,1.1-0.2,1.7-0.3c2.3-0.4,5.4-0.5,8.5-0.8c0.8-0.1,1.6-0.1,2.4-0.1s1.7-0.1,2.6-0.1c1.8-0.1,3.5,0,5.4,0
			c0.9,0,1.8,0,2.8,0c0.9,0.1,1.8,0.1,2.7,0.2c1.8,0.1,3.4,0.1,5,0.3c3.2,0.3,6,0.6,8.5,1c1.2,0.2,2.3,0.5,3.2,0.8
			c0.9,0.3,1.8,0.6,2.4,0.8c0.3,0.1,0.4,0.2,0.7,0.3C522.5,254.3,522.7,256.1,522.8,257.9z"/>
	</g>
	<g class="st6">
		<path d="M322.5,538.5c-3.1-0.3-5.9-0.3-8.7,0c2.5-5.6,5.2-11.4,7.9-17.3c2.7-5.9,5.5-11.6,8.5-17.3c2.3-0.3,4.5-0.6,6.6-0.6
			s4.2,0,6.4,0c0.1,5.9,0.1,11.9,0.2,17.8c0.1,5.9-0.1,11.8-0.3,17.5c-1.4-0.1-2.9-0.1-4.5-0.1s-3.1,0.1-4.5,0.3c0.1-1,0.1-2,0.2-3
			c0-1,0.1-2.1,0.1-3.1c-1.4,0.1-2.8,0.1-4.2,0.1c-1.3,0-2.8,0.1-4.5,0.3c-0.4,0.8-0.9,1.8-1.3,2.7
			C323.5,536.7,323,537.6,322.5,538.5z M328.1,524.4c1.3-0.1,2.4-0.1,3.6-0.1s2.4,0.1,3.8,0.2c0-2,0-4.1-0.1-6.3s-0.3-4.3-0.3-6.4
			c-1.3,2-2.4,4.1-3.5,6.3C330.3,520.3,329.2,522.4,328.1,524.4z"/>
		<path d="M345.5,538.9c1.7-5.5,3.3-11.2,4.9-16.9c1.6-5.7,3.3-11.5,5.2-17.3c0.7-0.2,1.4-0.4,2.4-0.6c1-0.2,2-0.4,3.1-0.6
			c1.1-0.2,2.3-0.3,3.4-0.4c1.2-0.1,2.3-0.2,3.3-0.1c0.6,0,1.2,0.1,1.9,0.1c0.7,0,1.4,0.1,2.1,0.2c0.8,0.1,1.4,0.3,2.2,0.4
			c0.8,0.2,1.4,0.4,2.1,0.8c1.3,0.7,2.3,1.7,3.3,3.1c0.8,1.3,1.3,3.2,1.3,5.4c0,1.3-0.3,2.8-0.7,4.2s-1.1,2.8-1.9,4s-2,2.4-3.4,3.4
			s-3,1.8-4.9,2.5c0.3,0.6,0.5,1.3,0.8,2.3c0.3,0.8,0.7,1.8,1,2.8c0.3,1,0.8,2.1,1.2,3.2s0.8,2.2,1.2,3.2c-0.9,0-1.8,0-2.7,0
			s-1.7,0-2.4,0.1c-0.8,0-1.7,0.1-2.5,0.1c-0.8,0.1-1.7,0.1-2.6,0.2c-0.3-0.8-0.7-1.6-1-2.5c-0.3-0.8-0.8-1.8-1.1-2.7
			s-0.7-1.8-1-2.7s-0.7-1.7-0.9-2.4c-0.2,0-0.3,0-0.6,0s-0.4,0-0.5-0.1c-0.4,1.2-0.8,2.2-1.3,3c-0.3,0.9-0.8,1.8-1,2.5
			c-0.3,0.8-0.6,1.6-0.9,2.3c-0.3,0.8-0.6,1.5-0.9,2.3c-0.6,0-1.3-0.1-2.1-0.1s-1.5,0-2.3,0c-0.8,0-1.6,0-2.3,0.1
			C346.8,538.9,346.2,538.9,345.5,538.9z M360.6,521.2c1.4,0.2,2.8,0.1,4.1-0.2c1.3-0.3,2.3-0.8,3.1-1.5c0.6-0.6,1.2-1.3,1.6-2.2
			s0.7-1.7,0.8-2.5s-0.1-1.6-0.4-2.3c-0.3-0.7-1.1-1-2.1-1.2c-0.6-0.1-1.3-0.1-2.1,0c-0.8,0.1-1.6,0.3-2.3,0.7
			c-0.4,1.6-0.9,3.1-1.3,4.5C361.4,518.1,361,519.7,360.6,521.2z"/>
		<path d="M409,514.9c-2-0.6-4.1-0.8-6.1-0.5s-3.9,0.9-5.6,1.9c-1.8,1-3.2,2.3-4.4,4c-1.2,1.7-2,3.5-2.4,5.7c-0.2,1.1,0,2.2,0.5,3.3
			s1.5,1.8,2.8,2.1c0.8,0.2,1.6,0.3,2.4,0.3s1.8,0,2.8-0.3c1-0.2,2.2-0.5,3.4-0.9s2.7-1.1,4.4-1.8c-0.4,1-0.8,1.9-1,2.7
			c-0.3,0.8-0.6,1.4-0.9,2.1s-0.7,1.3-1.1,2s-0.9,1.5-1.5,2.3c-1.2,0.7-2.5,1.1-3.9,1.3c-1.4,0.3-2.7,0.4-3.8,0.5
			c-2.3,0-4.4-0.3-6.2-1.1c-1.8-0.8-3.4-1.8-4.5-3.1c-1.2-1.3-2.1-2.9-2.6-4.8c-0.5-1.8-0.7-3.9-0.4-6c0.3-2.4,0.9-4.6,1.9-6.8
			c1-2.1,2.2-4,3.7-5.7c1.5-1.7,3.2-3.2,5-4.4c1.9-1.3,3.9-2.2,6-2.8c1.4-0.4,2.8-0.8,4.2-0.9c1.4-0.2,2.8-0.3,4.1-0.3
			s2.6,0,3.8,0.1s2.3,0.3,3.4,0.3c-0.5,1.3-0.9,2.3-1.3,3.3c-0.3,0.8-0.7,1.7-1,2.4c-0.3,0.8-0.6,1.5-0.8,2.3
			C409.7,512.9,409.3,513.8,409,514.9z"/>
		<path d="M415,538.5c-3.1-0.3-5.9-0.3-8.7,0c2.5-5.6,5.2-11.4,7.9-17.3c2.7-5.9,5.5-11.6,8.5-17.3c2.3-0.3,4.5-0.6,6.6-0.6
			s4.2,0,6.4,0c0.1,5.9,0.1,11.9,0.2,17.8c0.1,5.9-0.1,11.8-0.3,17.5c-1.4-0.1-2.9-0.1-4.5-0.1s-3.1,0.1-4.5,0.3c0.1-1,0.1-2,0.2-3
			c0-1,0.1-2.1,0.1-3.1c-1.4,0.1-2.8,0.1-4.2,0.1c-1.3,0-2.8,0.1-4.5,0.3c-0.4,0.8-0.9,1.8-1.3,2.7C416,536.7,415.5,537.6,415,538.5
			z M420.6,524.4c1.3-0.1,2.4-0.1,3.6-0.1s2.4,0.1,3.8,0.2c0-2,0-4.1-0.1-6.3s-0.3-4.3-0.3-6.4c-1.3,2-2.4,4.1-3.5,6.3
			C422.8,520.3,421.7,522.4,420.6,524.4z"/>
		<path d="M438,537.8c0.8-2.9,1.5-5.7,2.3-8.4c0.8-2.7,1.5-5.4,2.3-8c0.8-2.7,1.6-5.4,2.3-8.1c0.8-2.8,1.8-5.6,2.8-8.6
			c1.2-0.4,2.6-0.8,4.3-1.2c1.6-0.3,3.2-0.5,4.6-0.6c1.8,0,3.5,0.1,5.3,0.3c1.7,0.3,3.3,0.8,4.6,1.5s2.5,1.8,3.5,3.3
			c1,1.4,1.6,3.3,1.9,5.5c0.3,1.8,0.2,3.8-0.1,5.6c-0.3,1.9-0.8,3.8-1.6,5.6s-1.8,3.5-2.8,5.1c-1.2,1.6-2.5,3-3.9,4.2
			c-2.3,1.8-4.8,3.1-7.6,3.9c-2.8,0.8-5.9,1.2-9,1.2c-1.7,0-3.2-0.1-4.7-0.3C440.4,538.5,439.1,538.3,438,537.8z M449.4,530.5
			c1.7,0,3.3-0.3,4.7-1.1s2.7-1.8,3.8-3.1s1.9-2.8,2.5-4.4s0.9-3.4,0.9-5.1c0-0.8-0.1-1.6-0.3-2.2c-0.3-0.6-0.5-1.1-0.8-1.4
			c-0.3-0.3-0.8-0.6-1.2-0.8c-0.4-0.2-0.9-0.3-1.3-0.3s-0.9,0-1.4,0.1c-0.5,0.1-0.9,0.2-1.3,0.3c-1,2.9-1.9,5.9-2.8,9
			C451.2,524.5,450.4,527.5,449.4,530.5z"/>
		<path d="M485,519.2c0.8-0.2,1.8-0.3,2.8-0.3c1-0.1,2-0.1,3.1-0.1c1,0,2,0,3,0c1,0,1.8,0,2.6,0.1c-0.3,1.3-0.7,2.3-1,3.4
			c-0.3,1-0.7,2.2-1.2,3.4c-0.7,0-1.6-0.1-2.6-0.1c-1,0-2,0-3.1,0c-1.1,0-2.1,0-3,0.1c-1,0-1.8,0.1-2.5,0.1
			c-0.3,0.8-0.5,1.7-0.8,2.5c-0.3,0.8-0.5,1.7-0.8,2.5c0.8,0,1.7,0,2.8-0.1c1.1,0,2.2-0.1,3.3-0.1c1.2-0.1,2.3-0.1,3.4-0.2
			c1.1-0.1,2.1-0.2,3-0.3c-0.6,1.5-1.2,3-1.8,4.4c-0.7,1.4-1.3,2.8-2.1,4.4c-1.6,0.1-3.4,0.2-5.1,0.2s-3.6,0.1-5.3,0.1
			c-1.8,0-3.4,0-4.9,0c-1.6,0-2.9,0-4,0c0.7-2.8,1.4-5.7,2.1-8.5c0.7-2.8,1.4-5.6,2.1-8.5c0.8-2.8,1.5-5.7,2.3-8.6
			c0.8-2.8,1.8-5.9,2.7-8.8c1.7-0.3,3.5-0.5,5.5-0.6c2-0.2,4-0.3,6-0.3s4-0.1,6-0.1c2,0,3.8,0,5.4,0.1c-0.7,1.6-1.3,3.2-1.9,4.9
			s-1.3,3.3-1.8,4.9c-0.8,0-1.8-0.1-2.8-0.1c-1.1,0-2.2,0-3.3,0.1c-1.2,0-2.3,0.1-3.4,0.1c-1.1,0.1-2.1,0.1-2.9,0.3
			c-0.3,0.8-0.6,1.8-0.8,2.7C485.6,517.3,485.3,518.2,485,519.2z"/>
		<path d="M542.5,515.5c-0.9-0.4-2-0.7-3.2-0.9c-1.2-0.3-2.5-0.3-3.9-0.3c-1.8,0-3.5,0.3-5.4,0.8c-1.8,0.6-3.5,1.3-5,2.4
			s-2.7,2.4-3.6,3.9c-0.9,1.6-1.3,3.4-1.1,5.4c0.1,1.3,0.7,2.4,1.7,3.4s2.3,1.4,4,1.4c1,0,1.8-0.1,2.6-0.2c0.8-0.2,1.4-0.4,2.1-0.8
			c0.1-0.4,0.3-1,0.4-1.7s0.3-1.4,0.6-2.2s0.4-1.6,0.7-2.3c0.3-0.8,0.4-1.5,0.7-2.2c1.3-0.2,2.8-0.3,4.4-0.3
			c1.6-0.1,3.4-0.1,5.2-0.1c-0.6,1.9-1.2,4.1-1.9,6.5c-0.7,2.4-1.5,4.9-2.3,7.2c-0.8,0.6-1.7,1.1-2.7,1.6c-1,0.4-2.1,0.8-3.3,1.2
			s-2.3,0.6-3.6,0.8c-1.3,0.2-2.4,0.3-3.6,0.3c-1.8,0-3.7-0.2-5.5-0.7c-1.8-0.5-3.4-1.3-4.9-2.3s-2.6-2.3-3.5-3.9
			c-0.9-1.6-1.4-3.4-1.5-5.4c-0.2-2.9,0.3-5.6,1.3-8.1c1-2.5,2.4-4.8,4.3-6.7c1.8-2,3.9-3.6,6.4-5c2.4-1.3,5-2.3,7.7-2.9
			c1.3-0.3,2.8-0.5,4.2-0.7c1.4-0.2,2.8-0.2,4.2-0.2c1.3,0,2.7,0.1,3.9,0.3c1.3,0.2,2.4,0.3,3.4,0.6c-0.3,1.1-0.4,2-0.7,2.8
			c-0.2,0.8-0.4,1.7-0.6,2.5c-0.3,0.8-0.4,1.7-0.7,2.5C543.2,513.3,542.9,514.3,542.5,515.5z"/>
		<path d="M550,538.5c-3.1-0.3-5.9-0.3-8.7,0c2.5-5.6,5.2-11.4,7.9-17.3s5.5-11.6,8.4-17.3c2.3-0.3,4.5-0.6,6.6-0.6
			c2.1-0.1,4.2,0,6.4,0c0.1,5.9,0.1,11.9,0.2,17.8s-0.1,11.8-0.3,17.5c-1.4-0.1-2.9-0.1-4.5-0.1s-3.1,0.1-4.5,0.3c0.1-1,0.1-2,0.2-3
			c0-1,0.1-2.1,0.1-3.1c-1.4,0.1-2.8,0.1-4.2,0.1c-1.3,0-2.8,0.1-4.5,0.3c-0.4,0.8-0.9,1.8-1.3,2.7C551,536.7,550.5,537.6,550,538.5
			z M555.6,524.4c1.3-0.1,2.4-0.1,3.6-0.1c1.2,0,2.4,0.1,3.8,0.2c0-2,0-4.1-0.1-6.3s-0.3-4.3-0.3-6.4c-1.3,2-2.4,4.1-3.5,6.3
			S556.7,522.4,555.6,524.4z"/>
		<path d="M572,538.9c1.1-3.1,2.2-6.1,3.2-9s2.1-5.8,3.1-8.6c1.1-2.8,2.2-5.7,3.3-8.5c1.2-2.8,2.3-5.6,3.7-8.5
			c1.8-0.2,3.5-0.3,5-0.3s3.2,0.1,4.9,0.2c0.1,1.2,0.2,2.3,0.3,3.6s0.2,2.6,0.3,3.9c0.1,1.3,0.2,2.7,0.3,3.9
			c0.1,1.3,0.3,2.5,0.3,3.7c1.4-2.3,2.9-4.9,4.4-7.5c1.4-2.7,2.8-5.1,4.4-7.5c1-0.2,1.8-0.3,2.6-0.3c0.8-0.1,1.5-0.1,2.3-0.1
			c0.8,0,1.5,0,2.3,0c0.8,0,1.7,0.1,2.7,0.2c-0.3,2.8-0.7,5.6-1,8.5s-0.7,5.9-1,8.8s-0.7,5.9-1,8.8c-0.3,2.8-0.7,5.6-0.9,8.3
			c-1.6-0.1-3-0.1-4.4,0c-1.3,0.1-2.8,0.2-4.4,0.2c0.1-1.3,0.2-2.6,0.2-4.1c0.1-1.5,0.2-2.9,0.2-4.4c0.1-1.5,0.2-3,0.3-4.4
			c0.1-1.4,0.2-2.8,0.3-4.1c-1.6,2.8-3.1,5.6-4.6,8.5s-3.1,5.7-4.8,8.4c-0.6,0-1.2-0.1-1.6-0.1s-0.8,0-1.2,0s-0.8,0-1.2,0.1
			c-0.4,0-0.8,0.1-1.4,0.1c-0.2-1.3-0.3-2.7-0.3-4.1s-0.2-2.8-0.3-4.4c-0.1-1.4-0.2-2.9-0.2-4.4s-0.1-2.8-0.1-4.1
			c-1.5,3.1-2.8,6.1-3.8,8.9c-1,2.8-2,5.5-3,8.1c-1.6-0.2-3-0.3-4.4-0.3C575,538.7,573.6,538.8,572,538.9z"/>
		<path d="M628.5,519.2c0.8-0.2,1.8-0.3,2.8-0.3c1-0.1,2-0.1,3.1-0.1c1,0,2,0,3,0c1,0,1.8,0,2.6,0.1c-0.3,1.3-0.7,2.3-1,3.4
			c-0.3,1-0.7,2.2-1.2,3.4c-0.7,0-1.6-0.1-2.6-0.1c-1,0-2,0-3.1,0s-2.1,0-3,0.1c-1,0-1.8,0.1-2.5,0.1c-0.3,0.8-0.5,1.7-0.8,2.5
			c-0.3,0.8-0.5,1.7-0.8,2.5c0.8,0,1.7,0,2.8-0.1c1.1,0,2.2-0.1,3.3-0.1c1.2-0.1,2.3-0.1,3.4-0.2c1.1-0.1,2.1-0.2,3-0.3
			c-0.6,1.5-1.2,3-1.8,4.4c-0.7,1.4-1.3,2.8-2.1,4.4c-1.6,0.1-3.4,0.2-5.1,0.2s-3.6,0.1-5.3,0.1c-1.8,0-3.4,0-4.9,0
			c-1.6,0-2.9,0-4,0c0.7-2.8,1.4-5.7,2.1-8.5c0.7-2.8,1.4-5.6,2.1-8.5c0.8-2.8,1.5-5.7,2.3-8.6c0.8-2.8,1.8-5.9,2.7-8.8
			c1.7-0.3,3.5-0.5,5.5-0.6c2-0.2,4-0.3,6-0.3s4-0.1,6-0.1s3.8,0,5.4,0.1c-0.7,1.6-1.3,3.2-1.9,4.9s-1.3,3.3-1.8,4.9
			c-0.8,0-1.8-0.1-2.8-0.1c-1.1,0-2.2,0-3.3,0.1c-1.2,0-2.3,0.1-3.4,0.1c-1.1,0.1-2.1,0.1-2.9,0.3c-0.3,0.8-0.6,1.8-0.8,2.7
			C629,517.3,628.7,518.2,628.5,519.2z"/>
		<path d="M642.1,530.6c0.5,0.1,1.1,0.2,1.8,0.3c0.7,0.1,1.3,0.2,2.1,0.3c0.7,0.1,1.4,0.1,2.1,0.1s1.3,0,1.9-0.1
			c1.3-0.1,2.4-0.3,3.3-0.8s1.3-0.9,1.6-1.5c0.3-0.6,0.1-1.3-0.4-2s-1.4-1.5-2.8-2.3c-1.8-1-3.3-2.1-4.3-3.3c-1-1.2-1.6-2.7-1.8-4.6
			c-0.1-0.9,0-1.8,0.3-2.8c0.3-0.9,0.6-1.8,1.1-2.5c0.7-1.3,1.7-2.3,2.8-3.3c1.2-0.9,2.5-1.7,4-2.3c1.4-0.6,3-1.1,4.5-1.4
			c1.6-0.3,3.1-0.6,4.5-0.7c1.7-0.2,3.3-0.3,4.8-0.2c1.5,0.1,3.1,0.2,4.8,0.3l-2.5,9.9c-0.6-0.2-1.3-0.3-2.1-0.3s-1.7-0.1-2.5-0.1
			s-1.8,0.1-2.5,0.3s-1.5,0.3-2.1,0.6c-0.8,0.4-1.7,1.1-2.3,1.8c-0.7,0.8-1,1.7-1,2.8c0,0.6,0.3,1.1,0.7,1.6s1,0.8,1.7,1.3
			s1.3,0.8,1.9,1c0.7,0.3,1.2,0.6,1.6,0.9c0.5,0.4,1.1,0.8,1.6,1.2c0.6,0.4,1,0.8,1.5,1.3c0.4,0.5,0.8,1,1,1.6
			c0.3,0.6,0.3,1.3,0.2,2c-0.1,0.5-0.3,1.1-0.4,1.6c-0.3,0.6-0.5,1.1-0.8,1.5c-1.3,1.8-3,3.2-5.1,4.2s-4.3,1.7-6.6,2.1
			c-2.3,0.4-4.7,0.5-7.1,0.5c-2.4-0.1-4.6-0.3-6.7-0.7L642.1,530.6z"/>
	</g>
</g>
</svg>
