<?xml version="1.0" encoding="utf-8"?>
<!-- Generator: Adobe Illustrator 24.0.0, SVG Export Plug-In . SVG Version: 6.00 Build 0)  -->
<svg version="1.1" id="Layer_1" xmlns="http://www.w3.org/2000/svg" xmlns:xlink="http://www.w3.org/1999/xlink" x="0px" y="0px"
	 viewBox="0 0 247 40" style="enable-background:new 0 0 247 40;" xml:space="preserve">
<style type="text/css">
	.st0{fill:#43165C;}
	.st1{fill:#F29100;}
</style>
<g>
	<path class="st0" d="M32.13-0.05H9.54c-4.81,0-8.7,3.9-8.7,8.7v22.59c0,4.81,3.9,8.7,8.7,8.7h22.59c4.81,0,8.7-3.9,8.7-8.7V8.66
		C40.84,3.85,36.94-0.05,32.13-0.05z"/>
	<path class="st1" d="M34.23,10.15c0,0.2-0.08,0.39-0.22,0.54l-2.11,2.15c-0.14,0.14-0.22,0.34-0.22,0.54v14.88
		c0,0.42,0.33,0.76,0.75,0.76h1.06c0.41,0,0.75,0.34,0.75,0.76v2.82c0,0.42-0.33,0.76-0.75,0.76h-1.8h-2.67H27
		c-0.41,0-0.75-0.34-0.75-0.76V20.41c0-0.68-0.8-1.01-1.27-0.54l-4.14,4.21l-4.14-4.21c-0.47-0.48-1.27-0.14-1.27,0.54v12.17
		c0,0.42-0.33,0.76-0.75,0.76h-2.01H9.99h-1.8c-0.41,0-0.75-0.34-0.75-0.76v-2.82c0-0.42,0.33-0.76,0.75-0.76h1.06
		C9.66,29,10,28.66,10,28.24V13.37c0-0.2-0.08-0.39-0.22-0.54l-2.11-2.15c-0.14-0.14-0.22-0.34-0.22-0.54V7.32
		c0-0.42,0.33-0.76,0.75-0.76h2.78c0.2,0,0.39,0.08,0.53,0.22l8.82,8.97c0.14,0.14,0.33,0.22,0.52,0.22s0.37-0.08,0.52-0.22
		l8.82-8.97c0.14-0.14,0.33-0.22,0.53-0.22h2.78c0.41,0,0.75,0.34,0.75,0.76v2.83H34.23z"/>
	<g>
		<path class="st0" d="M56.73,33.25H53.6V8.37h3.93l4.25,15.42l4.25-15.42h3.93v24.88h-3.14v-18.2l-3.42,12.8h-3.26l-3.42-12.76
			L56.73,33.25L56.73,33.25z"/>
		<path class="st0" d="M81.81,13.85h3.58v19.39h-3.58V31.7c-0.34,1.03-1.17,1.55-2.46,1.55h-1.43c-2.38,0-3.58-1.17-3.58-3.5V17.39
			c0-2.36,1.19-3.54,3.58-3.54h1.43c1.3,0,2.12,0.52,2.46,1.55V13.85z M79.11,30.34h1.39c0.48,0,0.81-0.11,1.01-0.32
			c0.2-0.21,0.3-0.57,0.3-1.07V18.14c0-0.5-0.1-0.86-0.3-1.07c-0.2-0.21-0.54-0.32-1.01-0.32h-1.39c-0.48,0-0.79,0.07-0.95,0.22
			c-0.16,0.15-0.24,0.46-0.24,0.93v11.29c0,0.48,0.08,0.79,0.24,0.93C78.31,30.27,78.63,30.34,79.11,30.34z"/>
		<path class="st0" d="M96.39,13.81h0.79v3.1h-1.43c-1.67,0-2.5,0.98-2.5,2.94v13.39h-3.58V13.85h3.58v2.38
			c0.21-0.69,0.59-1.26,1.13-1.73C94.93,14.04,95.6,13.81,96.39,13.81z"/>
		<path class="st0" d="M110.9,19.97h-3.54V17.9c0-0.48-0.08-0.79-0.24-0.93c-0.16-0.15-0.48-0.22-0.95-0.22h-1.71
			c-0.48,0-0.79,0.07-0.95,0.22c-0.16,0.15-0.24,0.46-0.24,0.93v11.29c0,0.48,0.08,0.79,0.24,0.93c0.16,0.15,0.48,0.22,0.95,0.22
			h1.71c0.48,0,0.79-0.07,0.95-0.22c0.16-0.15,0.24-0.46,0.24-0.93v-2.07h3.54v2.62c0,2.33-1.25,3.5-3.74,3.5h-3.78
			c-2.46,0-3.7-1.17-3.7-3.5V17.39c0-2.36,1.23-3.54,3.7-3.54h3.78c2.49,0,3.74,1.18,3.74,3.54V19.97z"/>
		<path class="st0" d="M118.29,13.85h3.89c2.49,0,3.74,1.18,3.74,3.54v7.27h-7.83v4.61c0,0.45,0.08,0.76,0.24,0.91
			c0.16,0.16,0.48,0.24,0.95,0.24h1.83c0.48,0,0.79-0.08,0.95-0.24c0.16-0.16,0.24-0.48,0.24-0.95v-1.59h3.5v2.11
			c0,2.33-1.23,3.5-3.7,3.5h-3.82c-2.46,0-3.7-1.17-3.7-3.5V17.39C114.59,15.03,115.83,13.85,118.29,13.85z M118.09,22.04h4.29
			v-4.21c0-0.45-0.07-0.76-0.22-0.91c-0.15-0.16-0.46-0.24-0.93-0.24h-1.95c-0.48,0-0.79,0.08-0.95,0.24
			c-0.16,0.16-0.24,0.46-0.24,0.91C118.09,17.83,118.09,22.04,118.09,22.04z"/>
		<path class="st0" d="M133.35,33.25h-3.58V6.66h3.58V33.25z"/>
		<path class="st0" d="M141.1,13.85h4.25c2.46,0,3.7,1.18,3.7,3.54v12.36c0,2.33-1.23,3.5-3.7,3.5h-4.25c-2.44,0-3.66-1.17-3.66-3.5
			V17.39C137.44,15.03,138.66,13.85,141.1,13.85z M145.51,29.23V17.87c0-0.48-0.08-0.79-0.24-0.95s-0.48-0.24-0.95-0.24h-2.19
			c-0.48,0-0.79,0.08-0.93,0.24c-0.15,0.16-0.22,0.48-0.22,0.95v11.37c0,0.48,0.07,0.79,0.22,0.95s0.46,0.24,0.93,0.24h2.19
			c0.48,0,0.79-0.08,0.95-0.24S145.51,29.71,145.51,29.23z"/>
		<path class="st0" d="M163.16,33.25h-3.14V8.37h3.93l4.25,15.42l4.25-15.42h3.93v24.88h-3.14v-18.2l-3.42,12.8h-3.26l-3.42-12.76
			v18.16H163.16z"/>
		<path class="st0" d="M184.46,13.85h4.25c2.46,0,3.7,1.18,3.7,3.54v12.36c0,2.33-1.23,3.5-3.7,3.5h-4.25
			c-2.44,0-3.66-1.17-3.66-3.5V17.39C180.8,15.03,182.02,13.85,184.46,13.85z M188.87,29.23V17.87c0-0.48-0.08-0.79-0.24-0.95
			s-0.48-0.24-0.95-0.24h-2.19c-0.48,0-0.79,0.08-0.93,0.24c-0.15,0.16-0.22,0.48-0.22,0.95v11.37c0,0.48,0.07,0.79,0.22,0.95
			s0.46,0.24,0.93,0.24h2.19c0.48,0,0.79-0.08,0.95-0.24S188.87,29.71,188.87,29.23z"/>
		<path class="st0" d="M203.21,13.81H204v3.1h-1.43c-1.67,0-2.5,0.98-2.5,2.94v13.39h-3.58V13.85h3.58v2.38
			c0.21-0.69,0.59-1.26,1.13-1.73C201.75,14.04,202.42,13.81,203.21,13.81z"/>
		<path class="st0" d="M213.98,13.85h3.58v19.39h-3.58V31.7c-0.34,1.03-1.17,1.55-2.46,1.55h-1.43c-2.38,0-3.58-1.17-3.58-3.5V17.39
			c0-2.36,1.19-3.54,3.58-3.54h1.43c1.3,0,2.12,0.52,2.46,1.55V13.85z M211.28,30.34h1.39c0.48,0,0.81-0.11,1.01-0.32
			s0.3-0.57,0.3-1.07V18.14c0-0.5-0.1-0.86-0.3-1.07s-0.54-0.32-1.01-0.32h-1.39c-0.48,0-0.79,0.07-0.95,0.22s-0.24,0.46-0.24,0.93
			v11.29c0,0.48,0.08,0.79,0.24,0.93C210.48,30.27,210.8,30.34,211.28,30.34z"/>
		<path class="st0" d="M225.47,13.85h3.89c2.49,0,3.74,1.18,3.74,3.54v7.27h-7.83v4.61c0,0.45,0.08,0.76,0.24,0.91
			c0.16,0.16,0.48,0.24,0.95,0.24h1.83c0.48,0,0.79-0.08,0.95-0.24s0.24-0.48,0.24-0.95v-1.59h3.5v2.11c0,2.33-1.23,3.5-3.7,3.5
			h-3.82c-2.46,0-3.7-1.17-3.7-3.5V17.39C221.77,15.03,223,13.85,225.47,13.85z M225.27,22.04h4.29v-4.21
			c0-0.45-0.07-0.76-0.22-0.91c-0.15-0.16-0.46-0.24-0.93-0.24h-1.95c-0.48,0-0.79,0.08-0.95,0.24s-0.24,0.46-0.24,0.91V22.04z"/>
		<path class="st0" d="M243.43,29.35v-3.22c0-0.48-0.08-0.79-0.24-0.93c-0.16-0.15-0.48-0.22-0.95-0.22h-2.03
			c-2.46,0-3.7-1.17-3.7-3.5v-4.09c0-2.36,1.23-3.54,3.7-3.54h2.9c2.49,0,3.74,1.18,3.74,3.54v1.87h-3.5v-1.51
			c0-0.48-0.08-0.79-0.24-0.93c-0.16-0.15-0.48-0.22-0.95-0.22h-0.95c-0.48,0-0.79,0.07-0.95,0.22s-0.24,0.46-0.24,0.93v3.34
			c0,0.48,0.08,0.79,0.24,0.93c0.16,0.15,0.48,0.22,0.95,0.22h2.07c2.44,0,3.66,1.18,3.66,3.54v3.97c0,2.33-1.23,3.5-3.7,3.5h-2.94
			c-2.46,0-3.7-1.17-3.7-3.5v-1.91h3.5v1.51c0,0.48,0.08,0.79,0.24,0.93c0.16,0.15,0.48,0.22,0.95,0.22h0.95
			c0.48,0,0.79-0.07,0.95-0.22C243.35,30.14,243.43,29.83,243.43,29.35z"/>
	</g>
</g>
</svg>
